<svg width="300" height="150" viewBox="0 0 300 150" fill="none" xmlns="http://www.w3.org/2000/svg">
<rect width="300" height="150" fill="white"/>
<rect x="-0.686861" y="0.167992" width="28" height="28" transform="matrix(-0.854854 -0.518869 -0.518869 0.854854 205.232 51.2962)" stroke="#0050E6" stroke-opacity="0.06"/>
<path d="M202.273 110.139L194.924 105.896L190.682 113.245L183.333 109.002L179.091 116.351L171.742 112.108L167.5 119.457L160.151 115.214" stroke="#0050E6" stroke-opacity="0.13" stroke-width="0.5"/>
<path d="M70.3082 117.009L64.6856 109.291L55.9573 113.164L50.3347 105.446L41.6064 109.319L35.9838 101.601L27.2555 105.474L21.6329 97.7553" stroke="#0050E6" stroke-opacity="0.13" stroke-width="0.5"/>
<path d="M68.2281 122.254L62.6056 114.536L53.8773 118.409L48.2547 110.691L39.5264 114.564L33.9038 106.845L25.1755 110.718L19.5529 103" stroke="#0050E6" stroke-opacity="0.13" stroke-width="0.5"/>
<path d="M66.1481 127.499L60.5256 119.781L51.7972 123.654L46.1747 115.935L37.4463 119.808L31.8238 112.09L23.0954 115.963L17.4729 108.245" stroke="#0050E6" stroke-opacity="0.13" stroke-width="0.5"/>
<path d="M203.567 114.969L196.219 110.726L191.976 118.075L184.627 113.832L180.385 121.18L173.036 116.938L168.794 124.286L161.445 120.044" stroke="#0050E6" stroke-opacity="0.13" stroke-width="0.5"/>
<path d="M231.263 57.1938L240.696 58.6757L244.129 49.7652L253.563 51.2471L256.996 42.3367L266.429 43.8185L269.863 34.9081L279.296 36.39" stroke="#0050E6" stroke-opacity="0.13" stroke-width="0.5"/>
<path d="M235 62L244.433 63.4819L247.867 54.5714L257.3 56.0533L260.733 47.1429L270.167 48.6247L273.6 39.7143L283.033 41.1962" stroke="#0050E6" stroke-opacity="0.13" stroke-width="0.5"/>
<path d="M204.861 119.798L197.513 115.556L193.27 122.904L185.922 118.661L181.679 126.01L174.33 121.767L170.088 129.116L162.739 124.873" stroke="#0050E6" stroke-opacity="0.13" stroke-width="0.5"/>
<path d="M228.763 52.8637L238.196 54.3455L241.629 45.4351L251.063 46.917L254.496 38.0065L263.929 39.4884L267.363 30.578L276.796 32.0598" stroke="#0050E6" stroke-opacity="0.13" stroke-width="0.5"/>
<circle cx="115.5" cy="102.5" r="17" stroke="#0050E6" stroke-opacity="0.05"/>
<circle r="6" transform="matrix(-1 0 0 1 150.5 104.5)" stroke="#0050E6" stroke-opacity="0.05"/>
<circle r="14" transform="matrix(-1 0 0 1 91.5 20.5)" stroke="#0050E6" stroke-opacity="0.05"/>
<circle cx="173.5" cy="52.5" r="32" stroke="#0050E6" stroke-opacity="0.05"/>
<rect x="44.183" y="18.683" width="57" height="57" transform="rotate(30 44.183 18.683)" stroke="#0050E6" stroke-opacity="0.06"/>
<rect x="-0.5" y="0.5" width="18.3064" height="18.3064" transform="matrix(-1 -8.74228e-08 -8.74228e-08 1 131.306 32)" stroke="#0050E6" stroke-opacity="0.06"/>
<rect x="-0.5" y="0.5" width="8" height="8" transform="matrix(-1 -8.74228e-08 -8.74228e-08 1 139 77)" stroke="#0050E6" stroke-opacity="0.06"/>
<rect x="-0.683013" y="0.183013" width="34.916" height="34.916" transform="matrix(-0.866025 -0.5 -0.5 0.866025 286.224 109.672)" stroke="#0050E6" stroke-opacity="0.06"/>
<path d="M48.26 45.256L45.344 58H40.376L38.9 50.764L37.424 58H32.456L29.54 45.256H33.842L34.994 53.284L36.722 45.256H41.078L42.806 53.284L43.958 45.256H48.26ZM53.689 48.424V50.008H57.649V53.014H53.689V54.814H58.189V58H49.693V45.256H58.189V48.424H53.689ZM62.5029 42.232C62.8029 43 62.9529 43.804 62.9529 44.644C62.9529 45.58 62.7009 46.348 62.1969 46.948C61.7049 47.536 60.9729 47.83 60.0009 47.83V46.408C60.3129 46.408 60.5529 46.3 60.7209 46.084C60.9009 45.856 60.9909 45.52 60.9909 45.076V44.86H59.6949V42.232H62.5029ZM68.1054 45.256L70.7334 54.022L73.3434 45.256H77.5914L73.3074 58H68.1414L63.8574 45.256H68.1054ZM82.4819 48.424V50.008H86.4419V53.014H82.4819V54.814H86.9819V58H78.4859V45.256H86.9819V48.424H82.4819ZM97.6305 45.13C99.2985 45.13 100.654 45.532 101.698 46.336C102.754 47.14 103.378 48.232 103.57 49.612H99.3585C99.2025 49.36 98.9805 49.168 98.6925 49.036C98.4045 48.892 98.0565 48.82 97.6485 48.82C96.8805 48.82 96.2865 49.072 95.8665 49.576C95.4465 50.068 95.2365 50.746 95.2365 51.61C95.2365 52.606 95.4705 53.35 95.9385 53.842C96.4065 54.334 97.1265 54.58 98.0985 54.58C99.0225 54.58 99.7665 54.208 100.33 53.464H97.1445V50.638H103.642V54.634C103.09 55.582 102.328 56.398 101.356 57.082C100.384 57.754 99.1545 58.09 97.6665 58.09C96.3465 58.09 95.1945 57.82 94.2105 57.28C93.2385 56.728 92.4885 55.96 91.9605 54.976C91.4445 53.992 91.1865 52.87 91.1865 51.61C91.1865 50.35 91.4445 49.228 91.9605 48.244C92.4885 47.26 93.2385 46.498 94.2105 45.958C95.1825 45.406 96.3225 45.13 97.6305 45.13ZM111.292 45.04C112.492 45.04 113.59 45.322 114.586 45.886C115.582 46.438 116.368 47.212 116.944 48.208C117.532 49.204 117.826 50.326 117.826 51.574C117.826 52.822 117.532 53.944 116.944 54.94C116.368 55.936 115.576 56.716 114.568 57.28C113.572 57.844 112.48 58.126 111.292 58.126C110.092 58.126 108.988 57.844 107.98 57.28C106.984 56.716 106.192 55.936 105.604 54.94C105.016 53.944 104.722 52.822 104.722 51.574C104.722 50.326 105.016 49.204 105.604 48.208C106.192 47.212 106.984 46.438 107.98 45.886C108.988 45.322 110.092 45.04 111.292 45.04ZM111.292 48.73C110.488 48.73 109.87 48.988 109.438 49.504C109.006 50.008 108.79 50.698 108.79 51.574C108.79 52.438 109.006 53.128 109.438 53.644C109.87 54.148 110.488 54.4 111.292 54.4C112.084 54.4 112.696 54.148 113.128 53.644C113.56 53.128 113.776 52.438 113.776 51.574C113.776 50.698 113.56 50.008 113.128 49.504C112.696 48.988 112.084 48.73 111.292 48.73ZM129.275 45.256V48.424H125.891V58H121.895V48.424H118.547V45.256H129.275ZM38.072 72.074H33.824L33.194 74H29L33.662 61.256H38.27L42.914 74H38.702L38.072 72.074ZM37.1 69.068L35.948 65.522L34.796 69.068H37.1ZM49.9059 61.13C51.5739 61.13 52.9299 61.532 53.9739 62.336C55.0299 63.14 55.6539 64.232 55.8459 65.612H51.6339C51.4779 65.36 51.2559 65.168 50.9679 65.036C50.6799 64.892 50.3319 64.82 49.9239 64.82C49.1559 64.82 48.5619 65.072 48.1419 65.576C47.7219 66.068 47.5119 66.746 47.5119 67.61C47.5119 68.606 47.7459 69.35 48.2139 69.842C48.6819 70.334 49.4019 70.58 50.3739 70.58C51.2979 70.58 52.0419 70.208 52.6059 69.464H49.4199V66.638H55.9179V70.634C55.3659 71.582 54.6039 72.398 53.6319 73.082C52.6599 73.754 51.4299 74.09 49.9419 74.09C48.6219 74.09 47.4699 73.82 46.4859 73.28C45.5139 72.728 44.7639 71.96 44.2359 70.976C43.7199 69.992 43.4619 68.87 43.4619 67.61C43.4619 66.35 43.7199 65.228 44.2359 64.244C44.7639 63.26 45.5139 62.498 46.4859 61.958C47.4579 61.406 48.5979 61.13 49.9059 61.13ZM65.529 72.074H61.281L60.651 74H56.457L61.119 61.256H65.727L70.371 74H66.159L65.529 72.074ZM64.557 69.068L63.405 65.522L62.253 69.068H64.557ZM77.6869 74L75.2749 69.428V74H71.2789V61.256H77.2189C78.2509 61.256 79.1329 61.442 79.8649 61.814C80.5969 62.174 81.1429 62.672 81.5029 63.308C81.8749 63.932 82.0609 64.64 82.0609 65.432C82.0609 66.284 81.8209 67.04 81.3409 67.7C80.8729 68.36 80.1949 68.834 79.3069 69.122L82.0789 74H77.6869ZM75.2749 66.764H76.8589C77.2429 66.764 77.5309 66.68 77.7229 66.512C77.9149 66.332 78.0109 66.056 78.0109 65.684C78.0109 65.348 77.9089 65.084 77.7049 64.892C77.5129 64.7 77.2309 64.604 76.8589 64.604H75.2749V66.764ZM93.3455 61.256V64.424H89.9615V74H85.9655V64.424H82.6175V61.256H93.3455ZM102.601 72.074H98.3533L97.7233 74H93.5293L98.1913 61.256H102.799L107.443 74H103.231L102.601 72.074ZM101.629 69.068L100.477 65.522L99.3253 69.068H101.629ZM112.347 70.976H116.199V74H108.351V61.256H112.347V70.976ZM125.629 72.074H121.381L120.751 74H116.557L121.219 61.256H125.827L130.471 74H126.259L125.629 72.074ZM124.657 69.068L123.505 65.522L122.353 69.068H124.657ZM35.84 77.13C36.944 77.13 37.928 77.34 38.792 77.76C39.668 78.168 40.376 78.75 40.916 79.506C41.468 80.262 41.834 81.144 42.014 82.152H37.802C37.61 81.732 37.334 81.408 36.974 81.18C36.626 80.94 36.224 80.82 35.768 80.82C35.096 80.82 34.562 81.072 34.166 81.576C33.782 82.08 33.59 82.758 33.59 83.61C33.59 84.462 33.782 85.14 34.166 85.644C34.562 86.148 35.096 86.4 35.768 86.4C36.224 86.4 36.626 86.286 36.974 86.058C37.334 85.818 37.61 85.488 37.802 85.068H42.014C41.834 86.076 41.468 86.958 40.916 87.714C40.376 88.47 39.668 89.058 38.792 89.478C37.928 89.886 36.944 90.09 35.84 90.09C34.556 90.09 33.44 89.82 32.492 89.28C31.544 88.728 30.812 87.96 30.296 86.976C29.792 85.992 29.54 84.87 29.54 83.61C29.54 82.35 29.792 81.228 30.296 80.244C30.812 79.26 31.544 78.498 32.492 77.958C33.44 77.406 34.556 77.13 35.84 77.13ZM49.6627 77.04C50.8627 77.04 51.9607 77.322 52.9567 77.886C53.9527 78.438 54.7387 79.212 55.3147 80.208C55.9027 81.204 56.1967 82.326 56.1967 83.574C56.1967 84.822 55.9027 85.944 55.3147 86.94C54.7387 87.936 53.9467 88.716 52.9387 89.28C51.9427 89.844 50.8507 90.126 49.6627 90.126C48.4627 90.126 47.3587 89.844 46.3507 89.28C45.3547 88.716 44.5627 87.936 43.9747 86.94C43.3867 85.944 43.0927 84.822 43.0927 83.574C43.0927 82.326 43.3867 81.204 43.9747 80.208C44.5627 79.212 45.3547 78.438 46.3507 77.886C47.3587 77.322 48.4627 77.04 49.6627 77.04ZM49.6627 80.73C48.8587 80.73 48.2407 80.988 47.8087 81.504C47.3767 82.008 47.1607 82.698 47.1607 83.574C47.1607 84.438 47.3767 85.128 47.8087 85.644C48.2407 86.148 48.8587 86.4 49.6627 86.4C50.4547 86.4 51.0667 86.148 51.4987 85.644C51.9307 85.128 52.1467 84.438 52.1467 83.574C52.1467 82.698 51.9307 82.008 51.4987 81.504C51.0667 80.988 50.4547 80.73 49.6627 80.73ZM60.9863 77.256L63.6143 86.022L66.2243 77.256H70.4723L66.1883 90H61.0223L56.7383 77.256H60.9863ZM75.3628 80.424V82.008H79.3228V85.014H75.3628V86.814H79.8628V90H71.3668V77.256H79.8628V80.424H75.3628ZM87.7768 90L85.3648 85.428V90H81.3688V77.256H87.3088C88.3408 77.256 89.2228 77.442 89.9548 77.814C90.6868 78.174 91.2328 78.672 91.5928 79.308C91.9648 79.932 92.1508 80.64 92.1508 81.432C92.1508 82.284 91.9108 83.04 91.4308 83.7C90.9628 84.36 90.2848 84.834 89.3968 85.122L92.1688 90H87.7768ZM85.3648 82.764H86.9488C87.3328 82.764 87.6208 82.68 87.8128 82.512C88.0048 82.332 88.1008 82.056 88.1008 81.684C88.1008 81.348 87.9988 81.084 87.7948 80.892C87.6028 80.7 87.3208 80.604 86.9488 80.604H85.3648V82.764ZM97.4233 80.424V82.008H101.383V85.014H97.4233V86.814H101.923V90H93.4273V77.256H101.923V80.424H97.4233ZM115.363 83.592C115.363 84.804 115.093 85.896 114.553 86.868C114.013 87.84 113.239 88.608 112.231 89.172C111.235 89.724 110.071 90 108.739 90H103.429V77.256H108.739C110.071 77.256 111.235 77.526 112.231 78.066C113.239 78.606 114.013 79.356 114.553 80.316C115.093 81.276 115.363 82.368 115.363 83.592ZM108.379 86.436C109.279 86.436 109.993 86.19 110.521 85.698C111.049 85.206 111.313 84.504 111.313 83.592C111.313 82.68 111.049 81.978 110.521 81.486C109.993 80.994 109.279 80.748 108.379 80.748H107.425V86.436H108.379Z" fill="#6C63FF"/>
<path d="M35.52 96.36L34.088 102H33.2L31.896 97.392L30.592 102H29.704L28.264 96.36H29.072L30.152 101.152L31.488 96.36H32.296L33.632 101.136L34.72 96.36H35.52ZM40.6531 99.56C40.6531 99.7147 40.6424 99.848 40.6211 99.96H37.1091C37.1251 100.461 37.2664 100.837 37.5331 101.088C37.8051 101.339 38.1357 101.464 38.5251 101.464C38.8771 101.464 39.1704 101.376 39.4051 101.2C39.6451 101.019 39.7917 100.779 39.8451 100.48H40.6211C40.5677 100.784 40.4477 101.056 40.2611 101.296C40.0797 101.536 39.8424 101.723 39.5491 101.856C39.2557 101.989 38.9251 102.056 38.5571 102.056C38.1357 102.056 37.7624 101.965 37.4371 101.784C37.1117 101.603 36.8557 101.344 36.6691 101.008C36.4877 100.667 36.3971 100.267 36.3971 99.808C36.3971 99.3493 36.4877 98.9493 36.6691 98.608C36.8557 98.2667 37.1117 98.0053 37.4371 97.824C37.7624 97.6427 38.1357 97.552 38.5571 97.552C38.9837 97.552 39.3544 97.6427 39.6691 97.824C39.9891 98.0053 40.2317 98.248 40.3971 98.552C40.5677 98.856 40.6531 99.192 40.6531 99.56ZM39.9171 99.608C39.9331 99.2827 39.8797 99.0107 39.7571 98.792C39.6344 98.5733 39.4664 98.4107 39.2531 98.304C39.0397 98.1973 38.8077 98.144 38.5571 98.144C38.1571 98.144 37.8211 98.2693 37.5491 98.52C37.2771 98.7653 37.1304 99.128 37.1091 99.608H39.9171ZM45.8618 97.552C46.2885 97.552 46.6485 97.6587 46.9418 97.872C47.2405 98.0853 47.4485 98.3707 47.5658 98.728V96.08H48.2938V102H47.5658V100.88C47.4485 101.237 47.2405 101.523 46.9418 101.736C46.6485 101.949 46.2885 102.056 45.8618 102.056C45.4725 102.056 45.1258 101.965 44.8218 101.784C44.5178 101.603 44.2778 101.344 44.1018 101.008C43.9311 100.667 43.8458 100.267 43.8458 99.808C43.8458 99.3493 43.9311 98.9493 44.1018 98.608C44.2778 98.2667 44.5178 98.0053 44.8218 97.824C45.1258 97.6427 45.4725 97.552 45.8618 97.552ZM46.0698 98.2C45.6218 98.2 45.2618 98.344 44.9898 98.632C44.7231 98.9147 44.5898 99.3067 44.5898 99.808C44.5898 100.309 44.7231 100.704 44.9898 100.992C45.2618 101.275 45.6218 101.416 46.0698 101.416C46.3578 101.416 46.6138 101.349 46.8378 101.216C47.0671 101.083 47.2458 100.896 47.3738 100.656C47.5018 100.411 47.5658 100.128 47.5658 99.808C47.5658 99.488 47.5018 99.2053 47.3738 98.96C47.2458 98.7147 47.0671 98.528 46.8378 98.4C46.6138 98.2667 46.3578 98.2 46.0698 98.2ZM53.7324 99.56C53.7324 99.7147 53.7218 99.848 53.7004 99.96H50.1884C50.2044 100.461 50.3458 100.837 50.6124 101.088C50.8844 101.339 51.2151 101.464 51.6044 101.464C51.9564 101.464 52.2498 101.376 52.4844 101.2C52.7244 101.019 52.8711 100.779 52.9244 100.48H53.7004C53.6471 100.784 53.5271 101.056 53.3404 101.296C53.1591 101.536 52.9218 101.723 52.6284 101.856C52.3351 101.989 52.0044 102.056 51.6364 102.056C51.2151 102.056 50.8418 101.965 50.5164 101.784C50.1911 101.603 49.9351 101.344 49.7484 101.008C49.5671 100.667 49.4764 100.267 49.4764 99.808C49.4764 99.3493 49.5671 98.9493 49.7484 98.608C49.9351 98.2667 50.1911 98.0053 50.5164 97.824C50.8418 97.6427 51.2151 97.552 51.6364 97.552C52.0631 97.552 52.4338 97.6427 52.7484 97.824C53.0684 98.0053 53.3111 98.248 53.4764 98.552C53.6471 98.856 53.7324 99.192 53.7324 99.56ZM52.9964 99.608C53.0124 99.2827 52.9591 99.0107 52.8364 98.792C52.7138 98.5733 52.5458 98.4107 52.3324 98.304C52.1191 98.1973 51.8871 98.144 51.6364 98.144C51.2364 98.144 50.9004 98.2693 50.6284 98.52C50.3564 98.7653 50.2098 99.128 50.1884 99.608H52.9964ZM55.6526 96.08V102H54.9246V96.08H55.6526ZM56.9351 96.32C56.9351 96.1867 56.9804 96.08 57.0711 96C57.1617 95.9147 57.2817 95.872 57.4311 95.872C57.5804 95.872 57.7004 95.9147 57.7911 96C57.8817 96.08 57.9271 96.1867 57.9271 96.32C57.9271 96.4533 57.8817 96.5627 57.7911 96.648C57.7004 96.728 57.5804 96.768 57.4311 96.768C57.2817 96.768 57.1617 96.728 57.0711 96.648C56.9804 96.5627 56.9351 96.4533 56.9351 96.32ZM57.7911 97.608V102H57.0631V97.608H57.7911ZM60.9055 101.224L62.2655 97.608H63.0495L61.3295 102H60.4655L58.7455 97.608H59.5295L60.9055 101.224ZM68.044 99.56C68.044 99.7147 68.0333 99.848 68.012 99.96H64.5C64.516 100.461 64.6573 100.837 64.924 101.088C65.196 101.339 65.5267 101.464 65.916 101.464C66.268 101.464 66.5613 101.376 66.796 101.2C67.036 101.019 67.1827 100.779 67.236 100.48H68.012C67.9587 100.784 67.8387 101.056 67.652 101.296C67.4707 101.536 67.2333 101.723 66.94 101.856C66.6467 101.989 66.316 102.056 65.948 102.056C65.5267 102.056 65.1533 101.965 64.828 101.784C64.5027 101.603 64.2467 101.344 64.06 101.008C63.8787 100.667 63.788 100.267 63.788 99.808C63.788 99.3493 63.8787 98.9493 64.06 98.608C64.2467 98.2667 64.5027 98.0053 64.828 97.824C65.1533 97.6427 65.5267 97.552 65.948 97.552C66.3747 97.552 66.7453 97.6427 67.06 97.824C67.38 98.0053 67.6227 98.248 67.788 98.552C67.9587 98.856 68.044 99.192 68.044 99.56ZM67.308 99.608C67.324 99.2827 67.2707 99.0107 67.148 98.792C67.0253 98.5733 66.8573 98.4107 66.644 98.304C66.4307 98.1973 66.1987 98.144 65.948 98.144C65.548 98.144 65.212 98.2693 64.94 98.52C64.668 98.7653 64.5213 99.128 64.5 99.608H67.308ZM69.9642 98.496C70.1082 98.192 70.3189 97.9573 70.5962 97.792C70.8735 97.6213 71.2042 97.536 71.5882 97.536V98.328H71.3642C70.9535 98.328 70.6175 98.4347 70.3562 98.648C70.0949 98.856 69.9642 99.2027 69.9642 99.688V102H69.2362V97.608H69.9642V98.496ZM80.1631 97.536C80.6751 97.536 81.0857 97.7013 81.3951 98.032C81.7097 98.3573 81.8671 98.8293 81.8671 99.448V102H81.1391V99.512C81.1391 99.08 81.0324 98.7493 80.8191 98.52C80.6111 98.2907 80.3231 98.176 79.9551 98.176C79.5711 98.176 79.2617 98.304 79.0271 98.56C78.7977 98.8107 78.6831 99.1813 78.6831 99.672V102H77.9551V99.512C77.9551 99.08 77.8484 98.7493 77.6351 98.52C77.4217 98.2907 77.1337 98.176 76.7711 98.176C76.3817 98.176 76.0697 98.304 75.8351 98.56C75.6057 98.8107 75.4911 99.1813 75.4911 99.672V102H74.7631V97.608H75.4911V98.608C75.5977 98.2613 75.7871 97.9973 76.0591 97.816C76.3364 97.6293 76.6537 97.536 77.0111 97.536C77.3844 97.536 77.7071 97.632 77.9791 97.824C78.2564 98.0107 78.4537 98.288 78.5711 98.656C78.6937 98.2987 78.8991 98.024 79.1871 97.832C79.4751 97.6347 79.8004 97.536 80.1631 97.536ZM87.2774 99.56C87.2774 99.7147 87.2668 99.848 87.2454 99.96H83.7334C83.7494 100.461 83.8908 100.837 84.1574 101.088C84.4294 101.339 84.7601 101.464 85.1494 101.464C85.5014 101.464 85.7948 101.376 86.0294 101.2C86.2694 101.019 86.4161 100.779 86.4694 100.48H87.2454C87.1921 100.784 87.0721 101.056 86.8854 101.296C86.7041 101.536 86.4668 101.723 86.1734 101.856C85.8801 101.989 85.5494 102.056 85.1814 102.056C84.7601 102.056 84.3868 101.965 84.0614 101.784C83.7361 101.603 83.4801 101.344 83.2934 101.008C83.1121 100.667 83.0214 100.267 83.0214 99.808C83.0214 99.3493 83.1121 98.9493 83.2934 98.608C83.4801 98.2667 83.7361 98.0053 84.0614 97.824C84.3868 97.6427 84.7601 97.552 85.1814 97.552C85.6081 97.552 85.9788 97.6427 86.2934 97.824C86.6134 98.0053 86.8561 98.248 87.0214 98.552C87.1921 98.856 87.2774 99.192 87.2774 99.56ZM86.5414 99.608C86.5574 99.2827 86.5041 99.0107 86.3814 98.792C86.2588 98.5733 86.0908 98.4107 85.8774 98.304C85.6641 98.1973 85.4321 98.144 85.1814 98.144C84.7814 98.144 84.4454 98.2693 84.1734 98.52C83.9014 98.7653 83.7548 99.128 83.7334 99.608H86.5414ZM90.2696 97.552C90.6963 97.552 91.0563 97.6587 91.3496 97.872C91.6483 98.0853 91.8563 98.3707 91.9736 98.728V96.08H92.7016V102H91.9736V100.88C91.8563 101.237 91.6483 101.523 91.3496 101.736C91.0563 101.949 90.6963 102.056 90.2696 102.056C89.8803 102.056 89.5336 101.965 89.2296 101.784C88.9256 101.603 88.6856 101.344 88.5096 101.008C88.339 100.667 88.2536 100.267 88.2536 99.808C88.2536 99.3493 88.339 98.9493 88.5096 98.608C88.6856 98.2667 88.9256 98.0053 89.2296 97.824C89.5336 97.6427 89.8803 97.552 90.2696 97.552ZM90.4776 98.2C90.0296 98.2 89.6696 98.344 89.3976 98.632C89.131 98.9147 88.9976 99.3067 88.9976 99.808C88.9976 100.309 89.131 100.704 89.3976 100.992C89.6696 101.275 90.0296 101.416 90.4776 101.416C90.7656 101.416 91.0216 101.349 91.2456 101.216C91.475 101.083 91.6536 100.896 91.7816 100.656C91.9096 100.411 91.9736 100.128 91.9736 99.808C91.9736 99.488 91.9096 99.2053 91.7816 98.96C91.6536 98.7147 91.475 98.528 91.2456 98.4C91.0216 98.2667 90.7656 98.2 90.4776 98.2ZM93.9723 96.32C93.9723 96.1867 94.0176 96.08 94.1083 96C94.1989 95.9147 94.3189 95.872 94.4683 95.872C94.6176 95.872 94.7376 95.9147 94.8283 96C94.9189 96.08 94.9643 96.1867 94.9643 96.32C94.9643 96.4533 94.9189 96.5627 94.8283 96.648C94.7376 96.728 94.6176 96.768 94.4683 96.768C94.3189 96.768 94.1989 96.728 94.1083 96.648C94.0176 96.5627 93.9723 96.4533 93.9723 96.32ZM94.8283 97.608V102H94.1003V97.608H94.8283ZM98.1827 97.552C98.7427 97.552 99.2067 97.7013 99.5747 98C99.9427 98.2987 100.169 98.6987 100.255 99.2H99.4867C99.4334 98.8853 99.2867 98.64 99.0467 98.464C98.812 98.2827 98.5187 98.192 98.1667 98.192C97.9107 98.192 97.676 98.2507 97.4627 98.368C97.2547 98.4853 97.0867 98.6667 96.9587 98.912C96.8307 99.152 96.7667 99.4507 96.7667 99.808C96.7667 100.165 96.8307 100.467 96.9587 100.712C97.0867 100.952 97.2547 101.131 97.4627 101.248C97.676 101.365 97.9107 101.424 98.1667 101.424C98.5187 101.424 98.812 101.333 99.0467 101.152C99.2867 100.971 99.4334 100.723 99.4867 100.408H100.255C100.169 100.915 99.9427 101.317 99.5747 101.616C99.2067 101.909 98.7427 102.056 98.1827 102.056C97.7614 102.056 97.388 101.965 97.0627 101.784C96.7374 101.603 96.4814 101.344 96.2947 101.008C96.1134 100.667 96.0227 100.267 96.0227 99.808C96.0227 99.3493 96.1134 98.9493 96.2947 98.608C96.4814 98.2667 96.7374 98.0053 97.0627 97.824C97.388 97.6427 97.7614 97.552 98.1827 97.552ZM101.319 96.32C101.319 96.1867 101.365 96.08 101.455 96C101.546 95.9147 101.666 95.872 101.815 95.872C101.965 95.872 102.085 95.9147 102.175 96C102.266 96.08 102.311 96.1867 102.311 96.32C102.311 96.4533 102.266 96.5627 102.175 96.648C102.085 96.728 101.965 96.768 101.815 96.768C101.666 96.768 101.546 96.728 101.455 96.648C101.365 96.5627 101.319 96.4533 101.319 96.32ZM102.175 97.608V102H101.447V97.608H102.175ZM105.898 97.536C106.41 97.536 106.823 97.7013 107.138 98.032C107.453 98.3573 107.61 98.8293 107.61 99.448V102H106.882V99.512C106.882 99.0747 106.77 98.7387 106.546 98.504C106.322 98.2693 106.018 98.152 105.634 98.152C105.234 98.152 104.914 98.2827 104.674 98.544C104.434 98.8 104.314 99.176 104.314 99.672V102H103.586V97.608H104.314V98.648C104.426 98.2907 104.623 98.016 104.906 97.824C105.194 97.632 105.525 97.536 105.898 97.536ZM113.006 99.56C113.006 99.7147 112.996 99.848 112.974 99.96H109.462C109.478 100.461 109.62 100.837 109.886 101.088C110.158 101.339 110.489 101.464 110.878 101.464C111.23 101.464 111.524 101.376 111.758 101.2C111.998 101.019 112.145 100.779 112.198 100.48H112.974C112.921 100.784 112.801 101.056 112.615 101.296C112.433 101.536 112.196 101.723 111.902 101.856C111.609 101.989 111.278 102.056 110.91 102.056C110.489 102.056 110.116 101.965 109.79 101.784C109.465 101.603 109.209 101.344 109.022 101.008C108.841 100.667 108.75 100.267 108.75 99.808C108.75 99.3493 108.841 98.9493 109.022 98.608C109.209 98.2667 109.465 98.0053 109.79 97.824C110.116 97.6427 110.489 97.552 110.91 97.552C111.337 97.552 111.708 97.6427 112.022 97.824C112.342 98.0053 112.585 98.248 112.75 98.552C112.921 98.856 113.006 99.192 113.006 99.56ZM112.27 99.608C112.286 99.2827 112.233 99.0107 112.11 98.792C111.988 98.5733 111.82 98.4107 111.606 98.304C111.393 98.1973 111.161 98.144 110.91 98.144C110.51 98.144 110.174 98.2693 109.902 98.52C109.63 98.7653 109.484 99.128 109.462 99.608H112.27ZM115.575 97.552C116.071 97.552 116.468 97.6827 116.767 97.944C117.071 98.2 117.255 98.5467 117.319 98.984H116.623C116.591 98.7227 116.481 98.5093 116.295 98.344C116.113 98.1733 115.868 98.088 115.559 98.088C115.297 98.088 115.092 98.152 114.943 98.28C114.799 98.4027 114.727 98.5707 114.727 98.784C114.727 98.944 114.775 99.0747 114.871 99.176C114.972 99.272 115.095 99.3467 115.239 99.4C115.388 99.448 115.591 99.5013 115.847 99.56C116.172 99.6347 116.433 99.712 116.631 99.792C116.833 99.8667 117.004 99.9893 117.143 100.16C117.287 100.331 117.359 100.56 117.359 100.848C117.359 101.205 117.223 101.496 116.951 101.72C116.684 101.944 116.327 102.056 115.879 102.056C115.356 102.056 114.929 101.931 114.599 101.68C114.268 101.429 114.073 101.08 114.015 100.632H114.719C114.745 100.899 114.86 101.115 115.063 101.28C115.271 101.445 115.543 101.528 115.879 101.528C116.129 101.528 116.324 101.464 116.463 101.336C116.607 101.208 116.679 101.04 116.679 100.832C116.679 100.661 116.628 100.525 116.527 100.424C116.425 100.323 116.3 100.245 116.151 100.192C116.001 100.139 115.796 100.083 115.535 100.024C115.209 99.9493 114.948 99.8747 114.751 99.8C114.559 99.7253 114.393 99.608 114.255 99.448C114.121 99.2827 114.055 99.0613 114.055 98.784C114.055 98.416 114.191 98.12 114.463 97.896C114.735 97.6667 115.105 97.552 115.575 97.552ZM30.384 105.552C30.8107 105.552 31.1707 105.659 31.464 105.872C31.7627 106.085 31.9707 106.371 32.088 106.728V105.608H32.816V110H32.088V108.88C31.9707 109.237 31.7627 109.523 31.464 109.736C31.1707 109.949 30.8107 110.056 30.384 110.056C29.9947 110.056 29.648 109.965 29.344 109.784C29.04 109.603 28.8 109.344 28.624 109.008C28.4533 108.667 28.368 108.267 28.368 107.808C28.368 107.349 28.4533 106.949 28.624 106.608C28.8 106.267 29.04 106.005 29.344 105.824C29.648 105.643 29.9947 105.552 30.384 105.552ZM30.592 106.2C30.144 106.2 29.784 106.344 29.512 106.632C29.2453 106.915 29.112 107.307 29.112 107.808C29.112 108.309 29.2453 108.704 29.512 108.992C29.784 109.275 30.144 109.416 30.592 109.416C30.88 109.416 31.136 109.349 31.36 109.216C31.5893 109.083 31.768 108.896 31.896 108.656C32.024 108.411 32.088 108.128 32.088 107.808C32.088 107.488 32.024 107.205 31.896 106.96C31.768 106.715 31.5893 106.528 31.36 106.4C31.136 106.267 30.88 106.2 30.592 106.2ZM36.1586 105.552C36.7186 105.552 37.1826 105.701 37.5506 106C37.9186 106.299 38.1453 106.699 38.2306 107.2H37.4626C37.4093 106.885 37.2626 106.64 37.0226 106.464C36.788 106.283 36.4946 106.192 36.1426 106.192C35.8866 106.192 35.652 106.251 35.4386 106.368C35.2306 106.485 35.0626 106.667 34.9346 106.912C34.8066 107.152 34.7426 107.451 34.7426 107.808C34.7426 108.165 34.8066 108.467 34.9346 108.712C35.0626 108.952 35.2306 109.131 35.4386 109.248C35.652 109.365 35.8866 109.424 36.1426 109.424C36.4946 109.424 36.788 109.333 37.0226 109.152C37.2626 108.971 37.4093 108.723 37.4626 108.408H38.2306C38.1453 108.915 37.9186 109.317 37.5506 109.616C37.1826 109.909 36.7186 110.056 36.1586 110.056C35.7373 110.056 35.364 109.965 35.0386 109.784C34.7133 109.603 34.4573 109.344 34.2706 109.008C34.0893 108.667 33.9986 108.267 33.9986 107.808C33.9986 107.349 34.0893 106.949 34.2706 106.608C34.4573 106.267 34.7133 106.005 35.0386 105.824C35.364 105.643 35.7373 105.552 36.1586 105.552ZM40.1514 106.496C40.2954 106.192 40.506 105.957 40.7834 105.792C41.0607 105.621 41.3914 105.536 41.7754 105.536V106.328H41.5514C41.1407 106.328 40.8047 106.435 40.5434 106.648C40.282 106.856 40.1514 107.203 40.1514 107.688V110H39.4234V105.608H40.1514V106.496ZM44.7257 105.552C45.147 105.552 45.523 105.643 45.8537 105.824C46.1897 106.005 46.451 106.267 46.6377 106.608C46.8297 106.949 46.9257 107.349 46.9257 107.808C46.9257 108.267 46.8297 108.667 46.6377 109.008C46.451 109.344 46.1897 109.603 45.8537 109.784C45.523 109.965 45.147 110.056 44.7257 110.056C44.3044 110.056 43.9257 109.965 43.5897 109.784C43.259 109.603 42.9977 109.344 42.8057 109.008C42.6137 108.667 42.5177 108.267 42.5177 107.808C42.5177 107.349 42.6137 106.949 42.8057 106.608C42.9977 106.267 43.259 106.005 43.5897 105.824C43.9257 105.643 44.3044 105.552 44.7257 105.552ZM44.7257 106.192C44.4644 106.192 44.2217 106.251 43.9977 106.368C43.779 106.485 43.6004 106.667 43.4617 106.912C43.3284 107.152 43.2617 107.451 43.2617 107.808C43.2617 108.16 43.3284 108.459 43.4617 108.704C43.6004 108.944 43.779 109.123 43.9977 109.24C44.2217 109.357 44.4644 109.416 44.7257 109.416C44.987 109.416 45.227 109.357 45.4457 109.24C45.6697 109.123 45.8484 108.944 45.9817 108.704C46.1204 108.459 46.1897 108.16 46.1897 107.808C46.1897 107.451 46.1204 107.152 45.9817 106.912C45.8484 106.667 45.6697 106.485 45.4457 106.368C45.227 106.251 44.987 106.192 44.7257 106.192ZM49.4903 105.552C49.9863 105.552 50.3836 105.683 50.6823 105.944C50.9863 106.2 51.1703 106.547 51.2343 106.984H50.5383C50.5063 106.723 50.397 106.509 50.2103 106.344C50.029 106.173 49.7836 106.088 49.4743 106.088C49.213 106.088 49.0076 106.152 48.8583 106.28C48.7143 106.403 48.6423 106.571 48.6423 106.784C48.6423 106.944 48.6903 107.075 48.7863 107.176C48.8876 107.272 49.0103 107.347 49.1543 107.4C49.3036 107.448 49.5063 107.501 49.7623 107.56C50.0876 107.635 50.349 107.712 50.5463 107.792C50.749 107.867 50.9196 107.989 51.0583 108.16C51.2023 108.331 51.2743 108.56 51.2743 108.848C51.2743 109.205 51.1383 109.496 50.8663 109.72C50.5996 109.944 50.2423 110.056 49.7943 110.056C49.2716 110.056 48.845 109.931 48.5143 109.68C48.1836 109.429 47.989 109.08 47.9303 108.632H48.6343C48.661 108.899 48.7756 109.115 48.9783 109.28C49.1863 109.445 49.4583 109.528 49.7943 109.528C50.045 109.528 50.2396 109.464 50.3783 109.336C50.5223 109.208 50.5943 109.04 50.5943 108.832C50.5943 108.661 50.5436 108.525 50.4423 108.424C50.341 108.323 50.2156 108.245 50.0663 108.192C49.917 108.139 49.7116 108.083 49.4503 108.024C49.125 107.949 48.8636 107.875 48.6663 107.8C48.4743 107.725 48.309 107.608 48.1703 107.448C48.037 107.283 47.9703 107.061 47.9703 106.784C47.9703 106.416 48.1063 106.12 48.3783 105.896C48.6503 105.667 49.021 105.552 49.4903 105.552ZM53.8631 105.552C54.3591 105.552 54.7565 105.683 55.0551 105.944C55.3591 106.2 55.5431 106.547 55.6071 106.984H54.9111C54.8791 106.723 54.7698 106.509 54.5831 106.344C54.4018 106.173 54.1565 106.088 53.8471 106.088C53.5858 106.088 53.3805 106.152 53.2311 106.28C53.0871 106.403 53.0151 106.571 53.0151 106.784C53.0151 106.944 53.0631 107.075 53.1591 107.176C53.2605 107.272 53.3831 107.347 53.5271 107.4C53.6765 107.448 53.8791 107.501 54.1351 107.56C54.4605 107.635 54.7218 107.712 54.9191 107.792C55.1218 107.867 55.2925 107.989 55.4311 108.16C55.5751 108.331 55.6471 108.56 55.6471 108.848C55.6471 109.205 55.5111 109.496 55.2391 109.72C54.9725 109.944 54.6151 110.056 54.1671 110.056C53.6445 110.056 53.2178 109.931 52.8871 109.68C52.5565 109.429 52.3618 109.08 52.3031 108.632H53.0071C53.0338 108.899 53.1485 109.115 53.3511 109.28C53.5591 109.445 53.8311 109.528 54.1671 109.528C54.4178 109.528 54.6125 109.464 54.7511 109.336C54.8951 109.208 54.9671 109.04 54.9671 108.832C54.9671 108.661 54.9165 108.525 54.8151 108.424C54.7138 108.323 54.5885 108.245 54.4391 108.192C54.2898 108.139 54.0845 108.083 53.8231 108.024C53.4978 107.949 53.2365 107.875 53.0391 107.8C52.8471 107.725 52.6818 107.608 52.5431 107.448C52.4098 107.283 52.3431 107.061 52.3431 106.784C52.3431 106.416 52.4791 106.12 52.7511 105.896C53.0231 105.667 53.3938 105.552 53.8631 105.552ZM65.1085 105.608L63.8445 110H63.0605L61.8525 106.424L60.6365 110H59.8445L58.5965 105.608H59.3325L60.2685 109.304L61.4845 105.608H62.2445L63.4685 109.296L64.4125 105.608H65.1085ZM68.3394 105.536C68.8514 105.536 69.2648 105.701 69.5794 106.032C69.8941 106.357 70.0514 106.829 70.0514 107.448V110H69.3234V107.512C69.3234 107.075 69.2114 106.739 68.9874 106.504C68.7634 106.269 68.4594 106.152 68.0754 106.152C67.6754 106.152 67.3554 106.283 67.1154 106.544C66.8754 106.8 66.7554 107.176 66.7554 107.672V110H66.0274V104.08H66.7554V106.648C66.8674 106.291 67.0648 106.016 67.3474 105.824C67.6354 105.632 67.9661 105.536 68.3394 105.536ZM73.4001 105.552C73.8214 105.552 74.1974 105.643 74.5281 105.824C74.8641 106.005 75.1254 106.267 75.3121 106.608C75.5041 106.949 75.6001 107.349 75.6001 107.808C75.6001 108.267 75.5041 108.667 75.3121 109.008C75.1254 109.344 74.8641 109.603 74.5281 109.784C74.1974 109.965 73.8214 110.056 73.4001 110.056C72.9787 110.056 72.6001 109.965 72.2641 109.784C71.9334 109.603 71.6721 109.344 71.4801 109.008C71.2881 108.667 71.1921 108.267 71.1921 107.808C71.1921 107.349 71.2881 106.949 71.4801 106.608C71.6721 106.267 71.9334 106.005 72.2641 105.824C72.6001 105.643 72.9787 105.552 73.4001 105.552ZM73.4001 106.192C73.1387 106.192 72.8961 106.251 72.6721 106.368C72.4534 106.485 72.2747 106.667 72.1361 106.912C72.0027 107.152 71.9361 107.451 71.9361 107.808C71.9361 108.16 72.0027 108.459 72.1361 108.704C72.2747 108.944 72.4534 109.123 72.6721 109.24C72.8961 109.357 73.1387 109.416 73.4001 109.416C73.6614 109.416 73.9014 109.357 74.1201 109.24C74.3441 109.123 74.5227 108.944 74.6561 108.704C74.7947 108.459 74.8641 108.16 74.8641 107.808C74.8641 107.451 74.7947 107.152 74.6561 106.912C74.5227 106.667 74.3441 106.485 74.1201 106.368C73.9014 106.251 73.6614 106.192 73.4001 106.192ZM77.5167 104.08V110H76.7887V104.08H77.5167ZM82.9671 107.56C82.9671 107.715 82.9565 107.848 82.9351 107.96H79.4231C79.4391 108.461 79.5805 108.837 79.8471 109.088C80.1191 109.339 80.4498 109.464 80.8391 109.464C81.1911 109.464 81.4845 109.376 81.7191 109.2C81.9591 109.019 82.1058 108.779 82.1591 108.48H82.9351C82.8818 108.784 82.7618 109.056 82.5751 109.296C82.3938 109.536 82.1565 109.723 81.8631 109.856C81.5698 109.989 81.2391 110.056 80.8711 110.056C80.4498 110.056 80.0765 109.965 79.7511 109.784C79.4258 109.603 79.1698 109.344 78.9831 109.008C78.8018 108.667 78.7111 108.267 78.7111 107.808C78.7111 107.349 78.8018 106.949 78.9831 106.608C79.1698 106.267 79.4258 106.005 79.7511 105.824C80.0765 105.643 80.4498 105.552 80.8711 105.552C81.2978 105.552 81.6685 105.643 81.9831 105.824C82.3031 106.005 82.5458 106.248 82.7111 106.552C82.8818 106.856 82.9671 107.192 82.9671 107.56ZM82.2311 107.608C82.2471 107.283 82.1938 107.011 82.0711 106.792C81.9485 106.573 81.7805 106.411 81.5671 106.304C81.3538 106.197 81.1218 106.144 80.8711 106.144C80.4711 106.144 80.1351 106.269 79.8631 106.52C79.5911 106.765 79.4445 107.128 79.4231 107.608H82.2311ZM89.6799 108.696H87.1999L86.7279 110H85.9439L88.0319 104.464H88.8559L90.9359 110H90.1519L89.6799 108.696ZM89.4719 108.128L88.4399 105.28L87.4079 108.128H89.4719ZM93.7128 105.552C94.1394 105.552 94.4994 105.659 94.7928 105.872C95.0914 106.085 95.2994 106.371 95.4168 106.728V105.608H96.1448V110.072C96.1448 110.477 96.0594 110.837 95.8888 111.152C95.7181 111.467 95.4781 111.712 95.1688 111.888C94.8594 112.064 94.4994 112.152 94.0888 112.152C93.4968 112.152 93.0141 112.008 92.6408 111.72C92.2674 111.437 92.0301 111.053 91.9288 110.568H92.6488C92.7341 110.861 92.8941 111.091 93.1288 111.256C93.3688 111.427 93.6754 111.512 94.0488 111.512C94.4434 111.512 94.7688 111.384 95.0248 111.128C95.2861 110.877 95.4168 110.525 95.4168 110.072V108.88C95.2994 109.237 95.0914 109.523 94.7928 109.736C94.4994 109.949 94.1394 110.056 93.7128 110.056C93.3234 110.056 92.9768 109.965 92.6728 109.784C92.3688 109.603 92.1288 109.344 91.9528 109.008C91.7821 108.667 91.6968 108.267 91.6968 107.808C91.6968 107.349 91.7821 106.949 91.9528 106.608C92.1288 106.267 92.3688 106.005 92.6728 105.824C92.9768 105.643 93.3234 105.552 93.7128 105.552ZM93.9208 106.2C93.4728 106.2 93.1128 106.344 92.8408 106.632C92.5741 106.915 92.4408 107.307 92.4408 107.808C92.4408 108.309 92.5741 108.704 92.8408 108.992C93.1128 109.275 93.4728 109.416 93.9208 109.416C94.2088 109.416 94.4648 109.349 94.6888 109.216C94.9181 109.083 95.0968 108.896 95.2248 108.656C95.3528 108.411 95.4168 108.128 95.4168 107.808C95.4168 107.488 95.3528 107.205 95.2248 106.96C95.0968 106.715 94.9181 106.528 94.6888 106.4C94.4648 106.267 94.2088 106.2 93.9208 106.2ZM99.3434 105.552C99.77 105.552 100.13 105.659 100.423 105.872C100.722 106.085 100.93 106.371 101.047 106.728V105.608H101.775V110H101.047V108.88C100.93 109.237 100.722 109.523 100.423 109.736C100.13 109.949 99.77 110.056 99.3434 110.056C98.954 110.056 98.6074 109.965 98.3034 109.784C97.9994 109.603 97.7594 109.344 97.5834 109.008C97.4127 108.667 97.3274 108.267 97.3274 107.808C97.3274 107.349 97.4127 106.949 97.5834 106.608C97.7594 106.267 97.9994 106.005 98.3034 105.824C98.6074 105.643 98.954 105.552 99.3434 105.552ZM99.5514 106.2C99.1034 106.2 98.7434 106.344 98.4714 106.632C98.2047 106.915 98.0714 107.307 98.0714 107.808C98.0714 108.309 98.2047 108.704 98.4714 108.992C98.7434 109.275 99.1034 109.416 99.5514 109.416C99.8394 109.416 100.095 109.349 100.319 109.216C100.549 109.083 100.727 108.896 100.855 108.656C100.983 108.411 101.047 108.128 101.047 107.808C101.047 107.488 100.983 107.205 100.855 106.96C100.727 106.715 100.549 106.528 100.319 106.4C100.095 106.267 99.8394 106.2 99.5514 106.2ZM103.902 106.496C104.046 106.192 104.257 105.957 104.534 105.792C104.811 105.621 105.142 105.536 105.526 105.536V106.328H105.302C104.891 106.328 104.555 106.435 104.294 106.648C104.033 106.856 103.902 107.203 103.902 107.688V110H103.174V105.608H103.902V106.496ZM108.58 109.36V110H108.036C107.588 110 107.252 109.893 107.028 109.68C106.81 109.467 106.7 109.109 106.7 108.608V106.24H106.044V105.608H106.7V104.512H107.436V105.608H108.572V106.24H107.436V108.624C107.436 108.907 107.487 109.101 107.588 109.208C107.695 109.309 107.876 109.36 108.132 109.36H108.58ZM111.509 105.552C111.935 105.552 112.295 105.659 112.589 105.872C112.887 106.085 113.095 106.371 113.213 106.728V105.608H113.941V110H113.213V108.88C113.095 109.237 112.887 109.523 112.589 109.736C112.295 109.949 111.935 110.056 111.509 110.056C111.119 110.056 110.773 109.965 110.469 109.784C110.165 109.603 109.925 109.344 109.749 109.008C109.578 108.667 109.493 108.267 109.493 107.808C109.493 107.349 109.578 106.949 109.749 106.608C109.925 106.267 110.165 106.005 110.469 105.824C110.773 105.643 111.119 105.552 111.509 105.552ZM111.717 106.2C111.269 106.2 110.909 106.344 110.637 106.632C110.37 106.915 110.237 107.307 110.237 107.808C110.237 108.309 110.37 108.704 110.637 108.992C110.909 109.275 111.269 109.416 111.717 109.416C112.005 109.416 112.261 109.349 112.485 109.216C112.714 109.083 112.893 108.896 113.021 108.656C113.149 108.411 113.213 108.128 113.213 107.808C113.213 107.488 113.149 107.205 113.021 106.96C112.893 106.715 112.714 106.528 112.485 106.4C112.261 106.267 112.005 106.2 111.717 106.2ZM116.067 104.08V110H115.339V104.08H116.067ZM119.278 105.552C119.704 105.552 120.064 105.659 120.358 105.872C120.656 106.085 120.864 106.371 120.982 106.728V105.608H121.71V110H120.982V108.88C120.864 109.237 120.656 109.523 120.358 109.736C120.064 109.949 119.704 110.056 119.278 110.056C118.888 110.056 118.542 109.965 118.238 109.784C117.934 109.603 117.694 109.344 117.518 109.008C117.347 108.667 117.262 108.267 117.262 107.808C117.262 107.349 117.347 106.949 117.518 106.608C117.694 106.267 117.934 106.005 118.238 105.824C118.542 105.643 118.888 105.552 119.278 105.552ZM119.486 106.2C119.038 106.2 118.678 106.344 118.406 106.632C118.139 106.915 118.006 107.307 118.006 107.808C118.006 108.309 118.139 108.704 118.406 108.992C118.678 109.275 119.038 109.416 119.486 109.416C119.774 109.416 120.03 109.349 120.254 109.216C120.483 109.083 120.662 108.896 120.79 108.656C120.918 108.411 120.982 108.128 120.982 107.808C120.982 107.488 120.918 107.205 120.79 106.96C120.662 106.715 120.483 106.528 120.254 106.4C120.03 106.267 119.774 106.2 119.486 106.2Z" fill="#0050E6" fill-opacity="0.57"/>
<g clip-path="url(#clip0)">
<path d="M200.563 110.463L169 105.104L188.408 32.6713L219.972 38.0308L200.563 110.463Z" fill="url(#paint0_linear)"/>
<path d="M200.563 110.463L230.578 121.603L249.986 49.1711L219.972 38.0308L200.563 110.463Z" fill="url(#paint1_linear)"/>
<path d="M261.537 126.801L230.578 121.603L249.986 49.1711L280.946 54.3687L261.537 126.801Z" fill="url(#paint2_linear)"/>
<path d="M201.211 108.482L170.55 103.243L189.198 33.6471L219.859 38.886L201.211 108.482Z" fill="#F5F5F5"/>
<path d="M201.211 108.482L230.384 119.275L249.032 49.6795L219.859 38.886L201.211 108.482Z" fill="white"/>
<path d="M261.045 124.514L230.384 119.275L249.032 49.6795L279.693 54.9185L261.045 124.514Z" fill="#F5F5F5"/>
<path opacity="0.3" d="M218.147 45.2775L195.209 39.9854L194.378 43.0895L193.239 47.3371L192.408 50.4411L211.698 55.6101L212.711 51.8296L216.177 52.6292L220.976 55.6446L222.946 48.2929L218.147 45.2775Z" fill="#0050E6"/>
<path opacity="0.3" d="M202.481 103.744L176.321 99.361L178.816 90.0489L204.976 94.4318L202.481 103.744Z" fill="#0050E6"/>
<path opacity="0.3" d="M207.413 74.1713L181.253 69.7884L183.748 60.4763L209.908 64.8592L207.413 74.1713Z" fill="#0050E6"/>
<path opacity="0.3" d="M230.564 103.564L219.447 100.586L217.171 109.081L228.287 112.06L230.564 103.564Z" fill="#0050E6"/>
<path opacity="0.3" d="M232.288 82.6552L221.171 79.6765L218.895 88.1717L230.012 91.1505L232.288 82.6552Z" fill="#0050E6"/>
<path opacity="0.3" d="M243.951 57.3224L232.835 54.3436L230.559 62.8389L241.675 65.8176L243.951 57.3224Z" fill="#0050E6"/>
<path opacity="0.3" d="M258.765 116.024L241.042 112.851L244.062 101.578L261.785 104.751L258.765 116.024Z" fill="#0050E6"/>
<path opacity="0.3" d="M267.327 75.7969L249.604 72.624L252.625 61.3515L270.348 64.5244L267.327 75.7969Z" fill="#0050E6"/>
<path d="M271.447 54.454C270.364 58.4955 260.228 68.0464 260.228 68.0464C260.228 68.0464 256.225 54.7069 257.308 50.6654C258.391 46.6238 262.434 44.1956 266.339 45.2418C270.243 46.2879 272.53 50.4124 271.447 54.454Z" fill="url(#paint3_linear)"/>
<path d="M263.922 54.2615C265.102 54.5778 266.324 53.8437 266.652 52.6218C266.979 51.3999 266.288 50.153 265.107 49.8367C263.927 49.5204 262.705 50.2545 262.377 51.4764C262.05 52.6983 262.741 53.9452 263.922 54.2615Z" fill="url(#paint4_linear)"/>
<path d="M270.916 54.3257C269.949 57.9362 260.667 66.4078 260.667 66.4078C260.667 66.4078 256.865 54.4304 257.832 50.8199C258.297 49.0861 259.432 47.6079 260.987 46.7106C262.542 45.8134 264.391 45.5705 266.126 46.0354C267.861 46.5003 269.34 47.6349 270.239 49.1896C271.137 50.7443 271.381 52.5918 270.916 54.3257Z" fill="#0050E6"/>
<path d="M263.967 54.0931C265.059 54.3858 266.182 53.7382 266.474 52.6466C266.767 51.5551 266.118 50.4329 265.026 50.1402C263.934 49.8476 262.811 50.4952 262.519 51.5867C262.226 52.6783 262.875 53.8004 263.967 54.0931Z" fill="white"/>
<path d="M199.552 84.2752C198.461 88.3454 188.093 97.9209 188.093 97.9209C188.093 97.9209 183.902 84.4443 184.993 80.3742C186.083 76.304 190.227 73.8778 194.247 74.9551C198.267 76.0323 200.642 80.2051 199.552 84.2752Z" fill="url(#paint5_linear)"/>
<path d="M191.813 84.0385C193.028 84.3642 194.281 83.6307 194.611 82.4002C194.94 81.1697 194.222 79.9081 193.007 79.5825C191.792 79.2568 190.539 79.9903 190.209 81.2208C189.879 82.4513 190.598 83.7129 191.813 84.0385Z" fill="url(#paint6_linear)"/>
<path d="M198.825 84.0368C197.858 87.6473 188.576 96.1189 188.576 96.1189C188.576 96.1189 184.774 84.1415 185.741 80.531C185.971 79.6722 186.368 78.8671 186.909 78.1617C187.45 77.4563 188.125 76.8644 188.895 76.4198C189.666 75.9753 190.516 75.6868 191.398 75.5708C192.28 75.4548 193.176 75.5136 194.036 75.7439C194.895 75.9741 195.7 76.3713 196.406 76.9127C197.112 77.4541 197.704 78.1292 198.149 78.8993C198.594 79.6694 198.882 80.5195 198.998 81.401C199.114 82.2825 199.055 83.1782 198.825 84.0368L198.825 84.0368Z" fill="#0050E6"/>
<path d="M191.876 83.8042C192.968 84.0969 194.091 83.4493 194.383 82.3578C194.676 81.2662 194.027 80.1441 192.935 79.8514C191.843 79.5587 190.72 80.2063 190.428 81.2979C190.135 82.3894 190.783 83.5116 191.876 83.8042Z" fill="white"/>
<path d="M234.147 94.0551C233.18 97.6656 223.898 106.137 223.898 106.137C223.898 106.137 220.096 94.1598 221.064 90.5493C221.293 89.6905 221.69 88.8854 222.231 88.18C222.773 87.4746 223.448 86.8827 224.218 86.4381C224.988 85.9936 225.839 85.7051 226.72 85.5891C227.602 85.4731 228.499 85.5319 229.358 85.7622C230.217 85.9924 231.023 86.3896 231.729 86.931C232.434 87.4724 233.027 88.1475 233.471 88.9176C233.916 89.6877 234.205 90.5378 234.321 91.4193C234.437 92.3008 234.378 93.1964 234.147 94.0551Z" fill="#0050E6"/>
<path d="M227.198 93.8225C228.29 94.1152 229.413 93.4676 229.706 92.376C229.998 91.2845 229.35 90.1623 228.257 89.8696C227.165 89.577 226.042 90.2246 225.75 91.3161C225.458 92.4077 226.106 93.5298 227.198 93.8225Z" fill="white"/>
<path d="M260.894 96.7925C259.927 100.403 250.645 108.875 250.645 108.875C250.645 108.875 246.843 96.8973 247.81 93.2868C248.275 91.5529 249.41 90.0748 250.965 89.1775C252.52 88.2802 254.369 88.0373 256.104 88.5022C257.839 88.9671 259.318 90.1017 260.217 91.6565C261.115 93.2112 261.359 95.0587 260.894 96.7925Z" fill="#0050E6"/>
<path d="M253.945 96.56C255.037 96.8527 256.16 96.205 256.452 95.1135C256.745 94.0219 256.096 92.8998 255.004 92.6071C253.912 92.3144 252.789 92.9621 252.497 94.0536C252.204 95.1452 252.853 96.2673 253.945 96.56Z" fill="white"/>
<path d="M215.117 36.4689C214.149 40.0795 204.868 48.5511 204.868 48.5511C204.868 48.5511 201.065 36.5737 202.033 32.9632C202.263 32.1043 202.659 31.2992 203.201 30.5938C203.742 29.8884 204.417 29.2965 205.187 28.852C205.957 28.4074 206.808 28.1189 207.69 28.0029C208.572 27.887 209.468 27.9458 210.327 28.176C211.186 28.4063 211.992 28.8034 212.698 29.3449C213.404 29.8863 213.996 30.5613 214.441 31.3314C214.885 32.1015 215.174 32.9516 215.29 33.8331C215.406 34.7146 215.347 35.6103 215.117 36.4689L215.117 36.4689Z" fill="#0050E6"/>
<path d="M208.167 36.2364C209.26 36.529 210.382 35.8814 210.675 34.7899C210.967 33.6983 210.319 32.5762 209.227 32.2835C208.134 31.9908 207.012 32.6384 206.719 33.73C206.427 34.8215 207.075 35.9437 208.167 36.2364Z" fill="white"/>
</g>
<defs>
<linearGradient id="paint0_linear" x1="184.394" y1="109.229" x2="204.577" y2="33.9058" gradientUnits="userSpaceOnUse">
<stop stop-color="#808080" stop-opacity="0.25"/>
<stop offset="0.53514" stop-color="#808080" stop-opacity="0.12"/>
<stop offset="1" stop-color="#808080" stop-opacity="0.1"/>
</linearGradient>
<linearGradient id="paint1_linear" x1="-2065.26" y1="63582.3" x2="12649.2" y2="8667.1" gradientUnits="userSpaceOnUse">
<stop stop-color="#808080" stop-opacity="0.25"/>
<stop offset="0.53514" stop-color="#808080" stop-opacity="0.12"/>
<stop offset="1" stop-color="#808080" stop-opacity="0.1"/>
</linearGradient>
<linearGradient id="paint2_linear" x1="6597.02" y1="65903.4" x2="21311.5" y2="10988.2" gradientUnits="userSpaceOnUse">
<stop stop-color="#808080" stop-opacity="0.25"/>
<stop offset="0.53514" stop-color="#808080" stop-opacity="0.12"/>
<stop offset="1" stop-color="#808080" stop-opacity="0.1"/>
</linearGradient>
<linearGradient id="paint3_linear" x1="260.228" y1="68.0464" x2="266.339" y2="45.2418" gradientUnits="userSpaceOnUse">
<stop stop-color="#B3B3B3" stop-opacity="0.25"/>
<stop offset="0.53514" stop-color="#B3B3B3" stop-opacity="0.1"/>
<stop offset="1" stop-color="#B3B3B3" stop-opacity="0.05"/>
</linearGradient>
<linearGradient id="paint4_linear" x1="263.922" y1="54.2615" x2="265.107" y2="49.8367" gradientUnits="userSpaceOnUse">
<stop stop-opacity="0.12"/>
<stop offset="0.55135" stop-opacity="0.09"/>
<stop offset="1" stop-opacity="0.02"/>
</linearGradient>
<linearGradient id="paint5_linear" x1="186.076" y1="18196.1" x2="1553.98" y2="13091" gradientUnits="userSpaceOnUse">
<stop stop-color="#B3B3B3" stop-opacity="0.25"/>
<stop offset="0.53514" stop-color="#B3B3B3" stop-opacity="0.1"/>
<stop offset="1" stop-color="#B3B3B3" stop-opacity="0.05"/>
</linearGradient>
<linearGradient id="paint6_linear" x1="191.813" y1="84.0385" x2="193.007" y2="79.5825" gradientUnits="userSpaceOnUse">
<stop offset="0.00541" stop-opacity="0.12"/>
<stop offset="0.55135" stop-opacity="0.09"/>
<stop offset="1" stop-opacity="0.05"/>
</linearGradient>
<clipPath id="clip0">
<rect width="95" height="85" fill="white" transform="translate(191 23) rotate(15)"/>
</clipPath>
</defs>
</svg>
