<svg width="300" height="150" viewBox="0 0 300 150" fill="none" xmlns="http://www.w3.org/2000/svg">
<rect width="300" height="150" fill="white"/>
<rect x="-0.686861" y="0.167992" width="28" height="28" transform="matrix(-0.854854 -0.518869 -0.518869 0.854854 205.232 51.2962)" stroke="#FFB800" stroke-opacity="0.12"/>
<path d="M202.273 110.139L194.924 105.896L190.682 113.245L183.333 109.002L179.091 116.351L171.742 112.108L167.5 119.457L160.151 115.214" stroke="#FFB800" stroke-opacity="0.12" stroke-width="0.5"/>
<path d="M70.3082 117.009L64.6856 109.291L55.9573 113.164L50.3347 105.446L41.6064 109.319L35.9838 101.601L27.2555 105.474L21.6329 97.7553" stroke="#FFB800" stroke-opacity="0.12" stroke-width="0.5"/>
<path d="M68.2281 122.254L62.6056 114.536L53.8773 118.409L48.2547 110.691L39.5264 114.564L33.9038 106.845L25.1755 110.718L19.5529 103" stroke="#FFB800" stroke-opacity="0.12" stroke-width="0.5"/>
<path d="M66.1481 127.499L60.5256 119.781L51.7972 123.654L46.1747 115.935L37.4463 119.808L31.8238 112.09L23.0954 115.963L17.4729 108.245" stroke="#FFB800" stroke-opacity="0.12" stroke-width="0.5"/>
<path d="M203.567 114.969L196.219 110.726L191.976 118.075L184.627 113.832L180.385 121.18L173.036 116.938L168.794 124.286L161.445 120.044" stroke="#FFB800" stroke-opacity="0.12" stroke-width="0.5"/>
<path d="M231.263 57.1938L240.696 58.6757L244.129 49.7652L253.563 51.2471L256.996 42.3366L266.429 43.8185L269.863 34.9081L279.296 36.3899" stroke="#FFB800" stroke-opacity="0.12" stroke-width="0.5"/>
<path d="M235 62L244.433 63.4819L247.867 54.5714L257.3 56.0533L260.733 47.1429L270.167 48.6247L273.6 39.7143L283.033 41.1962" stroke="#FFB800" stroke-opacity="0.12" stroke-width="0.5"/>
<path d="M204.861 119.798L197.513 115.556L193.27 122.904L185.922 118.662L181.679 126.01L174.33 121.767L170.088 129.116L162.739 124.873" stroke="#FFB800" stroke-opacity="0.12" stroke-width="0.5"/>
<path d="M228.763 52.8637L238.196 54.3455L241.629 45.4351L251.063 46.917L254.496 38.0065L263.929 39.4884L267.363 30.578L276.796 32.0598" stroke="#FFB800" stroke-opacity="0.12" stroke-width="0.5"/>
<circle cx="115.5" cy="102.5" r="17" stroke="#FFB800" stroke-opacity="0.12"/>
<circle r="6" transform="matrix(-1 0 0 1 150.5 104.5)" stroke="#FFB800" stroke-opacity="0.12"/>
<circle r="14" transform="matrix(-1 0 0 1 91.5 20.5)" stroke="#FFB800" stroke-opacity="0.12"/>
<circle cx="173.5" cy="52.5" r="32" stroke="#FFB800" stroke-opacity="0.12"/>
<rect x="44.183" y="18.683" width="57" height="57" transform="rotate(30 44.183 18.683)" stroke="#FFB800" stroke-opacity="0.12"/>
<rect x="-0.5" y="0.5" width="18.3064" height="18.3064" transform="matrix(-1 -8.74228e-08 -8.74228e-08 1 131.306 32)" stroke="#FFB800" stroke-opacity="0.12"/>
<rect x="-0.5" y="0.5" width="8" height="8" transform="matrix(-1 -8.74228e-08 -8.74228e-08 1 139 77)" stroke="#FFB800" stroke-opacity="0.12"/>
<rect x="-0.683013" y="0.183013" width="34.916" height="34.916" transform="matrix(-0.866025 -0.5 -0.5 0.866025 286.224 109.672)" stroke="#FFB800" stroke-opacity="0.12"/>
<path d="M34.454 48.554C35.402 48.554 36.212 48.716 36.884 49.04C37.556 49.364 38.06 49.802 38.396 50.354C38.744 50.906 38.918 51.53 38.918 52.226C38.918 53.066 38.72 53.726 38.324 54.206C37.928 54.674 37.484 54.992 36.992 55.16V55.232C38.432 55.772 39.152 56.774 39.152 58.238C39.152 59.006 38.972 59.684 38.612 60.272C38.252 60.86 37.736 61.316 37.064 61.64C36.404 61.964 35.618 62.126 34.706 62.126C33.146 62.126 31.922 61.754 31.034 61.01C30.146 60.266 29.69 59.102 29.666 57.518H33.554C33.53 57.95 33.59 58.28 33.734 58.508C33.89 58.724 34.154 58.832 34.526 58.832C34.742 58.832 34.922 58.754 35.066 58.598C35.21 58.43 35.282 58.214 35.282 57.95C35.282 57.614 35.168 57.362 34.94 57.194C34.724 57.014 34.352 56.924 33.824 56.924H33.158V53.702H33.806C34.622 53.75 35.03 53.426 35.03 52.73C35.03 52.43 34.964 52.208 34.832 52.064C34.712 51.92 34.556 51.848 34.364 51.848C33.92 51.848 33.698 52.22 33.698 52.964H29.81C29.846 51.536 30.26 50.444 31.052 49.688C31.856 48.932 32.99 48.554 34.454 48.554ZM53.8788 58.238C53.8788 58.97 53.6868 59.63 53.3028 60.218C52.9308 60.806 52.3848 61.274 51.6648 61.622C50.9448 61.958 50.0868 62.126 49.0908 62.126C47.5668 62.126 46.3068 61.772 45.3108 61.064C44.3268 60.344 43.7928 59.294 43.7088 57.914H47.9568C48.0168 58.646 48.3408 59.012 48.9288 59.012C49.1328 59.012 49.2948 58.958 49.4148 58.85C49.5468 58.742 49.6128 58.586 49.6128 58.382C49.6128 58.082 49.4568 57.848 49.1448 57.68C48.8448 57.5 48.3528 57.296 47.6688 57.068C46.8648 56.804 46.1928 56.534 45.6528 56.258C45.1248 55.982 44.6628 55.574 44.2668 55.034C43.8708 54.494 43.6728 53.792 43.6728 52.928C43.6728 52.1 43.8828 51.398 44.3028 50.822C44.7348 50.234 45.3168 49.79 46.0488 49.49C46.7928 49.19 47.6268 49.04 48.5508 49.04C50.0748 49.04 51.2868 49.394 52.1868 50.102C53.0868 50.81 53.5788 51.83 53.6628 53.162H49.3608C49.3008 52.49 49.0248 52.154 48.5328 52.154C48.3648 52.154 48.2268 52.208 48.1188 52.316C48.0108 52.412 47.9568 52.562 47.9568 52.766C47.9568 53.042 48.1068 53.27 48.4068 53.45C48.7188 53.618 49.1988 53.816 49.8468 54.044C50.6628 54.332 51.3348 54.62 51.8628 54.908C52.4028 55.184 52.8708 55.598 53.2668 56.15C53.6748 56.69 53.8788 57.386 53.8788 58.238ZM65.2908 49.256V52.424H61.9068V62H57.9108V52.424H54.5628V49.256H65.2908ZM70.3706 52.424V54.008H74.3306V57.014H70.3706V58.814H74.8706V62H66.3746V49.256H74.8706V52.424H70.3706ZM80.3726 57.95V62H76.3766V49.256H81.9566C83.5166 49.256 84.7106 49.652 85.5386 50.444C86.3786 51.236 86.7986 52.298 86.7986 53.63C86.7986 54.434 86.6126 55.166 86.2406 55.826C85.8686 56.474 85.3166 56.99 84.5846 57.374C83.8646 57.758 82.9886 57.95 81.9566 57.95H80.3726ZM81.5066 54.8C82.3346 54.8 82.7486 54.41 82.7486 53.63C82.7486 52.85 82.3346 52.46 81.5066 52.46H80.3726V54.8H81.5066ZM99.5126 64.07L98.2886 62.054C98.0126 62.102 97.6946 62.126 97.3346 62.126C96.1346 62.126 95.0306 61.844 94.0226 61.28C93.0266 60.716 92.2346 59.936 91.6466 58.94C91.0586 57.944 90.7646 56.822 90.7646 55.574C90.7646 54.326 91.0586 53.204 91.6466 52.208C92.2346 51.212 93.0266 50.438 94.0226 49.886C95.0306 49.322 96.1346 49.04 97.3346 49.04C98.5346 49.04 99.6326 49.322 100.629 49.886C101.625 50.438 102.411 51.212 102.987 52.208C103.575 53.204 103.869 54.326 103.869 55.574C103.869 56.594 103.671 57.536 103.275 58.4C102.879 59.252 102.333 59.978 101.637 60.578L104.229 64.07H99.5126ZM94.8326 55.574C94.8326 56.438 95.0486 57.128 95.4806 57.644C95.9126 58.148 96.5306 58.4 97.3346 58.4C98.1266 58.4 98.7386 58.148 99.1706 57.644C99.6026 57.128 99.8186 56.438 99.8186 55.574C99.8186 54.698 99.6026 54.008 99.1706 53.504C98.7386 52.988 98.1266 52.73 97.3346 52.73C96.5306 52.73 95.9126 52.988 95.4806 53.504C95.0486 54.008 94.8326 54.698 94.8326 55.574ZM109.216 49.256V56.438C109.216 57.026 109.342 57.494 109.594 57.842C109.858 58.178 110.278 58.346 110.854 58.346C111.43 58.346 111.856 58.178 112.132 57.842C112.408 57.494 112.546 57.026 112.546 56.438V49.256H116.524V56.438C116.524 57.65 116.272 58.688 115.768 59.552C115.264 60.404 114.574 61.046 113.698 61.478C112.822 61.91 111.844 62.126 110.764 62.126C109.684 62.126 108.724 61.91 107.884 61.478C107.056 61.046 106.408 60.404 105.94 59.552C105.472 58.7 105.238 57.662 105.238 56.438V49.256H109.216ZM126.42 60.074H122.172L121.542 62H117.348L122.01 49.256H126.618L131.262 62H127.05L126.42 60.074ZM125.448 57.068L124.296 53.522L123.144 57.068H125.448ZM136.166 58.976H140.018V62H132.17V49.256H136.166V58.976ZM145.271 49.256V62H141.275V49.256H145.271ZM157.084 49.256V52.424H153.7V62H149.704V52.424H146.356V49.256H157.084ZM170.408 49.256L165.836 58.13V62H161.84V58.13L157.268 49.256H161.84L163.874 53.774L165.908 49.256H170.408ZM38.072 76.074H33.824L33.194 78H29L33.662 65.256H38.27L42.914 78H38.702L38.072 76.074ZM37.1 73.068L35.948 69.522L34.796 73.068H37.1ZM53.6679 74.238C53.6679 74.97 53.4759 75.63 53.0919 76.218C52.7199 76.806 52.1739 77.274 51.4539 77.622C50.7339 77.958 49.8759 78.126 48.8799 78.126C47.3559 78.126 46.0959 77.772 45.0999 77.064C44.1159 76.344 43.5819 75.294 43.4979 73.914H47.7459C47.8059 74.646 48.1299 75.012 48.7179 75.012C48.9219 75.012 49.0839 74.958 49.2039 74.85C49.3359 74.742 49.4019 74.586 49.4019 74.382C49.4019 74.082 49.2459 73.848 48.9339 73.68C48.6339 73.5 48.1419 73.296 47.4579 73.068C46.6539 72.804 45.9819 72.534 45.4419 72.258C44.9139 71.982 44.4519 71.574 44.0559 71.034C43.6599 70.494 43.4619 69.792 43.4619 68.928C43.4619 68.1 43.6719 67.398 44.0919 66.822C44.5239 66.234 45.1059 65.79 45.8379 65.49C46.5819 65.19 47.4159 65.04 48.3399 65.04C49.8639 65.04 51.0759 65.394 51.9759 66.102C52.8759 66.81 53.3679 67.83 53.4519 69.162H49.1499C49.0899 68.49 48.8139 68.154 48.3219 68.154C48.1539 68.154 48.0159 68.208 47.9079 68.316C47.7999 68.412 47.7459 68.562 47.7459 68.766C47.7459 69.042 47.8959 69.27 48.1959 69.45C48.5079 69.618 48.9879 69.816 49.6359 70.044C50.4519 70.332 51.1239 70.62 51.6519 70.908C52.1919 71.184 52.6599 71.598 53.0559 72.15C53.4639 72.69 53.6679 73.386 53.6679 74.238ZM64.9179 74.238C64.9179 74.97 64.7259 75.63 64.3419 76.218C63.9699 76.806 63.4239 77.274 62.7039 77.622C61.9839 77.958 61.1259 78.126 60.1299 78.126C58.6059 78.126 57.3459 77.772 56.3499 77.064C55.3659 76.344 54.8319 75.294 54.7479 73.914H58.9959C59.0559 74.646 59.3799 75.012 59.9679 75.012C60.1719 75.012 60.3339 74.958 60.4539 74.85C60.5859 74.742 60.6519 74.586 60.6519 74.382C60.6519 74.082 60.4959 73.848 60.1839 73.68C59.8839 73.5 59.3919 73.296 58.7079 73.068C57.9039 72.804 57.2319 72.534 56.6919 72.258C56.1639 71.982 55.7019 71.574 55.3059 71.034C54.9099 70.494 54.7119 69.792 54.7119 68.928C54.7119 68.1 54.9219 67.398 55.3419 66.822C55.7739 66.234 56.3559 65.79 57.0879 65.49C57.8319 65.19 58.6659 65.04 59.5899 65.04C61.1139 65.04 62.3259 65.394 63.2259 66.102C64.1259 66.81 64.6179 67.83 64.7019 69.162H60.3999C60.3399 68.49 60.0639 68.154 59.5719 68.154C59.4039 68.154 59.2659 68.208 59.1579 68.316C59.0499 68.412 58.9959 68.562 58.9959 68.766C58.9959 69.042 59.1459 69.27 59.4459 69.45C59.7579 69.618 60.2379 69.816 60.8859 70.044C61.7019 70.332 62.3739 70.62 62.9019 70.908C63.4419 71.184 63.9099 71.598 64.3059 72.15C64.7139 72.69 64.9179 73.386 64.9179 74.238ZM70.2279 65.256V72.438C70.2279 73.026 70.3539 73.494 70.6059 73.842C70.8699 74.178 71.2899 74.346 71.8659 74.346C72.4419 74.346 72.8679 74.178 73.1439 73.842C73.4199 73.494 73.5579 73.026 73.5579 72.438V65.256H77.5359V72.438C77.5359 73.65 77.2839 74.688 76.7799 75.552C76.2759 76.404 75.5859 77.046 74.7099 77.478C73.8339 77.91 72.8559 78.126 71.7759 78.126C70.6959 78.126 69.7359 77.91 68.8959 77.478C68.0679 77.046 67.4199 76.404 66.9519 75.552C66.4839 74.7 66.2499 73.662 66.2499 72.438V65.256H70.2279ZM85.6674 78L83.2554 73.428V78H79.2594V65.256H85.1994C86.2314 65.256 87.1134 65.442 87.8454 65.814C88.5774 66.174 89.1234 66.672 89.4834 67.308C89.8554 67.932 90.0414 68.64 90.0414 69.432C90.0414 70.284 89.8014 71.04 89.3214 71.7C88.8534 72.36 88.1754 72.834 87.2874 73.122L90.0594 78H85.6674ZM83.2554 70.764H84.8394C85.2234 70.764 85.5114 70.68 85.7034 70.512C85.8954 70.332 85.9914 70.056 85.9914 69.684C85.9914 69.348 85.8894 69.084 85.6854 68.892C85.4934 68.7 85.2114 68.604 84.8394 68.604H83.2554V70.764ZM99.49 76.074H95.242L94.612 78H90.418L95.08 65.256H99.688L104.332 78H100.12L99.49 76.074ZM98.518 73.068L97.366 69.522L96.214 73.068H98.518ZM117.462 78H113.466L109.236 71.592V78H105.24V65.256H109.236L113.466 71.772V65.256H117.462V78ZM125.207 65.13C126.311 65.13 127.295 65.34 128.159 65.76C129.035 66.168 129.743 66.75 130.283 67.506C130.835 68.262 131.201 69.144 131.381 70.152H127.169C126.977 69.732 126.701 69.408 126.341 69.18C125.993 68.94 125.591 68.82 125.135 68.82C124.463 68.82 123.929 69.072 123.533 69.576C123.149 70.08 122.957 70.758 122.957 71.61C122.957 72.462 123.149 73.14 123.533 73.644C123.929 74.148 124.463 74.4 125.135 74.4C125.591 74.4 125.993 74.286 126.341 74.058C126.701 73.818 126.977 73.488 127.169 73.068H131.381C131.201 74.076 130.835 74.958 130.283 75.714C129.743 76.47 129.035 77.058 128.159 77.478C127.295 77.886 126.311 78.09 125.207 78.09C123.923 78.09 122.807 77.82 121.859 77.28C120.911 76.728 120.179 75.96 119.663 74.976C119.159 73.992 118.907 72.87 118.907 71.61C118.907 70.35 119.159 69.228 119.663 68.244C120.179 67.26 120.911 66.498 121.859 65.958C122.807 65.406 123.923 65.13 125.207 65.13ZM136.816 68.424V70.008H140.776V73.014H136.816V74.814H141.316V78H132.82V65.256H141.316V68.424H136.816Z" fill="#FFB800"/>
<g clip-path="url(#clip0)">
<path d="M219.916 76.2037C219.916 76.2037 228.443 76.6121 228.957 79.5731C229.471 82.5341 218.991 79.8794 218.991 79.8794L219.916 76.2037Z" fill="#A0616A"/>
<path d="M206.458 66.8102C206.458 66.8102 207.896 67.2187 209.026 69.6691C210.156 72.1196 212.416 74.3659 212.416 74.3659L221.56 76.1016L220.019 80.6962L211.286 79.5731L205.841 76.51L206.458 66.8102Z" fill="#434343"/>
<path opacity="0.1" d="M206.616 67C206.616 67 208.055 67.4084 209.185 69.8589C210.315 72.3094 212.575 74.5556 212.575 74.5556L221.719 76.2914L220.178 80.886L211.445 79.7629L206 76.6998L206.616 67Z" fill="#434343"/>
<path d="M259.5 57H224.5C223.672 57 223 57.6716 223 58.5C223 59.3284 223.672 60 224.5 60H259.5C260.328 60 261 59.3284 261 58.5C261 57.6716 260.328 57 259.5 57Z" fill="#434343"/>
<path d="M265.172 83.0957H184.112V113.829H265.172V83.0957Z" fill="#E2A300"/>
<path d="M192.896 62.1135L193.821 67.9334L200.191 68.2397L199.471 59.663L192.896 62.1135Z" fill="#A0616A"/>
<path d="M186.167 100.964L185.859 113.829H195.516L196.954 108.724L198.084 113.829H208.153C208.153 113.829 208.358 99.1258 207.228 99.0237C206.098 98.9216 186.167 100.964 186.167 100.964Z" fill="#292929"/>
<path d="M194.951 63.6451C198.015 63.6451 200.499 61.1766 200.499 58.1315C200.499 55.0865 198.015 52.618 194.951 52.618C191.887 52.618 189.403 55.0865 189.403 58.1315C189.403 61.1766 191.887 63.6451 194.951 63.6451Z" fill="#A0616A"/>
<path d="M185.602 101.525L188.479 87.4351L184.677 68.7502L193.432 65.4854L197.725 64.9724L199.883 64.572L201.423 64.9724C201.423 64.9724 207.588 66.504 207.896 67.6271C208.204 68.7502 206.663 77.9395 206.663 77.9395L205.225 85.4951L208.41 99.0748C208.41 99.0748 195.156 103.567 185.807 101.525H185.602Z" fill="#434343"/>
<path opacity="0.1" d="M189.455 73.9064V77.6842L201.577 77.7006L190.071 76.4589L189.455 73.9064Z" fill="black"/>
<path opacity="0.1" d="M188.413 84.3399L203.632 82.1768L188.413 86.4606V84.3399Z" fill="black"/>
<path opacity="0.1" d="M212.57 74.4169L210.939 80.2597L213.7 74.6096L212.57 74.4169Z" fill="black"/>
<path d="M199.517 52.602L200.537 52.1961C200.537 52.1961 198.404 49.8621 195.436 50.0651L196.271 49.1518C196.271 49.1518 194.23 48.34 192.375 50.471C191.4 51.5912 190.272 52.9079 189.569 54.3912H188.476L188.932 55.3891L187.336 56.3869L188.974 56.2077C188.877 56.7541 188.862 57.312 188.93 57.8628C189 58.4138 189.283 58.9161 189.719 59.2637V59.2637C189.719 59.2637 190.984 56.661 190.984 56.2551V57.2698C190.984 57.2698 192.004 56.3566 192.004 55.7477L192.561 56.4581L192.839 55.3418L196.271 56.4581L195.714 55.5448L197.847 55.8492L197.013 54.733C197.013 54.733 199.424 56.0521 199.517 57.1684C199.609 58.2846 200.315 59.3423 200.315 59.3423C200.315 59.3423 202.206 54.1241 199.517 52.602Z" fill="#2F2E41"/>
<path d="M244.419 72.9875H204.968V113.931H244.419V72.9875Z" fill="#FFB800"/>
<path d="M238.255 81.9725H209.077V86.0567H238.255V81.9725Z" fill="#E2A300"/>
<path d="M233.202 92.7954H214.093V94.8375H233.202V92.7954Z" fill="#E2A300"/>
<path d="M233.239 96.369H214.13V98.4111H233.239V96.369Z" fill="#E2A300"/>
<path d="M223.721 99.9426H214.167V101.985H223.721V99.9426Z" fill="#E2A300"/>
<path d="M202.143 78.1437C202.143 78.1437 211.081 76.8163 212.416 78.7563C213.752 80.6962 202.964 81.7173 202.964 81.7173L202.143 78.1437Z" fill="#A0616A"/>
<path d="M185.705 68.6481H185.061C184.796 68.6474 184.541 68.7461 184.346 68.9245C183.735 69.4884 182.443 70.9436 181.903 73.549C181.184 77.0205 179.951 83.7593 182.725 84.2699C185.499 84.7804 203.684 82.3299 203.684 82.3299L202.348 77.6332L189.198 77.7353C189.198 77.7353 189.403 75.489 188.992 74.0596C188.581 72.6301 185.705 68.6481 185.705 68.6481Z" fill="#434343"/>
<path d="M223.05 62.7772C225.376 62.7772 227.262 60.903 227.262 58.591C227.262 56.279 225.376 54.4048 223.05 54.4048C220.723 54.4048 218.837 56.279 218.837 58.591C218.837 60.903 220.723 62.7772 223.05 62.7772Z" fill="#FFB800"/>
<path d="M242.261 62.7772C244.588 62.7772 246.474 60.903 246.474 58.591C246.474 56.279 244.588 54.4048 242.261 54.4048C239.935 54.4048 238.049 56.279 238.049 58.591C238.049 60.903 239.935 62.7772 242.261 62.7772Z" fill="#434343"/>
<path d="M261.212 62.3724C263.539 62.3724 265.424 60.4982 265.424 58.1862C265.424 55.8742 263.539 54 261.212 54C258.886 54 257 55.8742 257 58.1862C257 60.4982 258.886 62.3724 261.212 62.3724Z" fill="#434343"/>
<rect x="223" y="57" width="10" height="3" rx="1" fill="#FFB800"/>
</g>
<path d="M28.44 89.336C28.44 89.0587 28.536 88.824 28.728 88.632C28.92 88.44 29.152 88.344 29.424 88.344C29.7013 88.344 29.9333 88.44 30.12 88.632C30.312 88.824 30.408 89.0587 30.408 89.336C30.408 89.608 30.312 89.84 30.12 90.032C29.9333 90.2187 29.7013 90.312 29.424 90.312C29.152 90.312 28.92 90.2187 28.728 90.032C28.536 89.84 28.44 89.608 28.44 89.336ZM34.6123 91.432H36.6123V92H33.8843V86.36H34.6123V91.432ZM37.4651 86.32C37.4651 86.1867 37.5104 86.08 37.6011 86C37.6917 85.9147 37.8117 85.872 37.9611 85.872C38.1104 85.872 38.2304 85.9147 38.3211 86C38.4117 86.08 38.4571 86.1867 38.4571 86.32C38.4571 86.4533 38.4117 86.5627 38.3211 86.648C38.2304 86.728 38.1104 86.768 37.9611 86.768C37.8117 86.768 37.6917 86.728 37.6011 86.648C37.5104 86.5627 37.4651 86.4533 37.4651 86.32ZM38.3211 87.608V92H37.5931V87.608H38.3211ZM41.6755 87.552C42.2355 87.552 42.6995 87.7013 43.0675 88C43.4355 88.2987 43.6622 88.6987 43.7475 89.2H42.9795C42.9262 88.8853 42.7795 88.64 42.5395 88.464C42.3048 88.2827 42.0115 88.192 41.6595 88.192C41.4035 88.192 41.1688 88.2507 40.9555 88.368C40.7475 88.4853 40.5795 88.6667 40.4515 88.912C40.3235 89.152 40.2595 89.4507 40.2595 89.808C40.2595 90.1653 40.3235 90.4667 40.4515 90.712C40.5795 90.952 40.7475 91.1307 40.9555 91.248C41.1688 91.3653 41.4035 91.424 41.6595 91.424C42.0115 91.424 42.3048 91.3333 42.5395 91.152C42.7795 90.9707 42.9262 90.7227 42.9795 90.408H43.7475C43.6622 90.9147 43.4355 91.3173 43.0675 91.616C42.6995 91.9093 42.2355 92.056 41.6755 92.056C41.2542 92.056 40.8808 91.9653 40.5555 91.784C40.2302 91.6027 39.9742 91.344 39.7875 91.008C39.6062 90.6667 39.5155 90.2667 39.5155 89.808C39.5155 89.3493 39.6062 88.9493 39.7875 88.608C39.9742 88.2667 40.2302 88.0053 40.5555 87.824C40.8808 87.6427 41.2542 87.552 41.6755 87.552ZM48.9803 89.56C48.9803 89.7147 48.9696 89.848 48.9483 89.96H45.4363C45.4523 90.4613 45.5936 90.8373 45.8603 91.088C46.1323 91.3387 46.4629 91.464 46.8523 91.464C47.2043 91.464 47.4976 91.376 47.7323 91.2C47.9723 91.0187 48.1189 90.7787 48.1723 90.48H48.9483C48.8949 90.784 48.7749 91.056 48.5883 91.296C48.4069 91.536 48.1696 91.7227 47.8763 91.856C47.5829 91.9893 47.2523 92.056 46.8843 92.056C46.4629 92.056 46.0896 91.9653 45.7643 91.784C45.4389 91.6027 45.1829 91.344 44.9963 91.008C44.8149 90.6667 44.7243 90.2667 44.7243 89.808C44.7243 89.3493 44.8149 88.9493 44.9963 88.608C45.1829 88.2667 45.4389 88.0053 45.7643 87.824C46.0896 87.6427 46.4629 87.552 46.8843 87.552C47.3109 87.552 47.6816 87.6427 47.9963 87.824C48.3163 88.0053 48.5589 88.248 48.7243 88.552C48.8949 88.856 48.9803 89.192 48.9803 89.56ZM48.2443 89.608C48.2603 89.2827 48.2069 89.0107 48.0843 88.792C47.9616 88.5733 47.7936 88.4107 47.5803 88.304C47.3669 88.1973 47.1349 88.144 46.8843 88.144C46.4843 88.144 46.1483 88.2693 45.8763 88.52C45.6043 88.7653 45.4576 89.128 45.4363 89.608H48.2443ZM52.4844 87.536C52.9964 87.536 53.4098 87.7013 53.7244 88.032C54.0391 88.3573 54.1964 88.8293 54.1964 89.448V92H53.4684V89.512C53.4684 89.0747 53.3564 88.7387 53.1324 88.504C52.9084 88.2693 52.6044 88.152 52.2204 88.152C51.8204 88.152 51.5004 88.2827 51.2604 88.544C51.0204 88.8 50.9004 89.176 50.9004 89.672V92H50.1724V87.608H50.9004V88.648C51.0124 88.2907 51.2098 88.016 51.4924 87.824C51.7804 87.632 52.1111 87.536 52.4844 87.536ZM56.9291 87.552C57.4251 87.552 57.8224 87.6827 58.1211 87.944C58.4251 88.2 58.6091 88.5467 58.6731 88.984H57.9771C57.9451 88.7227 57.8357 88.5093 57.6491 88.344C57.4677 88.1733 57.2224 88.088 56.9131 88.088C56.6517 88.088 56.4464 88.152 56.2971 88.28C56.1531 88.4027 56.0811 88.5707 56.0811 88.784C56.0811 88.944 56.1291 89.0747 56.2251 89.176C56.3264 89.272 56.4491 89.3467 56.5931 89.4C56.7424 89.448 56.9451 89.5013 57.2011 89.56C57.5264 89.6347 57.7877 89.712 57.9851 89.792C58.1877 89.8667 58.3584 89.9893 58.4971 90.16C58.6411 90.3307 58.7131 90.56 58.7131 90.848C58.7131 91.2053 58.5771 91.496 58.3051 91.72C58.0384 91.944 57.6811 92.056 57.2331 92.056C56.7104 92.056 56.2837 91.9307 55.9531 91.68C55.6224 91.4293 55.4277 91.08 55.3691 90.632H56.0731C56.0997 90.8987 56.2144 91.1147 56.4171 91.28C56.6251 91.4453 56.8971 91.528 57.2331 91.528C57.4837 91.528 57.6784 91.464 57.8171 91.336C57.9611 91.208 58.0331 91.04 58.0331 90.832C58.0331 90.6613 57.9824 90.5253 57.8811 90.424C57.7797 90.3227 57.6544 90.2453 57.5051 90.192C57.3557 90.1387 57.1504 90.0827 56.8891 90.024C56.5637 89.9493 56.3024 89.8747 56.1051 89.8C55.9131 89.7253 55.7477 89.608 55.6091 89.448C55.4757 89.2827 55.4091 89.0613 55.4091 88.784C55.4091 88.416 55.5451 88.12 55.8171 87.896C56.0891 87.6667 56.4597 87.552 56.9291 87.552ZM63.9659 89.56C63.9659 89.7147 63.9552 89.848 63.9339 89.96H60.4219C60.4379 90.4613 60.5792 90.8373 60.8459 91.088C61.1179 91.3387 61.4485 91.464 61.8379 91.464C62.1899 91.464 62.4832 91.376 62.7179 91.2C62.9579 91.0187 63.1045 90.7787 63.1579 90.48H63.9339C63.8805 90.784 63.7605 91.056 63.5739 91.296C63.3925 91.536 63.1552 91.7227 62.8619 91.856C62.5685 91.9893 62.2379 92.056 61.8699 92.056C61.4485 92.056 61.0752 91.9653 60.7499 91.784C60.4245 91.6027 60.1685 91.344 59.9819 91.008C59.8005 90.6667 59.7099 90.2667 59.7099 89.808C59.7099 89.3493 59.8005 88.9493 59.9819 88.608C60.1685 88.2667 60.4245 88.0053 60.7499 87.824C61.0752 87.6427 61.4485 87.552 61.8699 87.552C62.2965 87.552 62.6672 87.6427 62.9819 87.824C63.3019 88.0053 63.5445 88.248 63.7099 88.552C63.8805 88.856 63.9659 89.192 63.9659 89.56ZM63.2299 89.608C63.2459 89.2827 63.1925 89.0107 63.0699 88.792C62.9472 88.5733 62.7792 88.4107 62.5659 88.304C62.3525 88.1973 62.1205 88.144 61.8699 88.144C61.4699 88.144 61.1339 88.2693 60.8619 88.52C60.5899 88.7653 60.4432 89.128 60.4219 89.608H63.2299ZM66.9581 87.552C67.3847 87.552 67.7447 87.6587 68.0381 87.872C68.3367 88.0853 68.5447 88.3707 68.6621 88.728V86.08H69.3901V92H68.6621V90.88C68.5447 91.2373 68.3367 91.5227 68.0381 91.736C67.7447 91.9493 67.3847 92.056 66.9581 92.056C66.5687 92.056 66.2221 91.9653 65.9181 91.784C65.6141 91.6027 65.3741 91.344 65.1981 91.008C65.0274 90.6667 64.9421 90.2667 64.9421 89.808C64.9421 89.3493 65.0274 88.9493 65.1981 88.608C65.3741 88.2667 65.6141 88.0053 65.9181 87.824C66.2221 87.6427 66.5687 87.552 66.9581 87.552ZM67.1661 88.2C66.7181 88.2 66.3581 88.344 66.0861 88.632C65.8194 88.9147 65.6861 89.3067 65.6861 89.808C65.6861 90.3093 65.8194 90.704 66.0861 90.992C66.3581 91.2747 66.7181 91.416 67.1661 91.416C67.4541 91.416 67.7101 91.3493 67.9341 91.216C68.1634 91.0827 68.3421 90.896 68.4701 90.656C68.5981 90.4107 68.6621 90.128 68.6621 89.808C68.6621 89.488 68.5981 89.2053 68.4701 88.96C68.3421 88.7147 68.1634 88.528 67.9341 88.4C67.7101 88.2667 67.4541 88.2 67.1661 88.2ZM73.7332 89.728V92H73.0052V86.36H74.7972C75.4426 86.36 75.9252 86.512 76.2452 86.816C76.5652 87.1147 76.7252 87.5253 76.7252 88.048C76.7252 88.576 76.5599 88.9893 76.2292 89.288C75.8986 89.5813 75.4212 89.728 74.7972 89.728H73.7332ZM74.7332 89.12C75.1759 89.12 75.4932 89.0267 75.6852 88.84C75.8826 88.6533 75.9812 88.3893 75.9812 88.048C75.9812 87.696 75.8826 87.4293 75.6852 87.248C75.4932 87.0613 75.1759 86.968 74.7332 86.968H73.7332V89.12H74.7332ZM79.6156 87.552C80.0422 87.552 80.4022 87.6587 80.6956 87.872C80.9942 88.0853 81.2022 88.3707 81.3196 88.728V87.608H82.0476V92H81.3196V90.88C81.2022 91.2373 80.9942 91.5227 80.6956 91.736C80.4022 91.9493 80.0422 92.056 79.6156 92.056C79.2262 92.056 78.8796 91.9653 78.5756 91.784C78.2716 91.6027 78.0316 91.344 77.8556 91.008C77.6849 90.6667 77.5996 90.2667 77.5996 89.808C77.5996 89.3493 77.6849 88.9493 77.8556 88.608C78.0316 88.2667 78.2716 88.0053 78.5756 87.824C78.8796 87.6427 79.2262 87.552 79.6156 87.552ZM79.8236 88.2C79.3756 88.2 79.0156 88.344 78.7436 88.632C78.4769 88.9147 78.3436 89.3067 78.3436 89.808C78.3436 90.3093 78.4769 90.704 78.7436 90.992C79.0156 91.2747 79.3756 91.416 79.8236 91.416C80.1116 91.416 80.3676 91.3493 80.5916 91.216C80.8209 91.0827 80.9996 90.896 81.1276 90.656C81.2556 90.4107 81.3196 90.128 81.3196 89.808C81.3196 89.488 81.2556 89.2053 81.1276 88.96C80.9996 88.7147 80.8209 88.528 80.5916 88.4C80.3676 88.2667 80.1116 88.2 79.8236 88.2ZM84.1742 88.496C84.3182 88.192 84.5289 87.9573 84.8062 87.792C85.0835 87.6213 85.4142 87.536 85.7982 87.536V88.328H85.5742C85.1635 88.328 84.8275 88.4347 84.5662 88.648C84.3049 88.856 84.1742 89.2027 84.1742 89.688V92H83.4462V87.608H84.1742V88.496ZM88.8525 91.36V92H88.3085C87.8605 92 87.5245 91.8933 87.3005 91.68C87.0818 91.4667 86.9725 91.1093 86.9725 90.608V88.24H86.3165V87.608H86.9725V86.512H87.7085V87.608H88.8445V88.24H87.7085V90.624C87.7085 90.9067 87.7592 91.1013 87.8605 91.208C87.9672 91.3093 88.1485 91.36 88.4045 91.36H88.8525ZM92.2929 87.536C92.8049 87.536 93.2182 87.7013 93.5329 88.032C93.8475 88.3573 94.0049 88.8293 94.0049 89.448V92H93.2769V89.512C93.2769 89.0747 93.1649 88.7387 92.9409 88.504C92.7169 88.2693 92.4129 88.152 92.0289 88.152C91.6289 88.152 91.3089 88.2827 91.0689 88.544C90.8289 88.8 90.7089 89.176 90.7089 89.672V92H89.9809V87.608H90.7089V88.648C90.8209 88.2907 91.0182 88.016 91.3009 87.824C91.5889 87.632 91.9195 87.536 92.2929 87.536ZM99.4015 89.56C99.4015 89.7147 99.3908 89.848 99.3695 89.96H95.8575C95.8735 90.4613 96.0148 90.8373 96.2815 91.088C96.5535 91.3387 96.8842 91.464 97.2735 91.464C97.6255 91.464 97.9188 91.376 98.1535 91.2C98.3935 91.0187 98.5402 90.7787 98.5935 90.48H99.3695C99.3162 90.784 99.1962 91.056 99.0095 91.296C98.8282 91.536 98.5908 91.7227 98.2975 91.856C98.0042 91.9893 97.6735 92.056 97.3055 92.056C96.8842 92.056 96.5108 91.9653 96.1855 91.784C95.8602 91.6027 95.6042 91.344 95.4175 91.008C95.2362 90.6667 95.1455 90.2667 95.1455 89.808C95.1455 89.3493 95.2362 88.9493 95.4175 88.608C95.6042 88.2667 95.8602 88.0053 96.1855 87.824C96.5108 87.6427 96.8842 87.552 97.3055 87.552C97.7322 87.552 98.1028 87.6427 98.4175 87.824C98.7375 88.0053 98.9802 88.248 99.1455 88.552C99.3162 88.856 99.4015 89.192 99.4015 89.56ZM98.6655 89.608C98.6815 89.2827 98.6282 89.0107 98.5055 88.792C98.3828 88.5733 98.2148 88.4107 98.0015 88.304C97.7882 88.1973 97.5562 88.144 97.3055 88.144C96.9055 88.144 96.5695 88.2693 96.2975 88.52C96.0255 88.7653 95.8788 89.128 95.8575 89.608H98.6655ZM101.322 88.496C101.466 88.192 101.676 87.9573 101.954 87.792C102.231 87.6213 102.562 87.536 102.946 87.536V88.328H102.722C102.311 88.328 101.975 88.4347 101.714 88.648C101.452 88.856 101.322 89.2027 101.322 89.688V92H100.594V87.608H101.322V88.496ZM105.28 87.552C105.776 87.552 106.173 87.6827 106.472 87.944C106.776 88.2 106.96 88.5467 107.024 88.984H106.328C106.296 88.7227 106.187 88.5093 106 88.344C105.819 88.1733 105.573 88.088 105.264 88.088C105.003 88.088 104.797 88.152 104.648 88.28C104.504 88.4027 104.432 88.5707 104.432 88.784C104.432 88.944 104.48 89.0747 104.576 89.176C104.677 89.272 104.8 89.3467 104.944 89.4C105.093 89.448 105.296 89.5013 105.552 89.56C105.877 89.6347 106.139 89.712 106.336 89.792C106.539 89.8667 106.709 89.9893 106.848 90.16C106.992 90.3307 107.064 90.56 107.064 90.848C107.064 91.2053 106.928 91.496 106.656 91.72C106.389 91.944 106.032 92.056 105.584 92.056C105.061 92.056 104.635 91.9307 104.304 91.68C103.973 91.4293 103.779 91.08 103.72 90.632H104.424C104.451 90.8987 104.565 91.1147 104.768 91.28C104.976 91.4453 105.248 91.528 105.584 91.528C105.835 91.528 106.029 91.464 106.168 91.336C106.312 91.208 106.384 91.04 106.384 90.832C106.384 90.6613 106.333 90.5253 106.232 90.424C106.131 90.3227 106.005 90.2453 105.856 90.192C105.707 90.1387 105.501 90.0827 105.24 90.024C104.915 89.9493 104.653 89.8747 104.456 89.8C104.264 89.7253 104.099 89.608 103.96 89.448C103.827 89.2827 103.76 89.0613 103.76 88.784C103.76 88.416 103.896 88.12 104.168 87.896C104.44 87.6667 104.811 87.552 105.28 87.552ZM28.44 97.336C28.44 97.0587 28.536 96.824 28.728 96.632C28.92 96.44 29.152 96.344 29.424 96.344C29.7013 96.344 29.9333 96.44 30.12 96.632C30.312 96.824 30.408 97.0587 30.408 97.336C30.408 97.608 30.312 97.84 30.12 98.032C29.9333 98.2187 29.7013 98.312 29.424 98.312C29.152 98.312 28.92 98.2187 28.728 98.032C28.536 97.84 28.44 97.608 28.44 97.336ZM34.6123 94.952V96.88H36.7563V97.44H34.6123V99.408H36.9963V100H33.8843V94.36H36.9963V94.952H34.6123ZM40.6992 100L39.5552 98.32L38.5232 100H37.7152L39.1552 97.736L37.7072 95.608H38.5392L39.6512 97.24L40.6672 95.608H41.4752L40.0432 97.816L41.5312 100H40.6992ZM44.8743 95.552C45.2636 95.552 45.6103 95.6427 45.9143 95.824C46.2183 96.0053 46.4556 96.2667 46.6263 96.608C46.8023 96.9493 46.8903 97.3493 46.8903 97.808C46.8903 98.2667 46.8023 98.6667 46.6263 99.008C46.4556 99.344 46.2183 99.6027 45.9143 99.784C45.6103 99.9653 45.2636 100.056 44.8743 100.056C44.4476 100.056 44.0849 99.9493 43.7863 99.736C43.4929 99.5173 43.2903 99.232 43.1783 98.88V102.08H42.4503V95.608H43.1783V96.728C43.2903 96.376 43.4929 96.0933 43.7863 95.88C44.0849 95.6613 44.4476 95.552 44.8743 95.552ZM44.6663 96.2C44.3836 96.2 44.1276 96.2667 43.8983 96.4C43.6689 96.528 43.4903 96.7147 43.3623 96.96C43.2343 97.2053 43.1703 97.488 43.1703 97.808C43.1703 98.128 43.2343 98.4107 43.3623 98.656C43.4903 98.896 43.6689 99.0827 43.8983 99.216C44.1276 99.3493 44.3836 99.416 44.6663 99.416C45.1196 99.416 45.4796 99.2747 45.7463 98.992C46.0183 98.704 46.1543 98.3093 46.1543 97.808C46.1543 97.3067 46.0183 96.9147 45.7463 96.632C45.4796 96.344 45.1196 96.2 44.6663 96.2ZM47.9529 94.32C47.9529 94.1867 47.9982 94.08 48.0889 94C48.1795 93.9147 48.2995 93.872 48.4489 93.872C48.5982 93.872 48.7182 93.9147 48.8089 94C48.8995 94.08 48.9449 94.1867 48.9449 94.32C48.9449 94.4533 48.8995 94.5627 48.8089 94.648C48.7182 94.728 48.5982 94.768 48.4489 94.768C48.2995 94.768 48.1795 94.728 48.0889 94.648C47.9982 94.5627 47.9529 94.4533 47.9529 94.32ZM48.8089 95.608V100H48.0809V95.608H48.8089ZM50.9473 96.496C51.0913 96.192 51.302 95.9573 51.5793 95.792C51.8566 95.6213 52.1873 95.536 52.5713 95.536V96.328H52.3473C51.9366 96.328 51.6006 96.4347 51.3393 96.648C51.078 96.856 50.9473 97.2027 50.9473 97.688V100H50.2193V95.608H50.9473V96.496ZM57.5696 97.56C57.5696 97.7147 57.559 97.848 57.5376 97.96H54.0256C54.0416 98.4613 54.183 98.8373 54.4496 99.088C54.7216 99.3387 55.0523 99.464 55.4416 99.464C55.7936 99.464 56.087 99.376 56.3216 99.2C56.5616 99.0187 56.7083 98.7787 56.7616 98.48H57.5376C57.4843 98.784 57.3643 99.056 57.1776 99.296C56.9963 99.536 56.759 99.7227 56.4656 99.856C56.1723 99.9893 55.8416 100.056 55.4736 100.056C55.0523 100.056 54.679 99.9653 54.3536 99.784C54.0283 99.6027 53.7723 99.344 53.5856 99.008C53.4043 98.6667 53.3136 98.2667 53.3136 97.808C53.3136 97.3493 53.4043 96.9493 53.5856 96.608C53.7723 96.2667 54.0283 96.0053 54.3536 95.824C54.679 95.6427 55.0523 95.552 55.4736 95.552C55.9003 95.552 56.271 95.6427 56.5856 95.824C56.9056 96.0053 57.1483 96.248 57.3136 96.552C57.4843 96.856 57.5696 97.192 57.5696 97.56ZM56.8336 97.608C56.8496 97.2827 56.7963 97.0107 56.6736 96.792C56.551 96.5733 56.383 96.4107 56.1696 96.304C55.9563 96.1973 55.7243 96.144 55.4736 96.144C55.0736 96.144 54.7376 96.2693 54.4656 96.52C54.1936 96.7653 54.047 97.128 54.0256 97.608H56.8336ZM60.5618 95.552C60.9885 95.552 61.3485 95.6587 61.6418 95.872C61.9405 96.0853 62.1485 96.3707 62.2658 96.728V94.08H62.9938V100H62.2658V98.88C62.1485 99.2373 61.9405 99.5227 61.6418 99.736C61.3485 99.9493 60.9885 100.056 60.5618 100.056C60.1725 100.056 59.8258 99.9653 59.5218 99.784C59.2178 99.6027 58.9778 99.344 58.8018 99.008C58.6311 98.6667 58.5458 98.2667 58.5458 97.808C58.5458 97.3493 58.6311 96.9493 58.8018 96.608C58.9778 96.2667 59.2178 96.0053 59.5218 95.824C59.8258 95.6427 60.1725 95.552 60.5618 95.552ZM60.7698 96.2C60.3218 96.2 59.9618 96.344 59.6898 96.632C59.4231 96.9147 59.2898 97.3067 59.2898 97.808C59.2898 98.3093 59.4231 98.704 59.6898 98.992C59.9618 99.2747 60.3218 99.416 60.7698 99.416C61.0578 99.416 61.3138 99.3493 61.5378 99.216C61.7671 99.0827 61.9458 98.896 62.0738 98.656C62.2018 98.4107 62.2658 98.128 62.2658 97.808C62.2658 97.488 62.2018 97.2053 62.0738 96.96C61.9458 96.7147 61.7671 96.528 61.5378 96.4C61.3138 96.2667 61.0578 96.2 60.7698 96.2ZM69.105 94.304C69.793 94.304 70.361 94.4747 70.809 94.816C71.257 95.152 71.5663 95.6133 71.737 96.2H70.969C70.825 95.8267 70.593 95.5307 70.273 95.312C69.953 95.088 69.561 94.976 69.097 94.976C68.729 94.976 68.3983 95.0667 68.105 95.248C67.817 95.424 67.5877 95.68 67.417 96.016C67.2517 96.3467 67.169 96.736 67.169 97.184C67.169 97.6267 67.2517 98.0133 67.417 98.344C67.5877 98.6747 67.817 98.9307 68.105 99.112C68.3983 99.288 68.729 99.376 69.097 99.376C69.561 99.376 69.953 99.2667 70.273 99.048C70.593 98.824 70.825 98.5253 70.969 98.152H71.737C71.5663 98.7387 71.257 99.2027 70.809 99.544C70.361 99.88 69.793 100.048 69.105 100.048C68.577 100.048 68.1103 99.928 67.705 99.688C67.2997 99.4427 66.9823 99.104 66.753 98.672C66.529 98.2347 66.417 97.7387 66.417 97.184C66.417 96.624 66.529 96.1253 66.753 95.688C66.9823 95.2507 67.2997 94.912 67.705 94.672C68.1103 94.4267 68.577 94.304 69.105 94.304ZM75.2626 95.536C75.7746 95.536 76.1879 95.7013 76.5026 96.032C76.8172 96.3573 76.9746 96.8293 76.9746 97.448V100H76.2466V97.512C76.2466 97.0747 76.1346 96.7387 75.9106 96.504C75.6866 96.2693 75.3826 96.152 74.9986 96.152C74.5986 96.152 74.2786 96.2827 74.0386 96.544C73.7986 96.8 73.6786 97.176 73.6786 97.672V100H72.9506V94.08H73.6786V96.648C73.7906 96.2907 73.9879 96.016 74.2706 95.824C74.5586 95.632 74.8892 95.536 75.2626 95.536ZM82.3712 97.56C82.3712 97.7147 82.3605 97.848 82.3392 97.96H78.8272C78.8432 98.4613 78.9845 98.8373 79.2512 99.088C79.5232 99.3387 79.8539 99.464 80.2432 99.464C80.5952 99.464 80.8885 99.376 81.1232 99.2C81.3632 99.0187 81.5099 98.7787 81.5632 98.48H82.3392C82.2859 98.784 82.1659 99.056 81.9792 99.296C81.7979 99.536 81.5605 99.7227 81.2672 99.856C80.9739 99.9893 80.6432 100.056 80.2752 100.056C79.8539 100.056 79.4805 99.9653 79.1552 99.784C78.8299 99.6027 78.5739 99.344 78.3872 99.008C78.2059 98.6667 78.1152 98.2667 78.1152 97.808C78.1152 97.3493 78.2059 96.9493 78.3872 96.608C78.5739 96.2667 78.8299 96.0053 79.1552 95.824C79.4805 95.6427 79.8539 95.552 80.2752 95.552C80.7019 95.552 81.0725 95.6427 81.3872 95.824C81.7072 96.0053 81.9499 96.248 82.1152 96.552C82.2859 96.856 82.3712 97.192 82.3712 97.56ZM81.6352 97.608C81.6512 97.2827 81.5979 97.0107 81.4752 96.792C81.3525 96.5733 81.1845 96.4107 80.9712 96.304C80.7579 96.1973 80.5259 96.144 80.2752 96.144C79.8752 96.144 79.5392 96.2693 79.2672 96.52C78.9952 96.7653 78.8485 97.128 78.8272 97.608H81.6352ZM85.5074 95.552C86.0674 95.552 86.5314 95.7013 86.8994 96C87.2674 96.2987 87.494 96.6987 87.5794 97.2H86.8114C86.758 96.8853 86.6114 96.64 86.3714 96.464C86.1367 96.2827 85.8434 96.192 85.4914 96.192C85.2354 96.192 85.0007 96.2507 84.7874 96.368C84.5794 96.4853 84.4114 96.6667 84.2834 96.912C84.1554 97.152 84.0914 97.4507 84.0914 97.808C84.0914 98.1653 84.1554 98.4667 84.2834 98.712C84.4114 98.952 84.5794 99.1307 84.7874 99.248C85.0007 99.3653 85.2354 99.424 85.4914 99.424C85.8434 99.424 86.1367 99.3333 86.3714 99.152C86.6114 98.9707 86.758 98.7227 86.8114 98.408H87.5794C87.494 98.9147 87.2674 99.3173 86.8994 99.616C86.5314 99.9093 86.0674 100.056 85.5074 100.056C85.086 100.056 84.7127 99.9653 84.3874 99.784C84.062 99.6027 83.806 99.344 83.6194 99.008C83.438 98.6667 83.3474 98.2667 83.3474 97.808C83.3474 97.3493 83.438 96.9493 83.6194 96.608C83.806 96.2667 84.062 96.0053 84.3874 95.824C84.7127 95.6427 85.086 95.552 85.5074 95.552ZM91.1801 100L89.5001 98.024V100H88.7721V94.08H89.5001V97.52L91.1561 95.608H92.0441L90.0761 97.792L92.0921 100H91.1801ZM97.0131 97.56C97.0131 97.7147 97.0024 97.848 96.9811 97.96H93.4691C93.4851 98.4613 93.6264 98.8373 93.8931 99.088C94.1651 99.3387 94.4957 99.464 94.8851 99.464C95.2371 99.464 95.5304 99.376 95.7651 99.2C96.0051 99.0187 96.1517 98.7787 96.2051 98.48H96.9811C96.9277 98.784 96.8077 99.056 96.6211 99.296C96.4397 99.536 96.2024 99.7227 95.9091 99.856C95.6157 99.9893 95.2851 100.056 94.9171 100.056C94.4957 100.056 94.1224 99.9653 93.7971 99.784C93.4717 99.6027 93.2157 99.344 93.0291 99.008C92.8477 98.6667 92.7571 98.2667 92.7571 97.808C92.7571 97.3493 92.8477 96.9493 93.0291 96.608C93.2157 96.2667 93.4717 96.0053 93.7971 95.824C94.1224 95.6427 94.4957 95.552 94.9171 95.552C95.3437 95.552 95.7144 95.6427 96.0291 95.824C96.3491 96.0053 96.5917 96.248 96.7571 96.552C96.9277 96.856 97.0131 97.192 97.0131 97.56ZM96.2771 97.608C96.2931 97.2827 96.2397 97.0107 96.1171 96.792C95.9944 96.5733 95.8264 96.4107 95.6131 96.304C95.3997 96.1973 95.1677 96.144 94.9171 96.144C94.5171 96.144 94.1811 96.2693 93.9091 96.52C93.6371 96.7653 93.4904 97.128 93.4691 97.608H96.2771ZM100.005 95.552C100.432 95.552 100.792 95.6587 101.085 95.872C101.384 96.0853 101.592 96.3707 101.709 96.728V94.08H102.437V100H101.709V98.88C101.592 99.2373 101.384 99.5227 101.085 99.736C100.792 99.9493 100.432 100.056 100.005 100.056C99.6159 100.056 99.2692 99.9653 98.9652 99.784C98.6612 99.6027 98.4212 99.344 98.2452 99.008C98.0746 98.6667 97.9892 98.2667 97.9892 97.808C97.9892 97.3493 98.0746 96.9493 98.2452 96.608C98.4212 96.2667 98.6612 96.0053 98.9652 95.824C99.2692 95.6427 99.6159 95.552 100.005 95.552ZM100.213 96.2C99.7652 96.2 99.4052 96.344 99.1332 96.632C98.8666 96.9147 98.7332 97.3067 98.7332 97.808C98.7332 98.3093 98.8666 98.704 99.1332 98.992C99.4052 99.2747 99.7652 99.416 100.213 99.416C100.501 99.416 100.757 99.3493 100.981 99.216C101.211 99.0827 101.389 98.896 101.517 98.656C101.645 98.4107 101.709 98.128 101.709 97.808C101.709 97.488 101.645 97.2053 101.517 96.96C101.389 96.7147 101.211 96.528 100.981 96.4C100.757 96.2667 100.501 96.2 100.213 96.2ZM28.44 105.336C28.44 105.059 28.536 104.824 28.728 104.632C28.92 104.44 29.152 104.344 29.424 104.344C29.7013 104.344 29.9333 104.44 30.12 104.632C30.312 104.824 30.408 105.059 30.408 105.336C30.408 105.608 30.312 105.84 30.12 106.032C29.9333 106.219 29.7013 106.312 29.424 106.312C29.152 106.312 28.92 106.219 28.728 106.032C28.536 105.84 28.44 105.608 28.44 105.336ZM36.6363 105.08C36.983 105.155 37.263 105.32 37.4763 105.576C37.695 105.832 37.8043 106.133 37.8043 106.48C37.8043 106.939 37.647 107.307 37.3323 107.584C37.023 107.861 36.5723 108 35.9803 108H33.8843V102.36H35.9483C36.5136 102.36 36.943 102.485 37.2363 102.736C37.5296 102.987 37.6763 103.331 37.6763 103.768C37.6763 104.131 37.5776 104.424 37.3803 104.648C37.1883 104.872 36.9403 105.016 36.6363 105.08ZM34.6123 104.832H35.8283C36.1856 104.832 36.4576 104.749 36.6443 104.584C36.8363 104.419 36.9323 104.187 36.9323 103.888C36.9323 103.6 36.839 103.373 36.6523 103.208C36.4656 103.043 36.1803 102.96 35.7963 102.96H34.6123V104.832ZM35.8443 107.392C36.2283 107.392 36.5243 107.304 36.7323 107.128C36.9456 106.952 37.0523 106.704 37.0523 106.384C37.0523 106.069 36.943 105.824 36.7243 105.648C36.511 105.467 36.2123 105.376 35.8283 105.376H34.6123V107.392H35.8443ZM40.7524 103.552C41.1791 103.552 41.5391 103.659 41.8324 103.872C42.1311 104.085 42.3391 104.371 42.4564 104.728V103.608H43.1844V108H42.4564V106.88C42.3391 107.237 42.1311 107.523 41.8324 107.736C41.5391 107.949 41.1791 108.056 40.7524 108.056C40.3631 108.056 40.0164 107.965 39.7124 107.784C39.4084 107.603 39.1684 107.344 38.9924 107.008C38.8218 106.667 38.7364 106.267 38.7364 105.808C38.7364 105.349 38.8218 104.949 38.9924 104.608C39.1684 104.267 39.4084 104.005 39.7124 103.824C40.0164 103.643 40.3631 103.552 40.7524 103.552ZM40.9604 104.2C40.5124 104.2 40.1524 104.344 39.8804 104.632C39.6138 104.915 39.4804 105.307 39.4804 105.808C39.4804 106.309 39.6138 106.704 39.8804 106.992C40.1524 107.275 40.5124 107.416 40.9604 107.416C41.2484 107.416 41.5044 107.349 41.7284 107.216C41.9578 107.083 42.1364 106.896 42.2644 106.656C42.3924 106.411 42.4564 106.128 42.4564 105.808C42.4564 105.488 42.3924 105.205 42.2644 104.96C42.1364 104.715 41.9578 104.528 41.7284 104.4C41.5044 104.267 41.2484 104.2 40.9604 104.2ZM45.3111 104.496C45.4551 104.192 45.6657 103.957 45.9431 103.792C46.2204 103.621 46.5511 103.536 46.9351 103.536V104.328H46.7111C46.3004 104.328 45.9644 104.435 45.7031 104.648C45.4417 104.856 45.3111 105.203 45.3111 105.688V108H44.5831V103.608H45.3111V104.496ZM49.8374 103.552C50.3974 103.552 50.8614 103.701 51.2294 104C51.5974 104.299 51.824 104.699 51.9094 105.2H51.1414C51.088 104.885 50.9414 104.64 50.7014 104.464C50.4667 104.283 50.1734 104.192 49.8214 104.192C49.5654 104.192 49.3307 104.251 49.1174 104.368C48.9094 104.485 48.7414 104.667 48.6134 104.912C48.4854 105.152 48.4214 105.451 48.4214 105.808C48.4214 106.165 48.4854 106.467 48.6134 106.712C48.7414 106.952 48.9094 107.131 49.1174 107.248C49.3307 107.365 49.5654 107.424 49.8214 107.424C50.1734 107.424 50.4667 107.333 50.7014 107.152C50.9414 106.971 51.088 106.723 51.1414 106.408H51.9094C51.824 106.915 51.5974 107.317 51.2294 107.616C50.8614 107.909 50.3974 108.056 49.8374 108.056C49.416 108.056 49.0427 107.965 48.7174 107.784C48.392 107.603 48.136 107.344 47.9494 107.008C47.768 106.667 47.6774 106.267 47.6774 105.808C47.6774 105.349 47.768 104.949 47.9494 104.608C48.136 104.267 48.392 104.005 48.7174 103.824C49.0427 103.643 49.416 103.552 49.8374 103.552ZM55.0941 103.552C55.5155 103.552 55.8915 103.643 56.2221 103.824C56.5581 104.005 56.8195 104.267 57.0061 104.608C57.1981 104.949 57.2941 105.349 57.2941 105.808C57.2941 106.267 57.1981 106.667 57.0061 107.008C56.8195 107.344 56.5581 107.603 56.2221 107.784C55.8915 107.965 55.5155 108.056 55.0941 108.056C54.6728 108.056 54.2941 107.965 53.9581 107.784C53.6275 107.603 53.3661 107.344 53.1741 107.008C52.9821 106.667 52.8861 106.267 52.8861 105.808C52.8861 105.349 52.9821 104.949 53.1741 104.608C53.3661 104.267 53.6275 104.005 53.9581 103.824C54.2941 103.643 54.6728 103.552 55.0941 103.552ZM55.0941 104.192C54.8328 104.192 54.5901 104.251 54.3661 104.368C54.1475 104.485 53.9688 104.667 53.8301 104.912C53.6968 105.152 53.6301 105.451 53.6301 105.808C53.6301 106.16 53.6968 106.459 53.8301 106.704C53.9688 106.944 54.1475 107.123 54.3661 107.24C54.5901 107.357 54.8328 107.416 55.0941 107.416C55.3555 107.416 55.5955 107.357 55.8141 107.24C56.0381 107.123 56.2168 106.944 56.3501 106.704C56.4888 106.459 56.5581 106.16 56.5581 105.808C56.5581 105.451 56.4888 105.152 56.3501 104.912C56.2168 104.667 56.0381 104.485 55.8141 104.368C55.5955 104.251 55.3555 104.192 55.0941 104.192ZM60.2828 103.552C60.7094 103.552 61.0694 103.659 61.3628 103.872C61.6614 104.085 61.8694 104.371 61.9868 104.728V102.08H62.7148V108H61.9868V106.88C61.8694 107.237 61.6614 107.523 61.3628 107.736C61.0694 107.949 60.7094 108.056 60.2828 108.056C59.8934 108.056 59.5468 107.965 59.2428 107.784C58.9388 107.603 58.6988 107.344 58.5228 107.008C58.3521 106.667 58.2668 106.267 58.2668 105.808C58.2668 105.349 58.3521 104.949 58.5228 104.608C58.6988 104.267 58.9388 104.005 59.2428 103.824C59.5468 103.643 59.8934 103.552 60.2828 103.552ZM60.4908 104.2C60.0428 104.2 59.6828 104.344 59.4108 104.632C59.1441 104.915 59.0108 105.307 59.0108 105.808C59.0108 106.309 59.1441 106.704 59.4108 106.992C59.6828 107.275 60.0428 107.416 60.4908 107.416C60.7788 107.416 61.0348 107.349 61.2588 107.216C61.4881 107.083 61.6668 106.896 61.7948 106.656C61.9228 106.411 61.9868 106.128 61.9868 105.808C61.9868 105.488 61.9228 105.205 61.7948 104.96C61.6668 104.715 61.4881 104.528 61.2588 104.4C61.0348 104.267 60.7788 104.2 60.4908 104.2ZM68.1534 105.56C68.1534 105.715 68.1427 105.848 68.1214 105.96H64.6094C64.6254 106.461 64.7667 106.837 65.0334 107.088C65.3054 107.339 65.636 107.464 66.0254 107.464C66.3774 107.464 66.6707 107.376 66.9054 107.2C67.1454 107.019 67.292 106.779 67.3454 106.48H68.1214C68.068 106.784 67.948 107.056 67.7614 107.296C67.58 107.536 67.3427 107.723 67.0494 107.856C66.756 107.989 66.4254 108.056 66.0574 108.056C65.636 108.056 65.2627 107.965 64.9374 107.784C64.612 107.603 64.356 107.344 64.1694 107.008C63.988 106.667 63.8974 106.267 63.8974 105.808C63.8974 105.349 63.988 104.949 64.1694 104.608C64.356 104.267 64.612 104.005 64.9374 103.824C65.2627 103.643 65.636 103.552 66.0574 103.552C66.484 103.552 66.8547 103.643 67.1694 103.824C67.4894 104.005 67.732 104.248 67.8974 104.552C68.068 104.856 68.1534 105.192 68.1534 105.56ZM67.4174 105.608C67.4334 105.283 67.38 105.011 67.2574 104.792C67.1347 104.573 66.9667 104.411 66.7534 104.304C66.54 104.197 66.308 104.144 66.0574 104.144C65.6574 104.144 65.3214 104.269 65.0494 104.52C64.7774 104.765 64.6307 105.128 64.6094 105.608H67.4174ZM77.2101 102.456V108H76.4821V103.576L74.7141 108H74.0661L72.2901 103.592V108H71.5621V102.456H72.4341L74.4021 107.112L76.3381 102.456H77.2101ZM82.6546 105.56C82.6546 105.715 82.644 105.848 82.6226 105.96H79.1106C79.1266 106.461 79.268 106.837 79.5346 107.088C79.8066 107.339 80.1373 107.464 80.5266 107.464C80.8786 107.464 81.172 107.376 81.4066 107.2C81.6466 107.019 81.7933 106.779 81.8466 106.48H82.6226C82.5693 106.784 82.4493 107.056 82.2626 107.296C82.0813 107.536 81.844 107.723 81.5506 107.856C81.2573 107.989 80.9266 108.056 80.5586 108.056C80.1373 108.056 79.764 107.965 79.4386 107.784C79.1133 107.603 78.8573 107.344 78.6706 107.008C78.4893 106.667 78.3986 106.267 78.3986 105.808C78.3986 105.349 78.4893 104.949 78.6706 104.608C78.8573 104.267 79.1133 104.005 79.4386 103.824C79.764 103.643 80.1373 103.552 80.5586 103.552C80.9853 103.552 81.356 103.643 81.6706 103.824C81.9906 104.005 82.2333 104.248 82.3986 104.552C82.5693 104.856 82.6546 105.192 82.6546 105.56ZM81.9186 105.608C81.9346 105.283 81.8813 105.011 81.7586 104.792C81.636 104.573 81.468 104.411 81.2546 104.304C81.0413 104.197 80.8093 104.144 80.5586 104.144C80.1586 104.144 79.8226 104.269 79.5506 104.52C79.2786 104.765 79.132 105.128 79.1106 105.608H81.9186ZM85.6468 103.552C86.0735 103.552 86.4335 103.659 86.7268 103.872C87.0255 104.085 87.2335 104.371 87.3508 104.728V102.08H88.0788V108H87.3508V106.88C87.2335 107.237 87.0255 107.523 86.7268 107.736C86.4335 107.949 86.0735 108.056 85.6468 108.056C85.2575 108.056 84.9108 107.965 84.6068 107.784C84.3028 107.603 84.0628 107.344 83.8868 107.008C83.7161 106.667 83.6308 106.267 83.6308 105.808C83.6308 105.349 83.7161 104.949 83.8868 104.608C84.0628 104.267 84.3028 104.005 84.6068 103.824C84.9108 103.643 85.2575 103.552 85.6468 103.552ZM85.8548 104.2C85.4068 104.2 85.0468 104.344 84.7748 104.632C84.5081 104.915 84.3748 105.307 84.3748 105.808C84.3748 106.309 84.5081 106.704 84.7748 106.992C85.0468 107.275 85.4068 107.416 85.8548 107.416C86.1428 107.416 86.3988 107.349 86.6228 107.216C86.8521 107.083 87.0308 106.896 87.1588 106.656C87.2868 106.411 87.3508 106.128 87.3508 105.808C87.3508 105.488 87.2868 105.205 87.1588 104.96C87.0308 104.715 86.8521 104.528 86.6228 104.4C86.3988 104.267 86.1428 104.2 85.8548 104.2ZM89.3494 102.32C89.3494 102.187 89.3948 102.08 89.4854 102C89.5761 101.915 89.6961 101.872 89.8454 101.872C89.9948 101.872 90.1148 101.915 90.2054 102C90.2961 102.08 90.3414 102.187 90.3414 102.32C90.3414 102.453 90.2961 102.563 90.2054 102.648C90.1148 102.728 89.9948 102.768 89.8454 102.768C89.6961 102.768 89.5761 102.728 89.4854 102.648C89.3948 102.563 89.3494 102.453 89.3494 102.32ZM90.2054 103.608V108H89.4774V103.608H90.2054ZM93.5599 103.552C94.1199 103.552 94.5839 103.701 94.9519 104C95.3199 104.299 95.5465 104.699 95.6319 105.2H94.8639C94.8105 104.885 94.6639 104.64 94.4239 104.464C94.1892 104.283 93.8959 104.192 93.5439 104.192C93.2879 104.192 93.0532 104.251 92.8399 104.368C92.6319 104.485 92.4639 104.667 92.3359 104.912C92.2079 105.152 92.1439 105.451 92.1439 105.808C92.1439 106.165 92.2079 106.467 92.3359 106.712C92.4639 106.952 92.6319 107.131 92.8399 107.248C93.0532 107.365 93.2879 107.424 93.5439 107.424C93.8959 107.424 94.1892 107.333 94.4239 107.152C94.6639 106.971 94.8105 106.723 94.8639 106.408H95.6319C95.5465 106.915 95.3199 107.317 94.9519 107.616C94.5839 107.909 94.1199 108.056 93.5599 108.056C93.1385 108.056 92.7652 107.965 92.4399 107.784C92.1145 107.603 91.8585 107.344 91.6719 107.008C91.4905 106.667 91.3999 106.267 91.3999 105.808C91.3999 105.349 91.4905 104.949 91.6719 104.608C91.8585 104.267 92.1145 104.005 92.4399 103.824C92.7652 103.643 93.1385 103.552 93.5599 103.552ZM96.6966 102.32C96.6966 102.187 96.742 102.08 96.8326 102C96.9233 101.915 97.0433 101.872 97.1926 101.872C97.342 101.872 97.462 101.915 97.5526 102C97.6433 102.08 97.6886 102.187 97.6886 102.32C97.6886 102.453 97.6433 102.563 97.5526 102.648C97.462 102.728 97.342 102.768 97.1926 102.768C97.0433 102.768 96.9233 102.728 96.8326 102.648C96.742 102.563 96.6966 102.453 96.6966 102.32ZM97.5526 103.608V108H96.8246V103.608H97.5526ZM101.275 103.536C101.787 103.536 102.2 103.701 102.515 104.032C102.83 104.357 102.987 104.829 102.987 105.448V108H102.259V105.512C102.259 105.075 102.147 104.739 101.923 104.504C101.699 104.269 101.395 104.152 101.011 104.152C100.611 104.152 100.291 104.283 100.051 104.544C99.8111 104.8 99.6911 105.176 99.6911 105.672V108H98.9631V103.608H99.6911V104.648C99.8031 104.291 100 104.016 100.283 103.824C100.571 103.632 100.902 103.536 101.275 103.536ZM108.384 105.56C108.384 105.715 108.373 105.848 108.352 105.96H104.84C104.856 106.461 104.997 106.837 105.264 107.088C105.536 107.339 105.866 107.464 106.256 107.464C106.608 107.464 106.901 107.376 107.136 107.2C107.376 107.019 107.522 106.779 107.576 106.48H108.352C108.298 106.784 108.178 107.056 107.992 107.296C107.81 107.536 107.573 107.723 107.28 107.856C106.986 107.989 106.656 108.056 106.288 108.056C105.866 108.056 105.493 107.965 105.168 107.784C104.842 107.603 104.586 107.344 104.4 107.008C104.218 106.667 104.128 106.267 104.128 105.808C104.128 105.349 104.218 104.949 104.4 104.608C104.586 104.267 104.842 104.005 105.168 103.824C105.493 103.643 105.866 103.552 106.288 103.552C106.714 103.552 107.085 103.643 107.4 103.824C107.72 104.005 107.962 104.248 108.128 104.552C108.298 104.856 108.384 105.192 108.384 105.56ZM107.648 105.608C107.664 105.283 107.61 105.011 107.488 104.792C107.365 104.573 107.197 104.411 106.984 104.304C106.77 104.197 106.538 104.144 106.288 104.144C105.888 104.144 105.552 104.269 105.28 104.52C105.008 104.765 104.861 105.128 104.84 105.608H107.648ZM110.952 103.552C111.448 103.552 111.845 103.683 112.144 103.944C112.448 104.2 112.632 104.547 112.696 104.984H112C111.968 104.723 111.859 104.509 111.672 104.344C111.491 104.173 111.245 104.088 110.936 104.088C110.675 104.088 110.469 104.152 110.32 104.28C110.176 104.403 110.104 104.571 110.104 104.784C110.104 104.944 110.152 105.075 110.248 105.176C110.349 105.272 110.472 105.347 110.616 105.4C110.765 105.448 110.968 105.501 111.224 105.56C111.549 105.635 111.811 105.712 112.008 105.792C112.211 105.867 112.381 105.989 112.52 106.16C112.664 106.331 112.736 106.56 112.736 106.848C112.736 107.205 112.6 107.496 112.328 107.72C112.061 107.944 111.704 108.056 111.256 108.056C110.733 108.056 110.307 107.931 109.976 107.68C109.645 107.429 109.451 107.08 109.392 106.632H110.096C110.123 106.899 110.237 107.115 110.44 107.28C110.648 107.445 110.92 107.528 111.256 107.528C111.507 107.528 111.701 107.464 111.84 107.336C111.984 107.208 112.056 107.04 112.056 106.832C112.056 106.661 112.005 106.525 111.904 106.424C111.803 106.323 111.677 106.245 111.528 106.192C111.379 106.139 111.173 106.083 110.912 106.024C110.587 105.949 110.325 105.875 110.128 105.8C109.936 105.725 109.771 105.608 109.632 105.448C109.499 105.283 109.432 105.061 109.432 104.784C109.432 104.416 109.568 104.12 109.84 103.896C110.112 103.667 110.483 103.552 110.952 103.552Z" fill="#CEA12E" fill-opacity="0.81"/>
<defs>
<clipPath id="clip0">
<rect width="104" height="65" fill="white" transform="translate(181 49)"/>
</clipPath>
</defs>
</svg>
