<svg width="300" height="150" viewBox="0 0 300 150" fill="none" xmlns="http://www.w3.org/2000/svg">
<rect width="300" height="150" fill="white"/>
<rect x="-0.686861" y="0.167992" width="28" height="28" transform="matrix(-0.854854 -0.518869 -0.518869 0.854854 205.232 51.2962)" stroke="#3DB28F" stroke-opacity="0.15"/>
<path d="M202.273 110.139L194.924 105.896L190.682 113.245L183.333 109.002L179.091 116.351L171.742 112.108L167.5 119.457L160.151 115.214" stroke="#3DB28F" stroke-opacity="0.15" stroke-width="0.5"/>
<path d="M70.3082 117.009L64.6856 109.291L55.9573 113.164L50.3347 105.446L41.6064 109.319L35.9838 101.601L27.2555 105.474L21.6329 97.7553" stroke="#3DB28F" stroke-opacity="0.15" stroke-width="0.5"/>
<path d="M68.2281 122.254L62.6056 114.536L53.8773 118.409L48.2547 110.691L39.5264 114.564L33.9038 106.845L25.1755 110.718L19.5529 103" stroke="#3DB28F" stroke-opacity="0.15" stroke-width="0.5"/>
<path d="M66.1481 127.499L60.5256 119.781L51.7972 123.654L46.1747 115.935L37.4463 119.808L31.8238 112.09L23.0954 115.963L17.4729 108.245" stroke="#3DB28F" stroke-opacity="0.15" stroke-width="0.5"/>
<path d="M203.567 114.969L196.219 110.726L191.976 118.075L184.627 113.832L180.385 121.18L173.036 116.938L168.794 124.286L161.445 120.044" stroke="#3DB28F" stroke-opacity="0.15" stroke-width="0.5"/>
<path d="M231.263 57.1938L240.696 58.6757L244.129 49.7652L253.563 51.2471L256.996 42.3366L266.429 43.8185L269.863 34.9081L279.296 36.3899" stroke="#3DB28F" stroke-opacity="0.15" stroke-width="0.5"/>
<path d="M235 62L244.433 63.4819L247.867 54.5714L257.3 56.0533L260.733 47.1429L270.167 48.6247L273.6 39.7143L283.033 41.1962" stroke="#3DB28F" stroke-opacity="0.15" stroke-width="0.5"/>
<path d="M204.861 119.798L197.513 115.556L193.27 122.904L185.922 118.661L181.679 126.01L174.33 121.767L170.088 129.116L162.739 124.873" stroke="#3DB28F" stroke-opacity="0.15" stroke-width="0.5"/>
<path d="M228.763 52.8637L238.196 54.3455L241.629 45.4351L251.063 46.917L254.496 38.0065L263.929 39.4884L267.363 30.578L276.796 32.0598" stroke="#3DB28F" stroke-opacity="0.15" stroke-width="0.5"/>
<circle cx="115.5" cy="102.5" r="17" stroke="#3DB28F" stroke-opacity="0.15"/>
<circle r="6" transform="matrix(-1 0 0 1 150.5 104.5)" stroke="#3DB28F" stroke-opacity="0.15"/>
<circle r="14" transform="matrix(-1 0 0 1 91.5 20.5)" stroke="#3DB28F" stroke-opacity="0.15"/>
<circle cx="173.5" cy="52.5" r="32" stroke="#3DB28F" stroke-opacity="0.15"/>
<rect x="44.183" y="18.683" width="57" height="57" transform="rotate(30 44.183 18.683)" stroke="#3DB28F" stroke-opacity="0.15"/>
<rect x="-0.5" y="0.5" width="18.3064" height="18.3064" transform="matrix(-1 -8.74228e-08 -8.74228e-08 1 131.306 32)" stroke="#3DB28F" stroke-opacity="0.15"/>
<rect x="-0.5" y="0.5" width="8" height="8" transform="matrix(-1 -8.74228e-08 -8.74228e-08 1 139 77)" stroke="#3DB28F" stroke-opacity="0.15"/>
<rect x="-0.683013" y="0.183013" width="34.916" height="34.916" transform="matrix(-0.866025 -0.5 -0.5 0.866025 286.224 109.672)" stroke="#3DB28F" stroke-opacity="0.15"/>
<path d="M35.84 45.13C36.944 45.13 37.928 45.34 38.792 45.76C39.668 46.168 40.376 46.75 40.916 47.506C41.468 48.262 41.834 49.144 42.014 50.152H37.802C37.61 49.732 37.334 49.408 36.974 49.18C36.626 48.94 36.224 48.82 35.768 48.82C35.096 48.82 34.562 49.072 34.166 49.576C33.782 50.08 33.59 50.758 33.59 51.61C33.59 52.462 33.782 53.14 34.166 53.644C34.562 54.148 35.096 54.4 35.768 54.4C36.224 54.4 36.626 54.286 36.974 54.058C37.334 53.818 37.61 53.488 37.802 53.068H42.014C41.834 54.076 41.468 54.958 40.916 55.714C40.376 56.47 39.668 57.058 38.792 57.478C37.928 57.886 36.944 58.09 35.84 58.09C34.556 58.09 33.44 57.82 32.492 57.28C31.544 56.728 30.812 55.96 30.296 54.976C29.792 53.992 29.54 52.87 29.54 51.61C29.54 50.35 29.792 49.228 30.296 48.244C30.812 47.26 31.544 46.498 32.492 45.958C33.44 45.406 34.556 45.13 35.84 45.13ZM51.6247 56.074H47.3767L46.7467 58H42.5527L47.2147 45.256H51.8227L56.4667 58H52.2547L51.6247 56.074ZM50.6527 53.068L49.5007 49.522L48.3487 53.068H50.6527ZM67.2206 54.238C67.2206 54.97 67.0286 55.63 66.6446 56.218C66.2726 56.806 65.7266 57.274 65.0066 57.622C64.2866 57.958 63.4286 58.126 62.4326 58.126C60.9086 58.126 59.6486 57.772 58.6526 57.064C57.6686 56.344 57.1346 55.294 57.0506 53.914H61.2986C61.3586 54.646 61.6826 55.012 62.2706 55.012C62.4746 55.012 62.6366 54.958 62.7566 54.85C62.8886 54.742 62.9546 54.586 62.9546 54.382C62.9546 54.082 62.7986 53.848 62.4866 53.68C62.1866 53.5 61.6946 53.296 61.0106 53.068C60.2066 52.804 59.5346 52.534 58.9946 52.258C58.4666 51.982 58.0046 51.574 57.6086 51.034C57.2126 50.494 57.0146 49.792 57.0146 48.928C57.0146 48.1 57.2246 47.398 57.6446 46.822C58.0766 46.234 58.6586 45.79 59.3906 45.49C60.1346 45.19 60.9686 45.04 61.8926 45.04C63.4166 45.04 64.6286 45.394 65.5286 46.102C66.4286 46.81 66.9206 47.83 67.0046 49.162H62.7026C62.6426 48.49 62.3666 48.154 61.8746 48.154C61.7066 48.154 61.5686 48.208 61.4606 48.316C61.3526 48.412 61.2986 48.562 61.2986 48.766C61.2986 49.042 61.4486 49.27 61.7486 49.45C62.0606 49.618 62.5406 49.816 63.1886 50.044C64.0046 50.332 64.6766 50.62 65.2046 50.908C65.7446 51.184 66.2126 51.598 66.6086 52.15C67.0166 52.69 67.2206 53.386 67.2206 54.238ZM80.4146 45.256V58H76.4186V53.032H72.6206V58H68.6246V45.256H72.6206V49.846H76.4186V45.256H80.4146ZM91.4811 45.04C92.6811 45.04 93.7791 45.322 94.7751 45.886C95.7711 46.438 96.5571 47.212 97.1331 48.208C97.7211 49.204 98.0151 50.326 98.0151 51.574C98.0151 52.822 97.7211 53.944 97.1331 54.94C96.5571 55.936 95.7651 56.716 94.7571 57.28C93.7611 57.844 92.6691 58.126 91.4811 58.126C90.2811 58.126 89.1771 57.844 88.1691 57.28C87.1731 56.716 86.3811 55.936 85.7931 54.94C85.2051 53.944 84.9111 52.822 84.9111 51.574C84.9111 50.326 85.2051 49.204 85.7931 48.208C86.3811 47.212 87.1731 46.438 88.1691 45.886C89.1771 45.322 90.2811 45.04 91.4811 45.04ZM91.4811 48.73C90.6771 48.73 90.0591 48.988 89.6271 49.504C89.1951 50.008 88.9791 50.698 88.9791 51.574C88.9791 52.438 89.1951 53.128 89.6271 53.644C90.0591 54.148 90.6771 54.4 91.4811 54.4C92.2731 54.4 92.8851 54.148 93.3171 53.644C93.7491 53.128 93.9651 52.438 93.9651 51.574C93.9651 50.698 93.7491 50.008 93.3171 49.504C92.8851 48.988 92.2731 48.73 91.4811 48.73ZM111.679 58H107.683L103.453 51.592V58H99.4566V45.256H103.453L107.683 51.772V45.256H111.679V58ZM41.834 67.592C41.834 68.804 41.564 69.896 41.024 70.868C40.484 71.84 39.71 72.608 38.702 73.172C37.706 73.724 36.542 74 35.21 74H29.9V61.256H35.21C36.542 61.256 37.706 61.526 38.702 62.066C39.71 62.606 40.484 63.356 41.024 64.316C41.564 65.276 41.834 66.368 41.834 67.592ZM34.85 70.436C35.75 70.436 36.464 70.19 36.992 69.698C37.52 69.206 37.784 68.504 37.784 67.592C37.784 66.68 37.52 65.978 36.992 65.486C36.464 64.994 35.75 64.748 34.85 64.748H33.896V70.436H34.85ZM47.273 64.424V66.008H51.233V69.014H47.273V70.814H51.773V74H43.277V61.256H51.773V64.424H47.273ZM57.2749 70.976H61.1269V74H53.2789V61.256H57.2749V70.976ZM66.3804 61.256V74H62.3844V61.256H66.3804ZM71.5332 61.256L74.1612 70.022L76.7712 61.256H81.0192L76.7352 74H71.5692L67.2852 61.256H71.5332ZM85.9097 64.424V66.008H89.8697V69.014H85.9097V70.814H90.4097V74H81.9137V61.256H90.4097V64.424H85.9097ZM98.3236 74L95.9116 69.428V74H91.9156V61.256H97.8556C98.8876 61.256 99.7696 61.442 100.502 61.814C101.234 62.174 101.78 62.672 102.14 63.308C102.512 63.932 102.698 64.64 102.698 65.432C102.698 66.284 102.458 67.04 101.978 67.7C101.51 68.36 100.832 68.834 99.9436 69.122L102.716 74H98.3236ZM95.9116 66.764H97.4956C97.8796 66.764 98.1676 66.68 98.3596 66.512C98.5516 66.332 98.6476 66.056 98.6476 65.684C98.6476 65.348 98.5456 65.084 98.3416 64.892C98.1496 64.7 97.8676 64.604 97.4956 64.604H95.9116V66.764ZM116.214 61.256L111.642 70.13V74H107.646V70.13L103.074 61.256H107.646L109.68 65.774L111.714 61.256H116.214ZM38.072 88.074H33.824L33.194 90H29L33.662 77.256H38.27L42.914 90H38.702L38.072 88.074ZM37.1 85.068L35.948 81.522L34.796 85.068H37.1ZM47.1699 77.256L49.7979 86.022L52.4079 77.256H56.6559L52.3719 90H47.2059L42.9219 77.256H47.1699ZM65.7224 88.074H61.4744L60.8444 90H56.6504L61.3124 77.256H65.9204L70.5644 90H66.3524L65.7224 88.074ZM64.7504 85.068L63.5984 81.522L62.4464 85.068H64.7504ZM75.4683 77.256V90H71.4723V77.256H75.4683ZM81.269 86.976H85.121V90H77.273V77.256H81.269V86.976ZM94.5505 88.074H90.3025L89.6725 90H85.4785L90.1405 77.256H94.7485L99.3925 90H95.1805L94.5505 88.074ZM93.5785 85.068L92.4265 81.522L91.2745 85.068H93.5785ZM108.832 83.466C109.6 83.646 110.194 84.018 110.614 84.582C111.046 85.134 111.262 85.776 111.262 86.508C111.262 87.624 110.89 88.488 110.146 89.1C109.414 89.7 108.358 90 106.978 90H100.3V77.256H106.798C108.094 77.256 109.114 77.538 109.858 78.102C110.602 78.666 110.974 79.488 110.974 80.568C110.974 81.312 110.776 81.942 110.38 82.458C109.996 82.962 109.48 83.298 108.832 83.466ZM104.296 82.224H105.844C106.204 82.224 106.468 82.152 106.636 82.008C106.816 81.864 106.906 81.642 106.906 81.342C106.906 81.03 106.816 80.802 106.636 80.658C106.468 80.502 106.204 80.424 105.844 80.424H104.296V82.224ZM106.114 86.796C106.474 86.796 106.738 86.73 106.906 86.598C107.086 86.454 107.176 86.226 107.176 85.914C107.176 85.302 106.822 84.996 106.114 84.996H104.296V86.796H106.114ZM116.601 86.976H120.453V90H112.605V77.256H116.601V86.976ZM125.707 80.424V82.008H129.667V85.014H125.707V86.814H130.207V90H121.711V77.256H130.207V80.424H125.707Z" fill="#3DB38F"/>
<path d="M31.168 96.288C31.6907 96.288 32.16 96.4107 32.576 96.656C32.9973 96.9013 33.328 97.2453 33.568 97.688C33.808 98.1253 33.928 98.6213 33.928 99.176C33.928 99.7307 33.808 100.229 33.568 100.672C33.328 101.109 32.9973 101.451 32.576 101.696C32.16 101.941 31.6907 102.064 31.168 102.064C30.6453 102.064 30.1707 101.941 29.744 101.696C29.3227 101.451 28.992 101.109 28.752 100.672C28.512 100.229 28.392 99.7307 28.392 99.176C28.392 98.6213 28.512 98.1253 28.752 97.688C28.992 97.2453 29.3227 96.9013 29.744 96.656C30.1707 96.4107 30.6453 96.288 31.168 96.288ZM31.168 96.968C30.7787 96.968 30.4293 97.0587 30.12 97.24C29.816 97.416 29.576 97.672 29.4 98.008C29.2293 98.3387 29.144 98.728 29.144 99.176C29.144 99.6187 29.2293 100.008 29.4 100.344C29.576 100.68 29.816 100.939 30.12 101.12C30.4293 101.296 30.7787 101.384 31.168 101.384C31.552 101.384 31.896 101.293 32.2 101.112C32.5093 100.931 32.7493 100.675 32.92 100.344C33.096 100.008 33.184 99.6187 33.184 99.176C33.184 98.728 33.096 98.3387 32.92 98.008C32.7493 97.672 32.5093 97.416 32.2 97.24C31.896 97.0587 31.552 96.968 31.168 96.968ZM35.8801 98.496C36.0241 98.192 36.2348 97.9573 36.5121 97.792C36.7895 97.6213 37.1201 97.536 37.5041 97.536V98.328H37.2801C36.8695 98.328 36.5335 98.4347 36.2721 98.648C36.0108 98.856 35.8801 99.2027 35.8801 99.688V102H35.1521V97.608H35.8801V98.496ZM40.2624 97.552C40.6891 97.552 41.0491 97.6587 41.3424 97.872C41.6411 98.0853 41.8491 98.3707 41.9664 98.728V96.08H42.6944V102H41.9664V100.88C41.8491 101.237 41.6411 101.523 41.3424 101.736C41.0491 101.949 40.6891 102.056 40.2624 102.056C39.8731 102.056 39.5264 101.965 39.2224 101.784C38.9184 101.603 38.6784 101.344 38.5024 101.008C38.3318 100.667 38.2464 100.267 38.2464 99.808C38.2464 99.3493 38.3318 98.9493 38.5024 98.608C38.6784 98.2667 38.9184 98.0053 39.2224 97.824C39.5264 97.6427 39.8731 97.552 40.2624 97.552ZM40.4704 98.2C40.0224 98.2 39.6624 98.344 39.3904 98.632C39.1238 98.9147 38.9904 99.3067 38.9904 99.808C38.9904 100.309 39.1238 100.704 39.3904 100.992C39.6624 101.275 40.0224 101.416 40.4704 101.416C40.7584 101.416 41.0144 101.349 41.2384 101.216C41.4678 101.083 41.6464 100.896 41.7744 100.656C41.9024 100.411 41.9664 100.128 41.9664 99.808C41.9664 99.488 41.9024 99.2053 41.7744 98.96C41.6464 98.7147 41.4678 98.528 41.2384 98.4C41.0144 98.2667 40.7584 98.2 40.4704 98.2ZM48.1331 99.56C48.1331 99.7147 48.1224 99.848 48.1011 99.96H44.5891C44.6051 100.461 44.7464 100.837 45.0131 101.088C45.2851 101.339 45.6157 101.464 46.0051 101.464C46.3571 101.464 46.6504 101.376 46.8851 101.2C47.1251 101.019 47.2717 100.779 47.3251 100.48H48.1011C48.0477 100.784 47.9277 101.056 47.7411 101.296C47.5597 101.536 47.3224 101.723 47.0291 101.856C46.7357 101.989 46.4051 102.056 46.0371 102.056C45.6157 102.056 45.2424 101.965 44.9171 101.784C44.5917 101.603 44.3357 101.344 44.1491 101.008C43.9677 100.667 43.8771 100.267 43.8771 99.808C43.8771 99.3493 43.9677 98.9493 44.1491 98.608C44.3357 98.2667 44.5917 98.0053 44.9171 97.824C45.2424 97.6427 45.6157 97.552 46.0371 97.552C46.4637 97.552 46.8344 97.6427 47.1491 97.824C47.4691 98.0053 47.7117 98.248 47.8771 98.552C48.0477 98.856 48.1331 99.192 48.1331 99.56ZM47.3971 99.608C47.4131 99.2827 47.3597 99.0107 47.2371 98.792C47.1144 98.5733 46.9464 98.4107 46.7331 98.304C46.5197 98.1973 46.2877 98.144 46.0371 98.144C45.6371 98.144 45.3011 98.2693 45.0291 98.52C44.7571 98.7653 44.6104 99.128 44.5891 99.608H47.3971ZM50.0532 98.496C50.1972 98.192 50.4079 97.9573 50.6852 97.792C50.9626 97.6213 51.2932 97.536 51.6772 97.536V98.328H51.4532C51.0426 98.328 50.7066 98.4347 50.4452 98.648C50.1839 98.856 50.0532 99.2027 50.0532 99.688V102H49.3252V97.608H50.0532V98.496ZM59.2361 102H58.5081L55.5801 97.544V102H54.8521V96.36H55.5801L58.5081 100.824V96.36H59.2361V102ZM62.6388 97.552C63.0601 97.552 63.4361 97.6427 63.7668 97.824C64.1028 98.0053 64.3641 98.2667 64.5508 98.608C64.7428 98.9493 64.8388 99.3493 64.8388 99.808C64.8388 100.267 64.7428 100.667 64.5508 101.008C64.3641 101.344 64.1028 101.603 63.7668 101.784C63.4361 101.965 63.0601 102.056 62.6388 102.056C62.2175 102.056 61.8388 101.965 61.5028 101.784C61.1721 101.603 60.9108 101.344 60.7188 101.008C60.5268 100.667 60.4308 100.267 60.4308 99.808C60.4308 99.3493 60.5268 98.9493 60.7188 98.608C60.9108 98.2667 61.1721 98.0053 61.5028 97.824C61.8388 97.6427 62.2175 97.552 62.6388 97.552ZM62.6388 98.192C62.3775 98.192 62.1348 98.2507 61.9108 98.368C61.6921 98.4853 61.5135 98.6667 61.3748 98.912C61.2415 99.152 61.1748 99.4507 61.1748 99.808C61.1748 100.16 61.2415 100.459 61.3748 100.704C61.5135 100.944 61.6921 101.123 61.9108 101.24C62.1348 101.357 62.3775 101.416 62.6388 101.416C62.9001 101.416 63.1401 101.357 63.3588 101.24C63.5828 101.123 63.7615 100.944 63.8948 100.704C64.0335 100.459 64.1028 100.16 64.1028 99.808C64.1028 99.4507 64.0335 99.152 63.8948 98.912C63.7615 98.6667 63.5828 98.4853 63.3588 98.368C63.1401 98.2507 62.9001 98.192 62.6388 98.192ZM72.0594 97.608L70.7954 102H70.0114L68.8034 98.424L67.5874 102H66.7954L65.5474 97.608H66.2834L67.2194 101.304L68.4354 97.608H69.1954L70.4194 101.296L71.3634 97.608H72.0594ZM73.5144 101.144V102H72.6344V101.144H73.5144ZM77.5301 99.728V102H76.8021V96.36H78.5941C79.2395 96.36 79.7221 96.512 80.0421 96.816C80.3621 97.1147 80.5221 97.5253 80.5221 98.048C80.5221 98.576 80.3568 98.9893 80.0261 99.288C79.6955 99.5813 79.2181 99.728 78.5941 99.728H77.5301ZM78.5301 99.12C78.9728 99.12 79.2901 99.0267 79.4821 98.84C79.6795 98.6533 79.7781 98.3893 79.7781 98.048C79.7781 97.696 79.6795 97.4293 79.4821 97.248C79.2901 97.0613 78.9728 96.968 78.5301 96.968H77.5301V99.12H78.5301ZM83.4124 97.552C83.8391 97.552 84.1991 97.6587 84.4924 97.872C84.7911 98.0853 84.9991 98.3707 85.1164 98.728V97.608H85.8444V102H85.1164V100.88C84.9991 101.237 84.7911 101.523 84.4924 101.736C84.1991 101.949 83.8391 102.056 83.4124 102.056C83.0231 102.056 82.6764 101.965 82.3724 101.784C82.0684 101.603 81.8284 101.344 81.6524 101.008C81.4818 100.667 81.3964 100.267 81.3964 99.808C81.3964 99.3493 81.4818 98.9493 81.6524 98.608C81.8284 98.2667 82.0684 98.0053 82.3724 97.824C82.6764 97.6427 83.0231 97.552 83.4124 97.552ZM83.6204 98.2C83.1724 98.2 82.8124 98.344 82.5404 98.632C82.2738 98.9147 82.1404 99.3067 82.1404 99.808C82.1404 100.309 82.2738 100.704 82.5404 100.992C82.8124 101.275 83.1724 101.416 83.6204 101.416C83.9084 101.416 84.1644 101.349 84.3884 101.216C84.6178 101.083 84.7964 100.896 84.9244 100.656C85.0524 100.411 85.1164 100.128 85.1164 99.808C85.1164 99.488 85.0524 99.2053 84.9244 98.96C84.7964 98.7147 84.6178 98.528 84.3884 98.4C84.1644 98.2667 83.9084 98.2 83.6204 98.2ZM87.5471 97.608L88.9711 101.064L90.2911 97.608H91.0991L88.4911 104.08H87.6671L88.5791 101.928L86.7311 97.608H87.5471ZM96.2151 97.552C96.6364 97.552 97.0124 97.6427 97.3431 97.824C97.6791 98.0053 97.9404 98.2667 98.1271 98.608C98.3191 98.9493 98.4151 99.3493 98.4151 99.808C98.4151 100.267 98.3191 100.667 98.1271 101.008C97.9404 101.344 97.6791 101.603 97.3431 101.784C97.0124 101.965 96.6364 102.056 96.2151 102.056C95.7937 102.056 95.4151 101.965 95.0791 101.784C94.7484 101.603 94.4871 101.344 94.2951 101.008C94.1031 100.667 94.0071 100.267 94.0071 99.808C94.0071 99.3493 94.1031 98.9493 94.2951 98.608C94.4871 98.2667 94.7484 98.0053 95.0791 97.824C95.4151 97.6427 95.7937 97.552 96.2151 97.552ZM96.2151 98.192C95.9537 98.192 95.7111 98.2507 95.4871 98.368C95.2684 98.4853 95.0897 98.6667 94.9511 98.912C94.8177 99.152 94.7511 99.4507 94.7511 99.808C94.7511 100.16 94.8177 100.459 94.9511 100.704C95.0897 100.944 95.2684 101.123 95.4871 101.24C95.7111 101.357 95.9537 101.416 96.2151 101.416C96.4764 101.416 96.7164 101.357 96.9351 101.24C97.1591 101.123 97.3377 100.944 97.4711 100.704C97.6097 100.459 97.6791 100.16 97.6791 99.808C97.6791 99.4507 97.6097 99.152 97.4711 98.912C97.3377 98.6667 97.1591 98.4853 96.9351 98.368C96.7164 98.2507 96.4764 98.192 96.2151 98.192ZM101.916 97.536C102.428 97.536 102.841 97.7013 103.156 98.032C103.47 98.3573 103.628 98.8293 103.628 99.448V102H102.9V99.512C102.9 99.0747 102.788 98.7387 102.564 98.504C102.34 98.2693 102.036 98.152 101.652 98.152C101.252 98.152 100.932 98.2827 100.692 98.544C100.452 98.8 100.332 99.176 100.332 99.672V102H99.6037V97.608H100.332V98.648C100.444 98.2907 100.641 98.016 100.924 97.824C101.212 97.632 101.542 97.536 101.916 97.536ZM109.001 97.552C109.428 97.552 109.788 97.6587 110.081 97.872C110.38 98.0853 110.588 98.3707 110.705 98.728V96.08H111.433V102H110.705V100.88C110.588 101.237 110.38 101.523 110.081 101.736C109.788 101.949 109.428 102.056 109.001 102.056C108.612 102.056 108.265 101.965 107.961 101.784C107.657 101.603 107.417 101.344 107.241 101.008C107.07 100.667 106.985 100.267 106.985 99.808C106.985 99.3493 107.07 98.9493 107.241 98.608C107.417 98.2667 107.657 98.0053 107.961 97.824C108.265 97.6427 108.612 97.552 109.001 97.552ZM109.209 98.2C108.761 98.2 108.401 98.344 108.129 98.632C107.862 98.9147 107.729 99.3067 107.729 99.808C107.729 100.309 107.862 100.704 108.129 100.992C108.401 101.275 108.761 101.416 109.209 101.416C109.497 101.416 109.753 101.349 109.977 101.216C110.206 101.083 110.385 100.896 110.513 100.656C110.641 100.411 110.705 100.128 110.705 99.808C110.705 99.488 110.641 99.2053 110.513 98.96C110.385 98.7147 110.206 98.528 109.977 98.4C109.753 98.2667 109.497 98.2 109.209 98.2ZM116.871 99.56C116.871 99.7147 116.861 99.848 116.839 99.96H113.327C113.343 100.461 113.485 100.837 113.751 101.088C114.023 101.339 114.354 101.464 114.743 101.464C115.095 101.464 115.389 101.376 115.623 101.2C115.863 101.019 116.01 100.779 116.063 100.48H116.839C116.786 100.784 116.666 101.056 116.479 101.296C116.298 101.536 116.061 101.723 115.767 101.856C115.474 101.989 115.143 102.056 114.775 102.056C114.354 102.056 113.981 101.965 113.655 101.784C113.33 101.603 113.074 101.344 112.887 101.008C112.706 100.667 112.615 100.267 112.615 99.808C112.615 99.3493 112.706 98.9493 112.887 98.608C113.074 98.2667 113.33 98.0053 113.655 97.824C113.981 97.6427 114.354 97.552 114.775 97.552C115.202 97.552 115.573 97.6427 115.887 97.824C116.207 98.0053 116.45 98.248 116.615 98.552C116.786 98.856 116.871 99.192 116.871 99.56ZM116.135 99.608C116.151 99.2827 116.098 99.0107 115.975 98.792C115.853 98.5733 115.685 98.4107 115.471 98.304C115.258 98.1973 115.026 98.144 114.775 98.144C114.375 98.144 114.039 98.2693 113.767 98.52C113.495 98.7653 113.349 99.128 113.327 99.608H116.135ZM118.792 96.08V102H118.064V96.08H118.792ZM120.074 96.32C120.074 96.1867 120.119 96.08 120.21 96C120.301 95.9147 120.421 95.872 120.57 95.872C120.719 95.872 120.839 95.9147 120.93 96C121.021 96.08 121.066 96.1867 121.066 96.32C121.066 96.4533 121.021 96.5627 120.93 96.648C120.839 96.728 120.719 96.768 120.57 96.768C120.421 96.768 120.301 96.728 120.21 96.648C120.119 96.5627 120.074 96.4533 120.074 96.32ZM120.93 97.608V102H120.202V97.608H120.93ZM124.045 101.224L125.405 97.608H126.189L124.469 102H123.605L121.885 97.608H122.669L124.045 101.224ZM131.183 99.56C131.183 99.7147 131.172 99.848 131.151 99.96H127.639C127.655 100.461 127.796 100.837 128.063 101.088C128.335 101.339 128.666 101.464 129.055 101.464C129.407 101.464 129.7 101.376 129.935 101.2C130.175 101.019 130.322 100.779 130.375 100.48H131.151C131.098 100.784 130.978 101.056 130.791 101.296C130.61 101.536 130.372 101.723 130.079 101.856C129.786 101.989 129.455 102.056 129.087 102.056C128.666 102.056 128.292 101.965 127.967 101.784C127.642 101.603 127.386 101.344 127.199 101.008C127.018 100.667 126.927 100.267 126.927 99.808C126.927 99.3493 127.018 98.9493 127.199 98.608C127.386 98.2667 127.642 98.0053 127.967 97.824C128.292 97.6427 128.666 97.552 129.087 97.552C129.514 97.552 129.884 97.6427 130.199 97.824C130.519 98.0053 130.762 98.248 130.927 98.552C131.098 98.856 131.183 99.192 131.183 99.56ZM130.447 99.608C130.463 99.2827 130.41 99.0107 130.287 98.792C130.164 98.5733 129.996 98.4107 129.783 98.304C129.57 98.1973 129.338 98.144 129.087 98.144C128.687 98.144 128.351 98.2693 128.079 98.52C127.807 98.7653 127.66 99.128 127.639 99.608H130.447ZM133.103 98.496C133.247 98.192 133.458 97.9573 133.735 97.792C134.013 97.6213 134.343 97.536 134.727 97.536V98.328H134.503C134.093 98.328 133.757 98.4347 133.495 98.648C133.234 98.856 133.103 99.2027 133.103 99.688V102H132.375V97.608H133.103V98.496ZM135.99 97.608L137.414 101.064L138.734 97.608H139.542L136.934 104.08H136.11L137.022 101.928L135.174 97.608H135.99Z" fill="#63A893" fill-opacity="0.73"/>
<path d="M233.878 47.122L233.873 47.1582L233.858 47.2626L232.339 58.1832L223.038 61.6022L222.892 61.5324L217.685 59.0548L214.992 48.7041L214.808 47.9936L214.864 47.972L226.384 43.636L233.871 47.1179L233.878 47.122Z" fill="#3DB28F"/>
<path d="M222.892 61.5324L217.685 59.0548L214.808 47.9936L214.864 47.972L222.369 51.1442L222.892 61.5324Z" fill="#3DB28F"/>
<path opacity="0.2" d="M223.023 61.4062L219.062 53.8013L219.571 51.6454L217.175 48.8188L216.971 48.9924L219.279 51.7156L217.555 59.0238L217.815 59.0857L218.968 54.2003L222.785 61.5302L223.023 61.4062Z" fill="black"/>
<path d="M233.878 47.256L233.858 47.2626L222.369 51.2784L214.992 48.7041L214.808 47.9936L214.864 47.972L226.384 43.636L233.871 47.1179L233.873 47.1582L233.878 47.256Z" fill="#3F3D56"/>
<path d="M222.57 51.4794L220.228 49.6695L220.763 47.6583L227.454 45.2448L232.005 45.513L233.811 47.055L233.945 47.4571L222.57 51.4794Z" fill="#3DB28F"/>
<path d="M214.941 47.9935L220.228 47.7923L223.091 46.8186L227.556 45.2448L228.391 44.0383L226.308 43.6646L214.941 47.9935Z" fill="#3DB28F"/>
<path d="M225.473 45.836L222.717 46.8051L222.806 47.0581L225.562 46.089L225.473 45.836Z" fill="#CCCCCC"/>
<path d="M189.168 30.1561L187.876 36.6287L193.906 41.1597L196.706 32.7451L189.168 30.1561Z" fill="#9F616A"/>
<path d="M194.014 36.0894C197.225 36.0894 199.829 33.4812 199.829 30.2639C199.829 27.0466 197.225 24.4384 194.014 24.4384C190.802 24.4384 188.199 27.0466 188.199 30.2639C188.199 33.4812 190.802 36.0894 194.014 36.0894Z" fill="#9F616A"/>
<path d="M181.415 74.4028C181.442 76.2823 189.612 97.1997 188.478 99.9234C186.69 101.755 182.843 111.502 181.2 114.103C180.985 114.102 179.908 117.339 179.908 117.339C179.908 117.339 182.492 121.438 185.292 119.712C188.812 111.417 197.628 106.791 197.784 95.9794C198.21 99.3947 199.466 121.317 199.466 121.317C199.466 121.317 199.225 121.419 204.649 121.94C205.491 109.217 208.932 87.5702 201.228 73.9711C198.859 72.8925 181.415 74.4028 181.415 74.4028Z" fill="#2F2E41"/>
<path d="M199.466 120.89C199.214 121.375 197.408 125.853 199.051 126.302C200.946 126.819 202.783 126.094 202.783 126.094C202.783 126.094 206.1 127.132 208.13 125.813C209.078 124.863 208.862 124 208.41 123.375C208.18 123.067 207.886 122.812 207.548 122.63C207.21 122.447 206.837 122.341 206.453 122.318C205.423 122.245 205.096 122.053 204.978 121.58C204.806 120.89 199.466 120.89 199.466 120.89Z" fill="#2F2E41"/>
<path d="M181.745 116.98C181.745 116.98 177.117 118.444 178.091 120.153C178.724 121.212 179.648 122.065 180.753 122.612C180.753 122.612 181.718 126.599 184.398 126.599C185.738 126.599 186.194 125.836 186.316 125.073C186.371 124.693 186.343 124.305 186.233 123.936C186.123 123.568 185.933 123.228 185.678 122.94C185.002 122.158 184.906 121.791 185.156 121.373C185.521 120.763 181.745 116.98 181.745 116.98Z" fill="#2F2E41"/>
<path d="M202.306 75.0343C202.306 75.0343 201.444 76.7603 197.998 76.1123C194.552 75.4664 180.985 76.1123 180.985 76.1123C180.985 76.1123 181.738 60.6862 180.015 51.4082C178.292 42.1301 185.076 36.8441 185.076 36.8441L187.23 34.686C189.384 34.4721 193.933 41.1684 193.933 41.1684C195.429 41.4198 196.827 47.7942 198.019 53.8258C198.089 54.1706 198.156 54.5112 198.222 54.8519C198.771 57.6642 199.536 60.7943 199.995 63.6045C200.028 63.8039 200.059 64.0012 200.088 64.1985C200.633 67.8477 201.373 71.4649 202.306 75.0343Z" fill="#E6E6E6"/>
<path d="M187.211 26.6366C187.211 26.6366 186.124 24.2404 188.951 23.1513C188.951 23.1513 191.343 19.2303 196.126 21.8443C196.126 21.8443 199.388 23.1513 199.388 26.6366C199.388 30.1219 200.475 30.7754 200.475 30.7754C200.475 30.7754 198.856 29.1115 198.421 27.8045C197.986 26.4975 194.604 26.201 193.299 27.508C191.995 28.815 188.733 28.5971 188.733 28.5971L188.951 33.3895C188.951 33.3895 187.864 30.5576 187.429 30.5576C186.994 30.5576 186.559 26.6366 187.211 26.6366Z" fill="#2F2E41"/>
<path opacity="0.2" d="M199.995 63.6045C194.857 60.8068 186.535 54.6712 183.851 51.3522C180.312 46.98 184.172 43.6568 184.172 43.6568C188.548 40.8902 193.781 50.3822 193.781 50.3822L198.019 53.8259C198.089 54.1707 198.156 54.5113 198.222 54.8519C198.771 57.6642 199.536 60.7943 199.995 63.6045Z" fill="black"/>
<path d="M215.331 60.3804C215.331 60.3804 222.968 63.4867 224.225 59.9948C225.483 56.5029 218.195 56.5628 218.195 56.5628L215.335 56.9689L215.331 60.3804Z" fill="#9F616A"/>
<path d="M183.193 42.2358C183.193 42.2358 179.335 45.561 182.871 49.9317C186.407 54.3023 202.66 63.6409 202.66 63.6409L213.246 60.7737L216.242 61.323L216.807 55.6879L212.393 56.1195L201.19 53.7296L194.045 47.922C194.045 47.922 187.568 39.4707 183.193 42.2358Z" fill="#E6E6E6"/>
<path opacity="0.2" d="M197.249 82.2931L197.924 98.0953L196.213 82.2931H197.249Z" fill="black"/>
<path d="M237.942 70.9893L231.814 72.4118C231.34 72.5218 230.842 72.4424 230.425 72.1903C230.009 71.9382 229.707 71.5333 229.584 71.0617C229.512 70.7882 229.503 70.5021 229.558 70.2247C229.613 69.9473 229.729 69.686 229.899 69.4602C230.069 69.2344 230.287 69.05 230.538 68.9209C230.789 68.7918 231.066 68.7214 231.349 68.7148L237.268 68.5769L237.942 70.9893Z" fill="#FFB9B9"/>
<path d="M237.291 71.8902L235.93 67.7997L244.09 65.0076L241.924 45.9019C245.823 46.6121 247.679 49.6837 247.505 53.6501L248.56 66.6872L237.291 71.8902Z" fill="#3F3D56"/>
<path d="M242.929 41.6897H256.259V35.0483C256.264 33.2547 255.562 31.5315 254.307 30.2528C253.694 29.6228 252.96 29.1224 252.151 28.7812C251.341 28.4399 250.472 28.2647 249.593 28.266C247.839 28.2692 246.157 28.964 244.91 30.1999C243.664 31.4359 242.953 33.1138 242.931 34.8709C242.93 34.9318 242.929 34.9895 242.929 35.0483L242.929 41.6897Z" fill="#2F2E41"/>
<path d="M261.833 119.735L257.572 119.245L252.472 84.7432L241.924 119.385L237.314 119.525L242.553 76.905L241.784 67.1772L254.847 63.0481C264.099 69.5187 263.908 92.3732 261.833 119.735Z" fill="#2F2E41"/>
<path d="M248.421 40.3733C251.198 40.3733 253.45 38.1173 253.45 35.3344C253.45 32.5515 251.198 30.2956 248.421 30.2956C245.643 30.2956 243.391 32.5515 243.391 35.3344C243.391 38.1173 245.643 40.3733 248.421 40.3733Z" fill="#FFB9B9"/>
<path d="M253.45 44.4323L244.928 46.6718C246.364 43.9054 246.823 41.323 246.046 38.9736L252.053 37.9938C251.667 40.2403 252.168 42.5492 253.45 44.4323Z" fill="#FFB9B9"/>
<path d="M256.314 64.9377C251.534 67.9832 245.966 71.4818 241.854 68.087L239.898 58.5691C238.344 57.1819 239.033 52.9013 241.135 46.7998C241.268 46.4125 241.488 46.0608 241.777 45.7712C242.067 45.4816 242.418 45.2619 242.805 45.1286L246.046 44.0124C247.482 45.2225 249.836 44.5008 252.612 42.8927L255.825 43.7325L257.222 54.2301C255.206 57.2573 255.558 61.2882 256.314 64.9377Z" fill="#3F3D56"/>
<path d="M252.332 69.0298L246.204 70.4523C245.73 70.5623 245.232 70.4828 244.815 70.2308C244.399 69.9787 244.097 69.5738 243.974 69.1022C243.902 68.8287 243.893 68.5426 243.948 68.2652C244.003 67.9878 244.119 67.7264 244.289 67.5006C244.459 67.2748 244.678 67.0905 244.929 66.9614C245.18 66.8323 245.457 66.7618 245.739 66.7553L251.658 66.6173L252.332 69.0298Z" fill="#FFB9B9"/>
<path d="M261.092 126.332C260.376 126.659 259.777 124.631 259.173 125.225C257.485 126.887 253.434 126.515 253.434 126.515C253.298 126.471 253.172 126.4 253.064 126.306C252.957 126.212 252.869 126.097 252.807 125.969C252.745 125.84 252.709 125.7 252.703 125.557C252.696 125.414 252.718 125.271 252.769 125.137C252.829 124.976 252.927 124.833 253.054 124.719C253.182 124.605 253.335 124.524 253.501 124.482L255.297 124.032L258.116 119.065L261.189 118.675L261.267 118.802C261.861 119.761 262.244 120.836 262.39 121.956C262.537 123.075 262.443 124.213 262.116 125.293C261.86 126.113 261.513 126.139 261.092 126.332Z" fill="#2F2E41"/>
<path d="M240.834 126.332C240.119 126.659 239.519 124.631 238.915 125.225C237.227 126.887 233.176 126.515 233.176 126.515C233.04 126.471 232.914 126.4 232.806 126.306C232.699 126.212 232.611 126.097 232.549 125.969C232.487 125.84 232.451 125.7 232.445 125.557C232.438 125.414 232.461 125.271 232.511 125.137C232.571 124.976 232.669 124.833 232.796 124.719C232.924 124.605 233.077 124.524 233.243 124.482L235.039 124.032L237.858 119.065L240.931 118.675L241.009 118.802C241.603 119.761 241.986 120.836 242.133 121.956C242.279 123.075 242.185 124.213 241.858 125.293C241.603 126.113 241.255 126.139 240.834 126.332Z" fill="#2F2E41"/>
<path d="M254.317 31.1315L253.05 35.1692L242.098 34.9742C242.136 33.5615 242.613 32.1958 243.462 31.0679C244.312 29.94 245.492 29.1062 246.838 28.6829C248.184 28.2597 249.628 28.2682 250.969 28.7071C252.31 29.1461 253.48 29.9937 254.317 31.1315H254.317Z" fill="#2F2E41"/>
<path d="M251.682 69.9306L250.321 65.8401L258.48 63.0481L255.393 43.5284C257.279 43.8718 258.976 44.8878 260.171 46.3884C261.367 47.889 261.979 49.7725 261.895 51.6905L262.95 64.7277L251.682 69.9306Z" fill="#3F3D56"/>
</svg>
