<svg width="187" height="149" viewBox="0 0 187 149" fill="none" xmlns="http://www.w3.org/2000/svg">
<path d="M0 0H187V97L183.244 99.1325C126.241 131.494 56.2344 130.679 0 97V0Z" fill="url(#paint0_linear)"/>
<mask id="mask0" mask-type="alpha" maskUnits="userSpaceOnUse" x="0" y="0" width="187" height="123">
<path d="M0 0H187V97L183.244 99.1325C126.241 131.494 56.2344 130.679 0 97V97V0Z" fill="url(#paint1_linear)"/>
</mask>
<g mask="url(#mask0)">
<path fill-rule="evenodd" clip-rule="evenodd" d="M60.8406 98.5575L68.9747 103.495L64.0375 111.629L55.9034 106.692L60.8406 98.5575ZM69.4588 103.376L64.1559 112.113L55.4193 106.81L60.7222 98.0734L69.4588 103.376Z" fill="white" fill-opacity="0.13"/>
<path fill-rule="evenodd" clip-rule="evenodd" d="M63.945 125.211L61.3553 123.716L59.8601 126.306L57.2704 124.811L55.7753 127.4L53.1093 125.861L53.1974 125.708L55.7108 127.16L57.2059 124.57L59.7956 126.065L61.2908 123.475L63.8805 124.97L65.3757 122.381L68.0417 123.92L67.9536 124.073L65.4402 122.621L63.945 125.211Z" fill="white" fill-opacity="0.13"/>
<path fill-rule="evenodd" clip-rule="evenodd" d="M16.4046 125.172L14.4231 122.452L11.3471 123.817L9.36568 121.097L6.28968 122.461L4.26632 119.684L4.40874 119.58L6.3483 122.243L9.4243 120.878L11.4058 123.598L14.4818 122.233L16.4632 124.953L19.5392 123.588L21.5626 126.366L21.4202 126.469L19.4806 123.807L16.4046 125.172Z" fill="white" fill-opacity="0.13"/>
<path fill-rule="evenodd" clip-rule="evenodd" d="M15.6716 127.02L13.6901 124.3L10.6141 125.665L8.63265 122.945L5.55665 124.31L3.53329 121.532L3.67571 121.428L5.61527 124.091L8.69127 122.726L10.6727 125.446L13.7487 124.081L15.7302 126.801L18.8062 125.436L20.8296 128.214L20.6871 128.318L18.7476 125.655L15.6716 127.02Z" fill="white" fill-opacity="0.13"/>
<path fill-rule="evenodd" clip-rule="evenodd" d="M82.6918 102.622L86.0163 103.144L87.2262 100.004L90.5507 100.526L91.7606 97.3857L95.1554 97.919L95.128 98.093L91.8739 97.5819L90.6639 100.722L87.3395 100.2L86.1295 103.34L82.8051 102.818L81.5951 105.958L78.2004 105.425L78.2277 105.251L81.4819 105.762L82.6918 102.622Z" fill="white" fill-opacity="0.13"/>
<path fill-rule="evenodd" clip-rule="evenodd" d="M84.0089 104.315L87.3333 104.838L88.5433 101.697L91.8677 102.22L93.0777 99.0795L96.4724 99.6127L96.4451 99.7868L93.1909 99.2756L91.981 102.416L88.6565 101.894L87.4466 105.034L84.1221 104.511L82.9122 107.652L79.5174 107.118L79.5448 106.944L82.7989 107.456L84.0089 104.315Z" fill="white" fill-opacity="0.13"/>
<path fill-rule="evenodd" clip-rule="evenodd" d="M81.8108 101.096L85.1352 101.618L86.3452 98.4776L89.6696 98.9999L90.8796 95.8597L94.2743 96.393L94.247 96.5671L90.9928 96.0559L89.7829 99.196L86.4584 98.6738L85.2485 101.814L81.924 101.292L80.7141 104.432L77.3194 103.899L77.3467 103.725L80.6008 104.236L81.8108 101.096Z" fill="white" fill-opacity="0.13"/>
<path fill-rule="evenodd" clip-rule="evenodd" d="M37.6581 127.312C40.8356 127.312 43.4114 124.593 43.4114 121.239C43.4114 117.885 40.8356 115.166 37.6581 115.166C34.4807 115.166 31.9048 117.885 31.9048 121.239C31.9048 124.593 34.4807 127.312 37.6581 127.312ZM37.6581 127.68C41.0282 127.68 43.7601 124.796 43.7601 121.239C43.7601 117.682 41.0282 114.798 37.6581 114.798C34.2881 114.798 31.5562 117.682 31.5562 121.239C31.5562 124.796 34.2881 127.68 37.6581 127.68Z" fill="white" fill-opacity="0.13"/>
<path fill-rule="evenodd" clip-rule="evenodd" d="M49.5231 123.925C48.4142 123.925 47.5152 123.026 47.5152 121.917C47.5152 120.808 48.4142 119.909 49.5231 119.909C50.6321 119.909 51.531 120.808 51.531 121.917C51.531 123.026 50.6321 123.925 49.5231 123.925ZM49.5231 124.29C48.2126 124.29 47.1501 123.227 47.1501 121.917C47.1501 120.606 48.2126 119.544 49.5231 119.544C50.8337 119.544 51.8961 120.606 51.8961 121.917C51.8961 123.227 50.8337 124.29 49.5231 124.29Z" fill="white" fill-opacity="0.13"/>
<path fill-rule="evenodd" clip-rule="evenodd" d="M29.1832 97.4739C26.5685 97.4739 24.4489 95.213 24.4489 92.424C24.4489 89.635 26.5685 87.3741 29.1832 87.3741C31.7979 87.3741 33.9175 89.635 33.9175 92.424C33.9175 95.213 31.7979 97.4739 29.1832 97.4739ZM29.1832 97.848C26.3748 97.848 24.0982 95.4196 24.0982 92.424C24.0982 89.4284 26.3748 87 29.1832 87C31.9915 87 34.2682 89.4284 34.2682 92.424C34.2682 95.4196 31.9915 97.848 29.1832 97.848Z" fill="white" fill-opacity="0.13"/>
<path fill-rule="evenodd" clip-rule="evenodd" d="M57.9981 114.454C64.1679 114.454 69.1694 109.599 69.1694 103.611C69.1694 97.6227 64.1679 92.7682 57.9981 92.7682C51.8284 92.7682 46.8268 97.6227 46.8268 103.611C46.8268 109.599 51.8284 114.454 57.9981 114.454ZM57.9981 114.798C64.3637 114.798 69.5241 109.789 69.5241 103.611C69.5241 97.4326 64.3637 92.424 57.9981 92.424C51.6325 92.424 46.4721 97.4326 46.4721 103.611C46.4721 109.789 51.6325 114.798 57.9981 114.798Z" fill="white" fill-opacity="0.13"/>
<path fill-rule="evenodd" clip-rule="evenodd" d="M29.4402 101.874L12.349 92.0065L2.4814 109.098L19.5726 118.965L29.4402 101.874ZM12.22 91.5251L1.99999 109.227L19.7016 119.447L29.9216 101.745L12.22 91.5251Z" fill="white" fill-opacity="0.13"/>
<path fill-rule="evenodd" clip-rule="evenodd" d="M36.6533 96.8432L42.7309 96.8432L42.7309 102.921L36.6533 102.921L36.6533 96.8432ZM43.0821 96.492L43.0821 103.272L36.3021 103.272L36.3021 96.492L43.0821 96.492Z" fill="white" fill-opacity="0.13"/>
<path fill-rule="evenodd" clip-rule="evenodd" d="M43.3835 112.463L45.4928 112.463L45.4928 115.099L43.3835 115.099L43.3835 112.463ZM45.7941 112.086L45.7941 115.476L43.0821 115.476L43.0821 112.086L45.7941 112.086Z" fill="white" fill-opacity="0.13"/>
<path fill-rule="evenodd" clip-rule="evenodd" d="M87.1674 118.096L97.5186 124.072L91.5424 134.424L81.1912 128.447L87.1674 118.096ZM98 123.943L91.6713 134.905L80.7098 128.576L87.0384 117.615L98 123.943Z" fill="white" fill-opacity="0.13"/>
<g filter="url(#filter0_f)">
<path fill-rule="evenodd" clip-rule="evenodd" d="M68.8406 13.5575L76.9747 18.4946L72.0375 26.6287L63.9034 21.6916L68.8406 13.5575ZM77.4588 18.3762L72.1559 27.1128L63.4193 21.81L68.7222 13.0734L77.4588 18.3762Z" fill="white" fill-opacity="0.09"/>
<path fill-rule="evenodd" clip-rule="evenodd" d="M71.945 40.2111L69.3553 38.716L67.8601 41.3057L65.2704 39.8105L63.7753 42.4002L61.1093 40.861L61.1974 40.7084L63.7108 42.1595L65.2059 39.5698L67.7956 41.065L69.2908 38.4753L71.8805 39.9704L73.3757 37.3807L76.0417 38.92L75.9536 39.0726L73.4402 37.6214L71.945 40.2111Z" fill="white" fill-opacity="0.09"/>
<path fill-rule="evenodd" clip-rule="evenodd" d="M24.4046 40.1717L22.4231 37.4517L19.3471 38.8166L17.3657 36.0966L14.2897 37.4614L12.2663 34.6839L12.4087 34.5802L14.3483 37.2427L17.4243 35.8778L19.4058 38.5978L22.4818 37.2329L24.4632 39.9529L27.5392 38.5881L29.5626 41.3656L29.4202 41.4694L27.4806 38.8069L24.4046 40.1717Z" fill="white" fill-opacity="0.09"/>
<path fill-rule="evenodd" clip-rule="evenodd" d="M23.6716 42.02L21.6901 39.3L18.6141 40.6649L16.6326 37.9449L13.5566 39.3097L11.5333 36.5322L11.6757 36.4285L13.6153 39.091L16.6913 37.7261L18.6727 40.4461L21.7487 39.0812L23.7302 41.8012L26.8062 40.4364L28.8296 43.2139L28.6871 43.3177L26.7476 40.6552L23.6716 42.02Z" fill="white" fill-opacity="0.09"/>
<path fill-rule="evenodd" clip-rule="evenodd" d="M22.9386 43.8683L20.9571 41.1483L17.8811 42.5132L15.8996 39.7932L12.8236 41.158L10.8003 38.3805L10.9427 38.2768L12.8823 40.9393L15.9583 39.5744L17.9397 42.2944L21.0157 40.9295L22.9972 43.6495L26.0732 42.2847L28.0966 45.0622L27.9541 45.1659L26.0146 42.5035L22.9386 43.8683Z" fill="white" fill-opacity="0.09"/>
<path fill-rule="evenodd" clip-rule="evenodd" d="M72.4011 41.9132L69.8114 40.418L68.3162 43.0077L65.7265 41.5125L64.2313 44.1022L61.5653 42.563L61.6534 42.4104L64.1668 43.8615L65.662 41.2718L68.2517 42.767L69.7469 40.1773L72.3366 41.6725L73.8317 39.0828L76.4977 40.622L76.4096 40.7746L73.8962 39.3235L72.4011 41.9132Z" fill="white" fill-opacity="0.09"/>
<path fill-rule="evenodd" clip-rule="evenodd" d="M90.6918 17.6216L94.0163 18.1438L95.2262 15.0036L98.5507 15.5259L99.7606 12.3857L103.155 12.919L103.128 13.093L99.8739 12.5819L98.6639 15.722L95.3395 15.1998L94.1295 18.34L90.8051 17.8177L89.5951 20.9579L86.2004 20.4246L86.2277 20.2505L89.4819 20.7617L90.6918 17.6216Z" fill="white" fill-opacity="0.09"/>
<path fill-rule="evenodd" clip-rule="evenodd" d="M92.0089 19.3153L95.3333 19.8376L96.5433 16.6974L99.8677 17.2196L101.078 14.0795L104.472 14.6127L104.445 14.7868L101.191 14.2756L99.981 17.4158L96.6565 16.8936L95.4466 20.0337L92.1221 19.5115L90.9122 22.6517L87.5174 22.1184L87.5448 21.9443L90.7989 22.4555L92.0089 19.3153Z" fill="white" fill-opacity="0.09"/>
<path fill-rule="evenodd" clip-rule="evenodd" d="M72.8571 43.6152L70.2674 42.12L68.7722 44.7097L66.1825 43.2146L64.6874 45.8043L62.0214 44.265L62.1095 44.1124L64.6229 45.5636L66.118 42.9738L68.7078 44.469L70.2029 41.8793L72.7926 43.3745L74.2878 40.7848L76.9538 42.324L76.8657 42.4766L74.3523 41.0255L72.8571 43.6152Z" fill="white" fill-opacity="0.09"/>
<path fill-rule="evenodd" clip-rule="evenodd" d="M89.8108 16.0956L93.1352 16.6178L94.3452 13.4776L97.6696 13.9999L98.8796 10.8597L102.274 11.393L102.247 11.567L98.9928 11.0559L97.7829 14.196L94.4584 13.6738L93.2485 16.814L89.924 16.2917L88.7141 19.4319L85.3194 18.8986L85.3467 18.7245L88.6008 19.2357L89.8108 16.0956Z" fill="white" fill-opacity="0.09"/>
<path fill-rule="evenodd" clip-rule="evenodd" d="M45.6581 42.3118C48.8356 42.3118 51.4114 39.5929 51.4114 36.2389C51.4114 32.8849 48.8356 30.166 45.6581 30.166C42.4807 30.166 39.9048 32.8849 39.9048 36.2389C39.9048 39.5929 42.4807 42.3118 45.6581 42.3118ZM45.6581 42.6799C49.0282 42.6799 51.7601 39.7962 51.7601 36.2389C51.7601 32.6817 49.0282 29.7979 45.6581 29.7979C42.2881 29.7979 39.5562 32.6817 39.5562 36.2389C39.5562 39.7962 42.2881 42.6799 45.6581 42.6799Z" fill="white" fill-opacity="0.09"/>
<path fill-rule="evenodd" clip-rule="evenodd" d="M57.5231 38.9248C56.4142 38.9248 55.5152 38.0259 55.5152 36.9169C55.5152 35.808 56.4142 34.909 57.5231 34.909C58.6321 34.909 59.531 35.808 59.531 36.9169C59.531 38.0259 58.6321 38.9248 57.5231 38.9248ZM57.5231 39.2899C56.2126 39.2899 55.1501 38.2275 55.1501 36.9169C55.1501 35.6063 56.2126 34.5439 57.5231 34.5439C58.8337 34.5439 59.8961 35.6063 59.8961 36.9169C59.8961 38.2275 58.8337 39.2899 57.5231 39.2899Z" fill="white" fill-opacity="0.09"/>
<path fill-rule="evenodd" clip-rule="evenodd" d="M37.1832 12.4739C34.5685 12.4739 32.4489 10.213 32.4489 7.42399C32.4489 4.63499 34.5685 2.37407 37.1832 2.37407C39.7979 2.37407 41.9175 4.63499 41.9175 7.42399C41.9175 10.213 39.7979 12.4739 37.1832 12.4739ZM37.1832 12.848C34.3748 12.848 32.0982 10.4196 32.0982 7.42399C32.0982 4.4284 34.3748 2 37.1832 2C39.9915 2 42.2682 4.4284 42.2682 7.42399C42.2682 10.4196 39.9915 12.848 37.1832 12.848Z" fill="white" fill-opacity="0.09"/>
<path fill-rule="evenodd" clip-rule="evenodd" d="M65.9981 29.4537C72.1679 29.4537 77.1694 24.5992 77.1694 18.611C77.1694 12.6227 72.1679 7.7682 65.9981 7.7682C59.8284 7.7682 54.8268 12.6227 54.8268 18.611C54.8268 24.5992 59.8284 29.4537 65.9981 29.4537ZM65.9981 29.7979C72.3637 29.7979 77.5241 24.7893 77.5241 18.611C77.5241 12.4326 72.3637 7.42398 65.9981 7.42398C59.6325 7.42398 54.4721 12.4326 54.4721 18.611C54.4721 24.7893 59.6325 29.7979 65.9981 29.7979Z" fill="white" fill-opacity="0.09"/>
<path fill-rule="evenodd" clip-rule="evenodd" d="M37.4402 16.8741L20.349 7.00654L10.4814 24.0977L27.5726 33.9653L37.4402 16.8741ZM20.22 6.52513L9.99999 24.2267L27.7016 34.4467L37.9216 16.7451L20.22 6.52513Z" fill="white" fill-opacity="0.09"/>
<path fill-rule="evenodd" clip-rule="evenodd" d="M44.6533 11.8432L50.7309 11.8432L50.7309 17.9208L44.6533 17.9208L44.6533 11.8432ZM51.0821 11.492L51.0821 18.272L44.3021 18.272L44.3021 11.492L51.0821 11.492Z" fill="white" fill-opacity="0.09"/>
<path fill-rule="evenodd" clip-rule="evenodd" d="M51.3835 27.4626L53.4928 27.4626L53.4928 30.0993L51.3835 30.0993L51.3835 27.4626ZM53.7941 27.0859L53.7941 30.4759L51.0821 30.4759L51.0821 27.0859L53.7941 27.0859Z" fill="white" fill-opacity="0.09"/>
<path fill-rule="evenodd" clip-rule="evenodd" d="M95.1674 33.0962L105.519 39.0724L99.5424 49.4236L89.1912 43.4473L95.1674 33.0962ZM106 38.9434L99.6713 49.905L88.7098 43.5763L95.0384 32.6147L106 38.9434Z" fill="white" fill-opacity="0.09"/>
</g>
<g filter="url(#filter1_f)">
<path fill-rule="evenodd" clip-rule="evenodd" d="M137.841 10.5575L145.975 15.4946L141.038 23.6287L132.903 18.6916L137.841 10.5575ZM146.459 15.3762L141.156 24.1128L132.419 18.81L137.722 10.0734L146.459 15.3762Z" fill="white" fill-opacity="0.09"/>
<path fill-rule="evenodd" clip-rule="evenodd" d="M140.945 37.2111L138.355 35.716L136.86 38.3057L134.27 36.8105L132.775 39.4002L130.109 37.861L130.197 37.7084L132.711 39.1595L134.206 36.5698L136.796 38.065L138.291 35.4753L140.881 36.9704L142.376 34.3807L145.042 35.92L144.954 36.0726L142.44 34.6214L140.945 37.2111Z" fill="white" fill-opacity="0.09"/>
<path fill-rule="evenodd" clip-rule="evenodd" d="M93.4046 37.1717L91.4232 34.4517L88.3472 35.8166L86.3657 33.0966L83.2897 34.4614L81.2663 31.6839L81.4088 31.5802L83.3483 34.2427L86.4243 32.8778L88.4058 35.5978L91.4818 34.2329L93.4632 36.9529L96.5392 35.5881L98.5626 38.3656L98.4202 38.4694L96.4806 35.8069L93.4046 37.1717Z" fill="white" fill-opacity="0.09"/>
<path fill-rule="evenodd" clip-rule="evenodd" d="M92.6716 39.02L90.6901 36.3L87.6141 37.6649L85.6326 34.9449L82.5566 36.3097L80.5333 33.5322L80.6757 33.4285L82.6153 36.091L85.6913 34.7261L87.6727 37.4461L90.7487 36.0812L92.7302 38.8012L95.8062 37.4364L97.8296 40.2139L97.6871 40.3177L95.7476 37.6552L92.6716 39.02Z" fill="white" fill-opacity="0.09"/>
<path fill-rule="evenodd" clip-rule="evenodd" d="M91.9386 40.8683L89.9571 38.1483L86.8811 39.5132L84.8996 36.7932L81.8236 38.158L79.8003 35.3805L79.9427 35.2768L81.8823 37.9393L84.9583 36.5744L86.9397 39.2944L90.0157 37.9295L91.9972 40.6495L95.0732 39.2847L97.0966 42.0622L96.9541 42.1659L95.0146 39.5035L91.9386 40.8683Z" fill="white" fill-opacity="0.09"/>
<path fill-rule="evenodd" clip-rule="evenodd" d="M141.401 38.9132L138.811 37.418L137.316 40.0077L134.726 38.5125L133.231 41.1022L130.565 39.563L130.653 39.4104L133.167 40.8615L134.662 38.2718L137.252 39.767L138.747 37.1773L141.337 38.6725L142.832 36.0828L145.498 37.622L145.41 37.7746L142.896 36.3235L141.401 38.9132Z" fill="white" fill-opacity="0.09"/>
<path fill-rule="evenodd" clip-rule="evenodd" d="M159.692 14.6216L163.016 15.1438L164.226 12.0036L167.551 12.5259L168.761 9.3857L172.155 9.91898L172.128 10.093L168.874 9.58186L167.664 12.722L164.339 12.1998L163.13 15.34L159.805 14.8177L158.595 17.9579L155.2 17.4246L155.228 17.2505L158.482 17.7617L159.692 14.6216Z" fill="white" fill-opacity="0.09"/>
<path fill-rule="evenodd" clip-rule="evenodd" d="M161.009 16.3153L164.333 16.8376L165.543 13.6974L168.868 14.2196L170.078 11.0795L173.472 11.6127L173.445 11.7868L170.191 11.2756L168.981 14.4158L165.657 13.8936L164.447 17.0337L161.122 16.5115L159.912 19.6517L156.517 19.1184L156.545 18.9443L159.799 19.4555L161.009 16.3153Z" fill="white" fill-opacity="0.09"/>
<path fill-rule="evenodd" clip-rule="evenodd" d="M141.857 40.6152L139.267 39.12L137.772 41.7097L135.183 40.2146L133.687 42.8043L131.021 41.265L131.109 41.1124L133.623 42.5636L135.118 39.9738L137.708 41.469L139.203 38.8793L141.793 40.3745L143.288 37.7848L145.954 39.324L145.866 39.4766L143.352 38.0255L141.857 40.6152Z" fill="white" fill-opacity="0.09"/>
<path fill-rule="evenodd" clip-rule="evenodd" d="M158.811 13.0956L162.135 13.6178L163.345 10.4776L166.67 10.9999L167.88 7.8597L171.274 8.39297L171.247 8.56705L167.993 8.05586L166.783 11.196L163.458 10.6738L162.248 13.814L158.924 13.2917L157.714 16.4319L154.319 15.8986L154.347 15.7245L157.601 16.2357L158.811 13.0956Z" fill="white" fill-opacity="0.09"/>
<path fill-rule="evenodd" clip-rule="evenodd" d="M114.658 39.3118C117.836 39.3118 120.411 36.5929 120.411 33.2389C120.411 29.8849 117.836 27.166 114.658 27.166C111.481 27.166 108.905 29.8849 108.905 33.2389C108.905 36.5929 111.481 39.3118 114.658 39.3118ZM114.658 39.6799C118.028 39.6799 120.76 36.7962 120.76 33.2389C120.76 29.6817 118.028 26.7979 114.658 26.7979C111.288 26.7979 108.556 29.6817 108.556 33.2389C108.556 36.7962 111.288 39.6799 114.658 39.6799Z" fill="white" fill-opacity="0.09"/>
<path fill-rule="evenodd" clip-rule="evenodd" d="M126.523 35.9248C125.414 35.9248 124.515 35.0259 124.515 33.9169C124.515 32.808 125.414 31.909 126.523 31.909C127.632 31.909 128.531 32.808 128.531 33.9169C128.531 35.0259 127.632 35.9248 126.523 35.9248ZM126.523 36.2899C125.213 36.2899 124.15 35.2275 124.15 33.9169C124.15 32.6063 125.213 31.5439 126.523 31.5439C127.834 31.5439 128.896 32.6063 128.896 33.9169C128.896 35.2275 127.834 36.2899 126.523 36.2899Z" fill="white" fill-opacity="0.09"/>
<path fill-rule="evenodd" clip-rule="evenodd" d="M106.183 9.47391C103.568 9.47391 101.449 7.21298 101.449 4.42399C101.449 1.63499 103.568 -0.625932 106.183 -0.625932C108.798 -0.625932 110.917 1.63499 110.917 4.42399C110.917 7.21298 108.798 9.47391 106.183 9.47391ZM106.183 9.84797C103.375 9.84797 101.098 7.41957 101.098 4.42399C101.098 1.4284 103.375 -1 106.183 -1C108.992 -1 111.268 1.4284 111.268 4.42399C111.268 7.41957 108.992 9.84797 106.183 9.84797Z" fill="white" fill-opacity="0.09"/>
<path fill-rule="evenodd" clip-rule="evenodd" d="M134.998 26.4537C141.168 26.4537 146.169 21.5992 146.169 15.611C146.169 9.62266 141.168 4.7682 134.998 4.7682C128.828 4.7682 123.827 9.62266 123.827 15.611C123.827 21.5992 128.828 26.4537 134.998 26.4537ZM134.998 26.7979C141.364 26.7979 146.524 21.7893 146.524 15.611C146.524 9.43256 141.364 4.42398 134.998 4.42398C128.632 4.42398 123.472 9.43256 123.472 15.611C123.472 21.7893 128.632 26.7979 134.998 26.7979Z" fill="white" fill-opacity="0.09"/>
<path fill-rule="evenodd" clip-rule="evenodd" d="M106.44 13.8741L89.349 4.00654L79.4814 21.0977L96.5726 30.9653L106.44 13.8741ZM89.22 3.52513L79 21.2267L96.7016 31.4467L106.922 13.7451L89.22 3.52513Z" fill="white" fill-opacity="0.09"/>
<path fill-rule="evenodd" clip-rule="evenodd" d="M113.653 8.84315L119.731 8.84315L119.731 14.9208L113.653 14.9208L113.653 8.84315ZM120.082 8.49197L120.082 15.272L113.302 15.272L113.302 8.49197L120.082 8.49197Z" fill="white" fill-opacity="0.09"/>
<path fill-rule="evenodd" clip-rule="evenodd" d="M120.383 24.4626L122.493 24.4626L122.493 27.0993L120.383 27.0993L120.383 24.4626ZM122.794 24.0859L122.794 27.4759L120.082 27.4759L120.082 24.0859L122.794 24.0859Z" fill="white" fill-opacity="0.09"/>
<path fill-rule="evenodd" clip-rule="evenodd" d="M164.167 30.0962L174.519 36.0724L168.542 46.4236L158.191 40.4473L164.167 30.0962ZM175 35.9434L168.671 46.905L157.71 40.5763L164.038 29.6147L175 35.9434Z" fill="white" fill-opacity="0.09"/>
</g>
<g filter="url(#filter2_f)">
<path fill-rule="evenodd" clip-rule="evenodd" d="M89.8406 69.5575L97.9747 74.4946L93.0375 82.6287L84.9034 77.6916L89.8406 69.5575ZM98.4588 74.3762L93.1559 83.1128L84.4193 77.81L89.7222 69.0734L98.4588 74.3762Z" fill="white" fill-opacity="0.09"/>
<path fill-rule="evenodd" clip-rule="evenodd" d="M92.945 96.2111L90.3553 94.716L88.8601 97.3057L86.2704 95.8105L84.7753 98.4002L82.1093 96.861L82.1974 96.7084L84.7108 98.1595L86.2059 95.5698L88.7956 97.065L90.2908 94.4753L92.8805 95.9704L94.3757 93.3807L97.0417 94.92L96.9536 95.0726L94.4402 93.6214L92.945 96.2111Z" fill="white" fill-opacity="0.09"/>
<path fill-rule="evenodd" clip-rule="evenodd" d="M45.4046 96.1717L43.4231 93.4517L40.3471 94.8166L38.3657 92.0966L35.2897 93.4614L33.2663 90.6839L33.4087 90.5802L35.3483 93.2427L38.4243 91.8778L40.4058 94.5978L43.4818 93.2329L45.4632 95.9529L48.5392 94.5881L50.5626 97.3656L50.4202 97.4694L48.4806 94.8069L45.4046 96.1717Z" fill="white" fill-opacity="0.09"/>
<path fill-rule="evenodd" clip-rule="evenodd" d="M44.6716 98.02L42.6901 95.3L39.6141 96.6649L37.6326 93.9449L34.5566 95.3097L32.5333 92.5322L32.6757 92.4285L34.6153 95.091L37.6913 93.7261L39.6727 96.4461L42.7487 95.0812L44.7302 97.8012L47.8062 96.4364L49.8296 99.2139L49.6871 99.3177L47.7476 96.6552L44.6716 98.02Z" fill="white" fill-opacity="0.09"/>
<path fill-rule="evenodd" clip-rule="evenodd" d="M43.9386 99.8683L41.9571 97.1483L38.8811 98.5132L36.8996 95.7932L33.8236 97.158L31.8003 94.3805L31.9427 94.2768L33.8823 96.9393L36.9583 95.5744L38.9397 98.2944L42.0157 96.9295L43.9972 99.6495L47.0732 98.2847L49.0966 101.062L48.9541 101.166L47.0146 98.5035L43.9386 99.8683Z" fill="white" fill-opacity="0.09"/>
<path fill-rule="evenodd" clip-rule="evenodd" d="M93.4011 97.9132L90.8114 96.418L89.3162 99.0077L86.7265 97.5125L85.2313 100.102L82.5653 98.563L82.6534 98.4104L85.1668 99.8615L86.662 97.2718L89.2517 98.767L90.7469 96.1773L93.3366 97.6725L94.8317 95.0828L97.4977 96.622L97.4096 96.7746L94.8962 95.3235L93.4011 97.9132Z" fill="white" fill-opacity="0.09"/>
<path fill-rule="evenodd" clip-rule="evenodd" d="M111.692 73.6216L115.016 74.1438L116.226 71.0036L119.551 71.5259L120.761 68.3857L124.155 68.919L124.128 69.093L120.874 68.5819L119.664 71.722L116.339 71.1998L115.13 74.34L111.805 73.8177L110.595 76.9579L107.2 76.4246L107.228 76.2505L110.482 76.7617L111.692 73.6216Z" fill="white" fill-opacity="0.09"/>
<path fill-rule="evenodd" clip-rule="evenodd" d="M113.009 75.3153L116.333 75.8376L117.543 72.6974L120.868 73.2196L122.078 70.0795L125.472 70.6127L125.445 70.7868L122.191 70.2756L120.981 73.4158L117.657 72.8936L116.447 76.0337L113.122 75.5115L111.912 78.6517L108.517 78.1184L108.545 77.9443L111.799 78.4555L113.009 75.3153Z" fill="white" fill-opacity="0.09"/>
<path fill-rule="evenodd" clip-rule="evenodd" d="M93.8571 99.6152L91.2674 98.12L89.7722 100.71L87.1825 99.2146L85.6874 101.804L83.0214 100.265L83.1095 100.112L85.6229 101.564L87.118 98.9739L89.7078 100.469L91.2029 97.8793L93.7926 99.3745L95.2878 96.7848L97.9538 98.324L97.8657 98.4766L95.3523 97.0255L93.8571 99.6152Z" fill="white" fill-opacity="0.09"/>
<path fill-rule="evenodd" clip-rule="evenodd" d="M110.811 72.0956L114.135 72.6178L115.345 69.4776L118.67 69.9999L119.88 66.8597L123.274 67.393L123.247 67.567L119.993 67.0559L118.783 70.196L115.458 69.6738L114.248 72.814L110.924 72.2917L109.714 75.4319L106.319 74.8986L106.347 74.7245L109.601 75.2357L110.811 72.0956Z" fill="white" fill-opacity="0.09"/>
<path fill-rule="evenodd" clip-rule="evenodd" d="M66.6581 98.3118C69.8356 98.3118 72.4114 95.5929 72.4114 92.2389C72.4114 88.8849 69.8356 86.166 66.6581 86.166C63.4807 86.166 60.9048 88.8849 60.9048 92.2389C60.9048 95.5929 63.4807 98.3118 66.6581 98.3118ZM66.6581 98.6799C70.0282 98.6799 72.7601 95.7962 72.7601 92.2389C72.7601 88.6817 70.0282 85.7979 66.6581 85.7979C63.2881 85.7979 60.5562 88.6817 60.5562 92.2389C60.5562 95.7962 63.2881 98.6799 66.6581 98.6799Z" fill="white" fill-opacity="0.09"/>
<path fill-rule="evenodd" clip-rule="evenodd" d="M78.5231 94.9248C77.4142 94.9248 76.5152 94.0259 76.5152 92.9169C76.5152 91.808 77.4142 90.909 78.5231 90.909C79.6321 90.909 80.531 91.808 80.531 92.9169C80.531 94.0259 79.6321 94.9248 78.5231 94.9248ZM78.5231 95.2899C77.2126 95.2899 76.1501 94.2275 76.1501 92.9169C76.1501 91.6063 77.2126 90.5439 78.5231 90.5439C79.8337 90.5439 80.8961 91.6063 80.8961 92.9169C80.8961 94.2275 79.8337 95.2899 78.5231 95.2899Z" fill="white" fill-opacity="0.09"/>
<path fill-rule="evenodd" clip-rule="evenodd" d="M58.1832 68.4739C55.5685 68.4739 53.4489 66.213 53.4489 63.424C53.4489 60.635 55.5685 58.3741 58.1832 58.3741C60.7979 58.3741 62.9175 60.635 62.9175 63.424C62.9175 66.213 60.7979 68.4739 58.1832 68.4739ZM58.1832 68.848C55.3748 68.848 53.0982 66.4196 53.0982 63.424C53.0982 60.4284 55.3748 58 58.1832 58C60.9915 58 63.2682 60.4284 63.2682 63.424C63.2682 66.4196 60.9915 68.848 58.1832 68.848Z" fill="white" fill-opacity="0.09"/>
<path fill-rule="evenodd" clip-rule="evenodd" d="M86.9981 85.4537C93.1678 85.4537 98.1694 80.5992 98.1694 74.611C98.1694 68.6227 93.1678 63.7682 86.9981 63.7682C80.8283 63.7682 75.8268 68.6227 75.8268 74.611C75.8268 80.5992 80.8283 85.4537 86.9981 85.4537ZM86.9981 85.7979C93.3637 85.7979 98.5241 80.7893 98.5241 74.611C98.5241 68.4326 93.3637 63.424 86.9981 63.424C80.6325 63.424 75.4721 68.4326 75.4721 74.611C75.4721 80.7893 80.6325 85.7979 86.9981 85.7979Z" fill="white" fill-opacity="0.09"/>
<path fill-rule="evenodd" clip-rule="evenodd" d="M58.4402 72.8741L41.349 63.0065L31.4814 80.0977L48.5726 89.9653L58.4402 72.8741ZM41.22 62.5251L31 80.2267L48.7016 90.4467L58.9216 72.7451L41.22 62.5251Z" fill="white" fill-opacity="0.09"/>
<path fill-rule="evenodd" clip-rule="evenodd" d="M65.6533 67.8432L71.731 67.8432L71.731 73.9208L65.6533 73.9208L65.6533 67.8432ZM72.0821 67.492L72.0821 74.272L65.3022 74.272L65.3022 67.492L72.0821 67.492Z" fill="white" fill-opacity="0.09"/>
<path fill-rule="evenodd" clip-rule="evenodd" d="M72.3835 83.4626L74.4928 83.4626L74.4928 86.0993L72.3835 86.0993L72.3835 83.4626ZM74.7941 83.0859L74.7941 86.4759L72.0821 86.4759L72.0821 83.0859L74.7941 83.0859Z" fill="white" fill-opacity="0.09"/>
<path fill-rule="evenodd" clip-rule="evenodd" d="M116.167 89.0962L126.519 95.0724L120.542 105.424L110.191 99.4473L116.167 89.0962ZM127 94.9434L120.671 105.905L109.71 99.5763L116.038 88.6147L127 94.9434Z" fill="white" fill-opacity="0.09"/>
</g>
<g filter="url(#filter3_f)">
<path fill-rule="evenodd" clip-rule="evenodd" d="M138.841 69.5575L146.975 74.4946L142.038 82.6287L133.903 77.6916L138.841 69.5575ZM147.459 74.3762L142.156 83.1128L133.419 77.81L138.722 69.0734L147.459 74.3762Z" fill="white" fill-opacity="0.09"/>
<path fill-rule="evenodd" clip-rule="evenodd" d="M141.945 96.2111L139.355 94.716L137.86 97.3057L135.27 95.8105L133.775 98.4002L131.109 96.861L131.197 96.7084L133.711 98.1595L135.206 95.5698L137.796 97.065L139.291 94.4753L141.881 95.9704L143.376 93.3807L146.042 94.92L145.954 95.0726L143.44 93.6214L141.945 96.2111Z" fill="white" fill-opacity="0.09"/>
<path fill-rule="evenodd" clip-rule="evenodd" d="M94.4046 96.1717L92.4232 93.4517L89.3472 94.8166L87.3657 92.0966L84.2897 93.4614L82.2663 90.6839L82.4088 90.5802L84.3483 93.2427L87.4243 91.8778L89.4058 94.5978L92.4818 93.2329L94.4632 95.9529L97.5392 94.5881L99.5626 97.3656L99.4202 97.4694L97.4806 94.8069L94.4046 96.1717Z" fill="white" fill-opacity="0.09"/>
<path fill-rule="evenodd" clip-rule="evenodd" d="M93.6716 98.02L91.6901 95.3L88.6141 96.6649L86.6326 93.9449L83.5566 95.3097L81.5333 92.5322L81.6757 92.4285L83.6153 95.091L86.6913 93.7261L88.6727 96.4461L91.7487 95.0812L93.7302 97.8012L96.8062 96.4364L98.8296 99.2139L98.6871 99.3177L96.7476 96.6552L93.6716 98.02Z" fill="white" fill-opacity="0.09"/>
<path fill-rule="evenodd" clip-rule="evenodd" d="M92.9386 99.8683L90.9571 97.1483L87.8811 98.5132L85.8996 95.7932L82.8236 97.158L80.8003 94.3805L80.9427 94.2768L82.8823 96.9393L85.9583 95.5744L87.9397 98.2944L91.0157 96.9295L92.9972 99.6495L96.0732 98.2847L98.0966 101.062L97.9541 101.166L96.0146 98.5035L92.9386 99.8683Z" fill="white" fill-opacity="0.09"/>
<path fill-rule="evenodd" clip-rule="evenodd" d="M142.401 97.9132L139.811 96.418L138.316 99.0077L135.726 97.5125L134.231 100.102L131.565 98.563L131.653 98.4104L134.167 99.8615L135.662 97.2718L138.252 98.767L139.747 96.1773L142.337 97.6725L143.832 95.0828L146.498 96.622L146.41 96.7746L143.896 95.3235L142.401 97.9132Z" fill="white" fill-opacity="0.09"/>
<path fill-rule="evenodd" clip-rule="evenodd" d="M160.692 73.6216L164.016 74.1438L165.226 71.0036L168.551 71.5259L169.761 68.3857L173.155 68.919L173.128 69.093L169.874 68.5819L168.664 71.722L165.339 71.1998L164.13 74.34L160.805 73.8177L159.595 76.9579L156.2 76.4246L156.228 76.2505L159.482 76.7617L160.692 73.6216Z" fill="white" fill-opacity="0.09"/>
<path fill-rule="evenodd" clip-rule="evenodd" d="M162.009 75.3153L165.333 75.8376L166.543 72.6974L169.868 73.2196L171.078 70.0795L174.472 70.6127L174.445 70.7868L171.191 70.2756L169.981 73.4158L166.657 72.8936L165.447 76.0337L162.122 75.5115L160.912 78.6517L157.517 78.1184L157.545 77.9443L160.799 78.4555L162.009 75.3153Z" fill="white" fill-opacity="0.09"/>
<path fill-rule="evenodd" clip-rule="evenodd" d="M142.857 99.6152L140.267 98.12L138.772 100.71L136.183 99.2146L134.687 101.804L132.021 100.265L132.109 100.112L134.623 101.564L136.118 98.9739L138.708 100.469L140.203 97.8793L142.793 99.3745L144.288 96.7848L146.954 98.324L146.866 98.4766L144.352 97.0255L142.857 99.6152Z" fill="white" fill-opacity="0.09"/>
<path fill-rule="evenodd" clip-rule="evenodd" d="M159.811 72.0956L163.135 72.6178L164.345 69.4776L167.67 69.9999L168.88 66.8597L172.274 67.393L172.247 67.567L168.993 67.0559L167.783 70.196L164.458 69.6738L163.248 72.814L159.924 72.2917L158.714 75.4319L155.319 74.8986L155.347 74.7245L158.601 75.2357L159.811 72.0956Z" fill="white" fill-opacity="0.09"/>
<path fill-rule="evenodd" clip-rule="evenodd" d="M115.658 98.3118C118.836 98.3118 121.411 95.5929 121.411 92.2389C121.411 88.8849 118.836 86.166 115.658 86.166C112.481 86.166 109.905 88.8849 109.905 92.2389C109.905 95.5929 112.481 98.3118 115.658 98.3118ZM115.658 98.6799C119.028 98.6799 121.76 95.7962 121.76 92.2389C121.76 88.6817 119.028 85.7979 115.658 85.7979C112.288 85.7979 109.556 88.6817 109.556 92.2389C109.556 95.7962 112.288 98.6799 115.658 98.6799Z" fill="white" fill-opacity="0.09"/>
<path fill-rule="evenodd" clip-rule="evenodd" d="M127.523 94.9248C126.414 94.9248 125.515 94.0259 125.515 92.9169C125.515 91.808 126.414 90.909 127.523 90.909C128.632 90.909 129.531 91.808 129.531 92.9169C129.531 94.0259 128.632 94.9248 127.523 94.9248ZM127.523 95.2899C126.213 95.2899 125.15 94.2275 125.15 92.9169C125.15 91.6063 126.213 90.5439 127.523 90.5439C128.834 90.5439 129.896 91.6063 129.896 92.9169C129.896 94.2275 128.834 95.2899 127.523 95.2899Z" fill="white" fill-opacity="0.09"/>
<path fill-rule="evenodd" clip-rule="evenodd" d="M107.183 68.4739C104.568 68.4739 102.449 66.213 102.449 63.424C102.449 60.635 104.568 58.3741 107.183 58.3741C109.798 58.3741 111.917 60.635 111.917 63.424C111.917 66.213 109.798 68.4739 107.183 68.4739ZM107.183 68.848C104.375 68.848 102.098 66.4196 102.098 63.424C102.098 60.4284 104.375 58 107.183 58C109.992 58 112.268 60.4284 112.268 63.424C112.268 66.4196 109.992 68.848 107.183 68.848Z" fill="white" fill-opacity="0.09"/>
<path fill-rule="evenodd" clip-rule="evenodd" d="M135.998 85.4537C142.168 85.4537 147.169 80.5992 147.169 74.611C147.169 68.6227 142.168 63.7682 135.998 63.7682C129.828 63.7682 124.827 68.6227 124.827 74.611C124.827 80.5992 129.828 85.4537 135.998 85.4537ZM135.998 85.7979C142.364 85.7979 147.524 80.7893 147.524 74.611C147.524 68.4326 142.364 63.424 135.998 63.424C129.632 63.424 124.472 68.4326 124.472 74.611C124.472 80.7893 129.632 85.7979 135.998 85.7979Z" fill="white" fill-opacity="0.09"/>
<path fill-rule="evenodd" clip-rule="evenodd" d="M107.44 72.8741L90.349 63.0065L80.4814 80.0977L97.5726 89.9653L107.44 72.8741ZM90.22 62.5251L80 80.2267L97.7016 90.4467L107.922 72.7451L90.22 62.5251Z" fill="white" fill-opacity="0.09"/>
<path fill-rule="evenodd" clip-rule="evenodd" d="M114.653 67.8432L120.731 67.8432L120.731 73.9208L114.653 73.9208L114.653 67.8432ZM121.082 67.492L121.082 74.272L114.302 74.272L114.302 67.492L121.082 67.492Z" fill="white" fill-opacity="0.09"/>
<path fill-rule="evenodd" clip-rule="evenodd" d="M121.383 83.4626L123.493 83.4626L123.493 86.0993L121.383 86.0993L121.383 83.4626ZM123.794 83.0859L123.794 86.4759L121.082 86.4759L121.082 83.0859L123.794 83.0859Z" fill="white" fill-opacity="0.09"/>
<path fill-rule="evenodd" clip-rule="evenodd" d="M165.167 89.0962L175.519 95.0724L169.542 105.424L159.191 99.4473L165.167 89.0962ZM176 94.9434L169.671 105.905L158.71 99.5763L165.038 88.6147L176 94.9434Z" fill="white" fill-opacity="0.09"/>
</g>
<path fill-rule="evenodd" clip-rule="evenodd" d="M50.8406 2.55748L58.9747 7.49461L54.0375 15.6287L45.9034 10.6916L50.8406 2.55748ZM59.4588 7.37621L54.1559 16.1128L45.4193 10.81L50.7222 2.07336L59.4588 7.37621Z" fill="white" fill-opacity="0.13"/>
<path fill-rule="evenodd" clip-rule="evenodd" d="M53.945 29.2111L51.3553 27.716L49.8601 30.3057L47.2704 28.8105L45.7753 31.4002L43.1093 29.861L43.1974 29.7084L45.7108 31.1595L47.2059 28.5698L49.7956 30.065L51.2908 27.4753L53.8805 28.9704L55.3757 26.3807L58.0417 27.92L57.9536 28.0726L55.4402 26.6214L53.945 29.2111Z" fill="white" fill-opacity="0.13"/>
<path fill-rule="evenodd" clip-rule="evenodd" d="M6.4046 29.1717L4.42314 26.4517L1.34714 27.8166L-0.634319 25.0966L-3.71032 26.4614L-5.73368 23.6839L-5.59126 23.5802L-3.6517 26.2427L-0.575697 24.8778L1.40577 27.5978L4.48176 26.2329L6.46322 28.9529L9.53922 27.5881L11.5626 30.3656L11.4202 30.4694L9.4806 27.8069L6.4046 29.1717Z" fill="white" fill-opacity="0.13"/>
<path fill-rule="evenodd" clip-rule="evenodd" d="M5.67157 31.02L3.69011 28.3L0.61411 29.6649L-1.36735 26.9449L-4.44335 28.3097L-6.46671 25.5322L-6.32429 25.4285L-4.38473 28.091L-1.30873 26.7261L0.672733 29.4461L3.74873 28.0812L5.73019 30.8012L8.80619 29.4364L10.8296 32.2139L10.6871 32.3177L8.74757 29.6552L5.67157 31.02Z" fill="white" fill-opacity="0.13"/>
<path fill-rule="evenodd" clip-rule="evenodd" d="M4.93857 32.8683L2.95711 30.1483L-0.118892 31.5132L-2.10035 28.7932L-5.17635 30.158L-7.19971 27.3805L-7.05729 27.2768L-5.11773 29.9393L-2.04173 28.5744L-0.0602686 31.2944L3.01573 29.9295L4.99719 32.6495L8.07319 31.2847L10.0966 34.0622L9.95413 34.1659L8.01457 31.5035L4.93857 32.8683Z" fill="white" fill-opacity="0.13"/>
<path fill-rule="evenodd" clip-rule="evenodd" d="M54.4011 30.9132L51.8114 29.418L50.3162 32.0077L47.7265 30.5125L46.2313 33.1022L43.5653 31.563L43.6534 31.4104L46.1668 32.8615L47.662 30.2718L50.2517 31.767L51.7469 29.1773L54.3366 30.6725L55.8317 28.0828L58.4977 29.622L58.4096 29.7746L55.8962 28.3235L54.4011 30.9132Z" fill="white" fill-opacity="0.13"/>
<path fill-rule="evenodd" clip-rule="evenodd" d="M72.6918 6.62157L76.0163 7.1438L77.2262 4.00364L80.5507 4.52587L81.7606 1.3857L85.1554 1.91898L85.128 2.09305L81.8739 1.58186L80.6639 4.72202L77.3395 4.19979L76.1295 7.33996L72.8051 6.81773L71.5951 9.95789L68.2004 9.42462L68.2277 9.25055L71.4819 9.76173L72.6918 6.62157Z" fill="white" fill-opacity="0.13"/>
<path fill-rule="evenodd" clip-rule="evenodd" d="M74.0089 8.31534L77.3333 8.83757L78.5433 5.69741L81.8677 6.21964L83.0777 3.07947L86.4724 3.61275L86.4451 3.78682L83.1909 3.27563L81.981 6.4158L78.6565 5.89356L77.4466 9.03373L74.1221 8.5115L72.9122 11.6517L69.5174 11.1184L69.5448 10.9443L72.7989 11.4555L74.0089 8.31534Z" fill="white" fill-opacity="0.13"/>
<path fill-rule="evenodd" clip-rule="evenodd" d="M54.8571 32.6152L52.2674 31.12L50.7722 33.7097L48.1825 32.2146L46.6874 34.8043L44.0214 33.265L44.1095 33.1124L46.6229 34.5636L48.118 31.9738L50.7078 33.469L52.2029 30.8793L54.7926 32.3745L56.2878 29.7848L58.9538 31.324L58.8657 31.4766L56.3523 30.0255L54.8571 32.6152Z" fill="white" fill-opacity="0.13"/>
<path fill-rule="evenodd" clip-rule="evenodd" d="M71.8108 5.09557L75.1352 5.6178L76.3452 2.47763L79.6696 2.99987L80.8796 -0.1403L84.2743 0.392975L84.247 0.567046L80.9928 0.055859L79.7829 3.19602L76.4584 2.67379L75.2485 5.81396L71.924 5.29173L70.7141 8.43189L67.3194 7.89862L67.3467 7.72454L70.6008 8.23573L71.8108 5.09557Z" fill="white" fill-opacity="0.13"/>
<path fill-rule="evenodd" clip-rule="evenodd" d="M27.6581 31.3118C30.8356 31.3118 33.4114 28.5929 33.4114 25.2389C33.4114 21.8849 30.8356 19.166 27.6581 19.166C24.4807 19.166 21.9048 21.8849 21.9048 25.2389C21.9048 28.5929 24.4807 31.3118 27.6581 31.3118ZM27.6581 31.6799C31.0282 31.6799 33.7601 28.7962 33.7601 25.2389C33.7601 21.6817 31.0282 18.7979 27.6581 18.7979C24.2881 18.7979 21.5562 21.6817 21.5562 25.2389C21.5562 28.7962 24.2881 31.6799 27.6581 31.6799Z" fill="white" fill-opacity="0.13"/>
<path fill-rule="evenodd" clip-rule="evenodd" d="M39.5231 27.9248C38.4142 27.9248 37.5152 27.0259 37.5152 25.9169C37.5152 24.808 38.4142 23.909 39.5231 23.909C40.6321 23.909 41.531 24.808 41.531 25.9169C41.531 27.0259 40.6321 27.9248 39.5231 27.9248ZM39.5231 28.2899C38.2126 28.2899 37.1501 27.2275 37.1501 25.9169C37.1501 24.6063 38.2126 23.5439 39.5231 23.5439C40.8337 23.5439 41.8961 24.6063 41.8961 25.9169C41.8961 27.2275 40.8337 28.2899 39.5231 28.2899Z" fill="white" fill-opacity="0.13"/>
<path fill-rule="evenodd" clip-rule="evenodd" d="M19.1832 1.47391C16.5685 1.47391 14.4489 -0.78702 14.4489 -3.57601C14.4489 -6.36501 16.5685 -8.62593 19.1832 -8.62593C21.7979 -8.62593 23.9175 -6.36501 23.9175 -3.57601C23.9175 -0.78702 21.7979 1.47391 19.1832 1.47391ZM19.1832 1.84797C16.3748 1.84797 14.0982 -0.580428 14.0982 -3.57601C14.0982 -6.5716 16.3748 -9 19.1832 -9C21.9915 -9 24.2682 -6.5716 24.2682 -3.57601C24.2682 -0.580428 21.9915 1.84797 19.1832 1.84797Z" fill="white" fill-opacity="0.13"/>
<path fill-rule="evenodd" clip-rule="evenodd" d="M47.9981 18.4537C54.1679 18.4537 59.1694 13.5992 59.1694 7.61095C59.1694 1.62266 54.1679 -3.2318 47.9981 -3.2318C41.8284 -3.2318 36.8268 1.62266 36.8268 7.61095C36.8268 13.5992 41.8284 18.4537 47.9981 18.4537ZM47.9981 18.7979C54.3637 18.7979 59.5241 13.7893 59.5241 7.61095C59.5241 1.43256 54.3637 -3.57602 47.9981 -3.57602C41.6325 -3.57602 36.4721 1.43256 36.4721 7.61095C36.4721 13.7893 41.6325 18.7979 47.9981 18.7979Z" fill="white" fill-opacity="0.13"/>
<path fill-rule="evenodd" clip-rule="evenodd" d="M19.4402 5.87413L2.34899 -3.99346L-7.5186 13.0977L9.57258 22.9653L19.4402 5.87413ZM2.22 -4.47487L-8.00001 13.2267L9.70157 23.4467L19.9216 5.74514L2.22 -4.47487Z" fill="white" fill-opacity="0.13"/>
<path fill-rule="evenodd" clip-rule="evenodd" d="M26.6533 0.843151L32.7309 0.843151L32.7309 6.92078L26.6533 6.92078L26.6533 0.843151ZM33.0821 0.491974L33.0821 7.27196L26.3021 7.27196L26.3021 0.491973L33.0821 0.491974Z" fill="white" fill-opacity="0.13"/>
<path fill-rule="evenodd" clip-rule="evenodd" d="M33.3835 16.4626L35.4928 16.4626L35.4928 19.0993L33.3835 19.0993L33.3835 16.4626ZM35.7941 16.0859L35.7941 19.4759L33.0821 19.4759L33.0821 16.0859L35.7941 16.0859Z" fill="white" fill-opacity="0.13"/>
<path fill-rule="evenodd" clip-rule="evenodd" d="M77.1674 22.0962L87.5186 28.0724L81.5424 38.4236L71.1912 32.4473L77.1674 22.0962ZM88 27.9434L81.6713 38.905L70.7098 32.5763L77.0384 21.6147L88 27.9434Z" fill="white" fill-opacity="0.13"/>
<path fill-rule="evenodd" clip-rule="evenodd" d="M58.8406 50.5575L66.9747 55.4946L62.0375 63.6287L53.9034 58.6916L58.8406 50.5575ZM67.4588 55.3762L62.1559 64.1128L53.4193 58.81L58.7222 50.0734L67.4588 55.3762Z" fill="white" fill-opacity="0.13"/>
<path fill-rule="evenodd" clip-rule="evenodd" d="M61.945 77.2111L59.3553 75.716L57.8601 78.3057L55.2704 76.8105L53.7753 79.4002L51.1093 77.861L51.1974 77.7084L53.7108 79.1595L55.2059 76.5698L57.7956 78.065L59.2908 75.4753L61.8805 76.9704L63.3757 74.3807L66.0417 75.92L65.9536 76.0726L63.4402 74.6214L61.945 77.2111Z" fill="white" fill-opacity="0.13"/>
<path fill-rule="evenodd" clip-rule="evenodd" d="M14.4046 77.1717L12.4231 74.4517L9.34714 75.8166L7.36568 73.0966L4.28968 74.4614L2.26632 71.6839L2.40874 71.5802L4.3483 74.2427L7.4243 72.8778L9.40577 75.5978L12.4818 74.2329L14.4632 76.9529L17.5392 75.5881L19.5626 78.3656L19.4202 78.4694L17.4806 75.8069L14.4046 77.1717Z" fill="white" fill-opacity="0.13"/>
<path fill-rule="evenodd" clip-rule="evenodd" d="M13.6716 79.02L11.6901 76.3L8.61411 77.6649L6.63265 74.9449L3.55665 76.3097L1.53329 73.5322L1.67571 73.4285L3.61527 76.091L6.69127 74.7261L8.67273 77.4461L11.7487 76.0812L13.7302 78.8012L16.8062 77.4364L18.8296 80.2139L18.6871 80.3177L16.7476 77.6552L13.6716 79.02Z" fill="white" fill-opacity="0.13"/>
<path fill-rule="evenodd" clip-rule="evenodd" d="M12.9386 80.8683L10.9571 78.1483L7.88111 79.5132L5.89965 76.7932L2.82365 78.158L0.800287 75.3805L0.942709 75.2768L2.88227 77.9393L5.95827 76.5744L7.93973 79.2944L11.0157 77.9295L12.9972 80.6495L16.0732 79.2847L18.0966 82.0622L17.9541 82.1659L16.0146 79.5035L12.9386 80.8683Z" fill="white" fill-opacity="0.13"/>
<path fill-rule="evenodd" clip-rule="evenodd" d="M62.4011 78.9132L59.8114 77.418L58.3162 80.0077L55.7265 78.5125L54.2313 81.1022L51.5653 79.563L51.6534 79.4104L54.1668 80.8615L55.662 78.2718L58.2517 79.767L59.7469 77.1773L62.3366 78.6725L63.8317 76.0828L66.4977 77.622L66.4096 77.7746L63.8962 76.3235L62.4011 78.9132Z" fill="white" fill-opacity="0.13"/>
<path fill-rule="evenodd" clip-rule="evenodd" d="M80.6918 54.6216L84.0163 55.1438L85.2262 52.0036L88.5507 52.5259L89.7606 49.3857L93.1554 49.919L93.128 50.093L89.8739 49.5819L88.6639 52.722L85.3395 52.1998L84.1295 55.34L80.8051 54.8177L79.5951 57.9579L76.2004 57.4246L76.2277 57.2505L79.4819 57.7617L80.6918 54.6216Z" fill="white" fill-opacity="0.13"/>
<path fill-rule="evenodd" clip-rule="evenodd" d="M82.0089 56.3153L85.3333 56.8376L86.5433 53.6974L89.8677 54.2196L91.0777 51.0795L94.4724 51.6127L94.4451 51.7868L91.1909 51.2756L89.981 54.4158L86.6565 53.8936L85.4466 57.0337L82.1221 56.5115L80.9122 59.6517L77.5174 59.1184L77.5448 58.9443L80.7989 59.4555L82.0089 56.3153Z" fill="white" fill-opacity="0.13"/>
<path fill-rule="evenodd" clip-rule="evenodd" d="M62.8571 80.6152L60.2674 79.12L58.7722 81.7097L56.1825 80.2146L54.6874 82.8043L52.0214 81.265L52.1095 81.1124L54.6229 82.5636L56.118 79.9738L58.7078 81.469L60.2029 78.8793L62.7926 80.3745L64.2878 77.7848L66.9538 79.324L66.8657 79.4766L64.3523 78.0255L62.8571 80.6152Z" fill="white" fill-opacity="0.13"/>
<path fill-rule="evenodd" clip-rule="evenodd" d="M79.8108 53.0956L83.1352 53.6178L84.3452 50.4776L87.6696 50.9999L88.8796 47.8597L92.2743 48.393L92.247 48.567L88.9928 48.0559L87.7829 51.196L84.4584 50.6738L83.2485 53.814L79.924 53.2917L78.7141 56.4319L75.3194 55.8986L75.3467 55.7245L78.6008 56.2357L79.8108 53.0956Z" fill="white" fill-opacity="0.13"/>
<path fill-rule="evenodd" clip-rule="evenodd" d="M35.6581 79.3118C38.8356 79.3118 41.4114 76.5929 41.4114 73.2389C41.4114 69.8849 38.8356 67.166 35.6581 67.166C32.4807 67.166 29.9048 69.8849 29.9048 73.2389C29.9048 76.5929 32.4807 79.3118 35.6581 79.3118ZM35.6581 79.6799C39.0282 79.6799 41.7601 76.7962 41.7601 73.2389C41.7601 69.6817 39.0282 66.7979 35.6581 66.7979C32.2881 66.7979 29.5562 69.6817 29.5562 73.2389C29.5562 76.7962 32.2881 79.6799 35.6581 79.6799Z" fill="white" fill-opacity="0.13"/>
<path fill-rule="evenodd" clip-rule="evenodd" d="M47.5231 75.9248C46.4142 75.9248 45.5152 75.0259 45.5152 73.9169C45.5152 72.808 46.4142 71.909 47.5231 71.909C48.6321 71.909 49.531 72.808 49.531 73.9169C49.531 75.0259 48.6321 75.9248 47.5231 75.9248ZM47.5231 76.2899C46.2126 76.2899 45.1501 75.2275 45.1501 73.9169C45.1501 72.6063 46.2126 71.5439 47.5231 71.5439C48.8337 71.5439 49.8961 72.6063 49.8961 73.9169C49.8961 75.2275 48.8337 76.2899 47.5231 76.2899Z" fill="white" fill-opacity="0.13"/>
<path fill-rule="evenodd" clip-rule="evenodd" d="M27.1832 49.4739C24.5685 49.4739 22.4489 47.213 22.4489 44.424C22.4489 41.635 24.5685 39.3741 27.1832 39.3741C29.7979 39.3741 31.9175 41.635 31.9175 44.424C31.9175 47.213 29.7979 49.4739 27.1832 49.4739ZM27.1832 49.848C24.3748 49.848 22.0982 47.4196 22.0982 44.424C22.0982 41.4284 24.3748 39 27.1832 39C29.9915 39 32.2682 41.4284 32.2682 44.424C32.2682 47.4196 29.9915 49.848 27.1832 49.848Z" fill="white" fill-opacity="0.13"/>
<path fill-rule="evenodd" clip-rule="evenodd" d="M55.9981 66.4537C62.1679 66.4537 67.1694 61.5992 67.1694 55.611C67.1694 49.6227 62.1679 44.7682 55.9981 44.7682C49.8284 44.7682 44.8268 49.6227 44.8268 55.611C44.8268 61.5992 49.8284 66.4537 55.9981 66.4537ZM55.9981 66.7979C62.3637 66.7979 67.5241 61.7893 67.5241 55.611C67.5241 49.4326 62.3637 44.424 55.9981 44.424C49.6325 44.424 44.4721 49.4326 44.4721 55.611C44.4721 61.7893 49.6325 66.7979 55.9981 66.7979Z" fill="white" fill-opacity="0.13"/>
<path fill-rule="evenodd" clip-rule="evenodd" d="M27.4402 53.8741L10.349 44.0065L0.481398 61.0977L17.5726 70.9653L27.4402 53.8741ZM10.22 43.5251L-9.53674e-06 61.2267L17.7016 71.4467L27.9216 53.7451L10.22 43.5251Z" fill="white" fill-opacity="0.13"/>
<path fill-rule="evenodd" clip-rule="evenodd" d="M34.6533 48.8432L40.7309 48.8432L40.7309 54.9208L34.6533 54.9208L34.6533 48.8432ZM41.0821 48.492L41.0821 55.272L34.3021 55.272L34.3021 48.492L41.0821 48.492Z" fill="white" fill-opacity="0.13"/>
<path fill-rule="evenodd" clip-rule="evenodd" d="M41.3835 64.4626L43.4928 64.4626L43.4928 67.0993L41.3835 67.0993L41.3835 64.4626ZM43.7941 64.0859L43.7941 67.4759L41.0821 67.4759L41.0821 64.0859L43.7941 64.0859Z" fill="white" fill-opacity="0.13"/>
<path fill-rule="evenodd" clip-rule="evenodd" d="M85.1674 70.0962L95.5186 76.0724L89.5424 86.4236L79.1912 80.4473L85.1674 70.0962ZM96 75.9434L89.6713 86.905L78.7098 80.5763L85.0384 69.6147L96 75.9434Z" fill="white" fill-opacity="0.13"/>
<path fill-rule="evenodd" clip-rule="evenodd" d="M147.841 2.55748L155.975 7.49461L151.038 15.6287L142.903 10.6916L147.841 2.55748ZM156.459 7.37621L151.156 16.1128L142.419 10.81L147.722 2.07336L156.459 7.37621Z" fill="white" fill-opacity="0.13"/>
<path fill-rule="evenodd" clip-rule="evenodd" d="M150.945 29.2111L148.355 27.716L146.86 30.3057L144.27 28.8105L142.775 31.4002L140.109 29.861L140.197 29.7084L142.711 31.1595L144.206 28.5698L146.796 30.065L148.291 27.4753L150.881 28.9704L152.376 26.3807L155.042 27.92L154.954 28.0726L152.44 26.6214L150.945 29.2111Z" fill="white" fill-opacity="0.13"/>
<path fill-rule="evenodd" clip-rule="evenodd" d="M103.405 29.1717L101.423 26.4517L98.3472 27.8166L96.3657 25.0966L93.2897 26.4614L91.2663 23.6839L91.4088 23.5802L93.3483 26.2427L96.4243 24.8778L98.4058 27.5978L101.482 26.2329L103.463 28.9529L106.539 27.5881L108.563 30.3656L108.42 30.4694L106.481 27.8069L103.405 29.1717Z" fill="white" fill-opacity="0.13"/>
<path fill-rule="evenodd" clip-rule="evenodd" d="M102.672 31.02L100.69 28.3L97.6141 29.6649L95.6326 26.9449L92.5566 28.3097L90.5333 25.5322L90.6757 25.4285L92.6153 28.091L95.6913 26.7261L97.6727 29.4461L100.749 28.0812L102.73 30.8012L105.806 29.4364L107.83 32.2139L107.687 32.3177L105.748 29.6552L102.672 31.02Z" fill="white" fill-opacity="0.13"/>
<path fill-rule="evenodd" clip-rule="evenodd" d="M101.939 32.8683L99.9571 30.1483L96.8811 31.5132L94.8996 28.7932L91.8236 30.158L89.8003 27.3805L89.9427 27.2768L91.8823 29.9393L94.9583 28.5744L96.9397 31.2944L100.016 29.9295L101.997 32.6495L105.073 31.2847L107.097 34.0622L106.954 34.1659L105.015 31.5035L101.939 32.8683Z" fill="white" fill-opacity="0.13"/>
<path fill-rule="evenodd" clip-rule="evenodd" d="M151.401 30.9132L148.811 29.418L147.316 32.0077L144.726 30.5125L143.231 33.1022L140.565 31.563L140.653 31.4104L143.167 32.8615L144.662 30.2718L147.252 31.767L148.747 29.1773L151.337 30.6725L152.832 28.0828L155.498 29.622L155.41 29.7746L152.896 28.3235L151.401 30.9132Z" fill="white" fill-opacity="0.13"/>
<path fill-rule="evenodd" clip-rule="evenodd" d="M169.692 6.62157L173.016 7.1438L174.226 4.00364L177.551 4.52587L178.761 1.3857L182.155 1.91898L182.128 2.09305L178.874 1.58186L177.664 4.72202L174.339 4.19979L173.13 7.33996L169.805 6.81773L168.595 9.95789L165.2 9.42462L165.228 9.25055L168.482 9.76173L169.692 6.62157Z" fill="white" fill-opacity="0.13"/>
<path fill-rule="evenodd" clip-rule="evenodd" d="M171.009 8.31534L174.333 8.83757L175.543 5.69741L178.868 6.21964L180.078 3.07947L183.472 3.61275L183.445 3.78682L180.191 3.27563L178.981 6.4158L175.657 5.89356L174.447 9.03373L171.122 8.5115L169.912 11.6517L166.517 11.1184L166.545 10.9443L169.799 11.4555L171.009 8.31534Z" fill="white" fill-opacity="0.13"/>
<path fill-rule="evenodd" clip-rule="evenodd" d="M151.857 32.6152L149.267 31.12L147.772 33.7097L145.183 32.2146L143.687 34.8043L141.021 33.265L141.109 33.1124L143.623 34.5636L145.118 31.9738L147.708 33.469L149.203 30.8793L151.793 32.3745L153.288 29.7848L155.954 31.324L155.866 31.4766L153.352 30.0255L151.857 32.6152Z" fill="white" fill-opacity="0.13"/>
<path fill-rule="evenodd" clip-rule="evenodd" d="M168.811 5.09557L172.135 5.6178L173.345 2.47763L176.67 2.99987L177.88 -0.1403L181.274 0.392975L181.247 0.567046L177.993 0.055859L176.783 3.19602L173.458 2.67379L172.248 5.81396L168.924 5.29173L167.714 8.43189L164.319 7.89862L164.347 7.72454L167.601 8.23573L168.811 5.09557Z" fill="white" fill-opacity="0.13"/>
<path fill-rule="evenodd" clip-rule="evenodd" d="M124.658 31.3118C127.836 31.3118 130.411 28.5929 130.411 25.2389C130.411 21.8849 127.836 19.166 124.658 19.166C121.481 19.166 118.905 21.8849 118.905 25.2389C118.905 28.5929 121.481 31.3118 124.658 31.3118ZM124.658 31.6799C128.028 31.6799 130.76 28.7962 130.76 25.2389C130.76 21.6817 128.028 18.7979 124.658 18.7979C121.288 18.7979 118.556 21.6817 118.556 25.2389C118.556 28.7962 121.288 31.6799 124.658 31.6799Z" fill="white" fill-opacity="0.13"/>
<path fill-rule="evenodd" clip-rule="evenodd" d="M136.523 27.9248C135.414 27.9248 134.515 27.0259 134.515 25.9169C134.515 24.808 135.414 23.909 136.523 23.909C137.632 23.909 138.531 24.808 138.531 25.9169C138.531 27.0259 137.632 27.9248 136.523 27.9248ZM136.523 28.2899C135.213 28.2899 134.15 27.2275 134.15 25.9169C134.15 24.6063 135.213 23.5439 136.523 23.5439C137.834 23.5439 138.896 24.6063 138.896 25.9169C138.896 27.2275 137.834 28.2899 136.523 28.2899Z" fill="white" fill-opacity="0.13"/>
<path fill-rule="evenodd" clip-rule="evenodd" d="M116.183 1.47391C113.568 1.47391 111.449 -0.78702 111.449 -3.57601C111.449 -6.36501 113.568 -8.62593 116.183 -8.62593C118.798 -8.62593 120.917 -6.36501 120.917 -3.57601C120.917 -0.78702 118.798 1.47391 116.183 1.47391ZM116.183 1.84797C113.375 1.84797 111.098 -0.580428 111.098 -3.57601C111.098 -6.5716 113.375 -9 116.183 -9C118.992 -9 121.268 -6.5716 121.268 -3.57601C121.268 -0.580428 118.992 1.84797 116.183 1.84797Z" fill="white" fill-opacity="0.13"/>
<path fill-rule="evenodd" clip-rule="evenodd" d="M144.998 18.4537C151.168 18.4537 156.169 13.5992 156.169 7.61095C156.169 1.62266 151.168 -3.2318 144.998 -3.2318C138.828 -3.2318 133.827 1.62266 133.827 7.61095C133.827 13.5992 138.828 18.4537 144.998 18.4537ZM144.998 18.7979C151.364 18.7979 156.524 13.7893 156.524 7.61095C156.524 1.43256 151.364 -3.57602 144.998 -3.57602C138.632 -3.57602 133.472 1.43256 133.472 7.61095C133.472 13.7893 138.632 18.7979 144.998 18.7979Z" fill="white" fill-opacity="0.13"/>
<path fill-rule="evenodd" clip-rule="evenodd" d="M116.44 5.87413L99.349 -3.99346L89.4814 13.0977L106.573 22.9653L116.44 5.87413ZM99.22 -4.47487L89 13.2267L106.702 23.4467L116.922 5.74514L99.22 -4.47487Z" fill="white" fill-opacity="0.13"/>
<path fill-rule="evenodd" clip-rule="evenodd" d="M123.653 0.843151L129.731 0.843151L129.731 6.92078L123.653 6.92078L123.653 0.843151ZM130.082 0.491974L130.082 7.27196L123.302 7.27196L123.302 0.491973L130.082 0.491974Z" fill="white" fill-opacity="0.13"/>
<path fill-rule="evenodd" clip-rule="evenodd" d="M130.383 16.4626L132.493 16.4626L132.493 19.0993L130.383 19.0993L130.383 16.4626ZM132.794 16.0859L132.794 19.4759L130.082 19.4759L130.082 16.0859L132.794 16.0859Z" fill="white" fill-opacity="0.13"/>
<path fill-rule="evenodd" clip-rule="evenodd" d="M174.167 22.0962L184.519 28.0724L178.542 38.4236L168.191 32.4473L174.167 22.0962ZM185 27.9434L178.671 38.905L167.71 32.5763L174.038 21.6147L185 27.9434Z" fill="white" fill-opacity="0.13"/>
<path fill-rule="evenodd" clip-rule="evenodd" d="M157.841 46.5575L165.975 51.4946L161.038 59.6287L152.903 54.6916L157.841 46.5575ZM166.459 51.3762L161.156 60.1128L152.419 54.81L157.722 46.0734L166.459 51.3762Z" fill="white" fill-opacity="0.13"/>
<path fill-rule="evenodd" clip-rule="evenodd" d="M160.945 73.2111L158.355 71.716L156.86 74.3057L154.27 72.8105L152.775 75.4002L150.109 73.861L150.197 73.7084L152.711 75.1595L154.206 72.5698L156.796 74.065L158.291 71.4753L160.881 72.9704L162.376 70.3807L165.042 71.92L164.954 72.0726L162.44 70.6214L160.945 73.2111Z" fill="white" fill-opacity="0.13"/>
<path fill-rule="evenodd" clip-rule="evenodd" d="M113.405 73.1717L111.423 70.4517L108.347 71.8166L106.366 69.0966L103.29 70.4614L101.266 67.6839L101.409 67.5802L103.348 70.2427L106.424 68.8778L108.406 71.5978L111.482 70.2329L113.463 72.9529L116.539 71.5881L118.563 74.3656L118.42 74.4694L116.481 71.8069L113.405 73.1717Z" fill="white" fill-opacity="0.13"/>
<path fill-rule="evenodd" clip-rule="evenodd" d="M112.672 75.02L110.69 72.3L107.614 73.6649L105.633 70.9449L102.557 72.3097L100.533 69.5322L100.676 69.4285L102.615 72.091L105.691 70.7261L107.673 73.4461L110.749 72.0812L112.73 74.8012L115.806 73.4364L117.83 76.2139L117.687 76.3177L115.748 73.6552L112.672 75.02Z" fill="white" fill-opacity="0.13"/>
<path fill-rule="evenodd" clip-rule="evenodd" d="M111.939 76.8683L109.957 74.1483L106.881 75.5132L104.9 72.7932L101.824 74.158L99.8003 71.3805L99.9427 71.2768L101.882 73.9393L104.958 72.5744L106.94 75.2944L110.016 73.9295L111.997 76.6495L115.073 75.2847L117.097 78.0622L116.954 78.1659L115.015 75.5035L111.939 76.8683Z" fill="white" fill-opacity="0.13"/>
<path fill-rule="evenodd" clip-rule="evenodd" d="M161.401 74.9132L158.811 73.418L157.316 76.0077L154.726 74.5125L153.231 77.1022L150.565 75.563L150.653 75.4104L153.167 76.8615L154.662 74.2718L157.252 75.767L158.747 73.1773L161.337 74.6725L162.832 72.0828L165.498 73.622L165.41 73.7746L162.896 72.3235L161.401 74.9132Z" fill="white" fill-opacity="0.13"/>
<path fill-rule="evenodd" clip-rule="evenodd" d="M179.692 50.6216L183.016 51.1438L184.226 48.0036L187.551 48.5259L188.761 45.3857L192.155 45.919L192.128 46.093L188.874 45.5819L187.664 48.722L184.339 48.1998L183.13 51.34L179.805 50.8177L178.595 53.9579L175.2 53.4246L175.228 53.2505L178.482 53.7617L179.692 50.6216Z" fill="white" fill-opacity="0.13"/>
<path fill-rule="evenodd" clip-rule="evenodd" d="M181.009 52.3153L184.333 52.8376L185.543 49.6974L188.868 50.2196L190.078 47.0795L193.472 47.6127L193.445 47.7868L190.191 47.2756L188.981 50.4158L185.657 49.8936L184.447 53.0337L181.122 52.5115L179.912 55.6517L176.517 55.1184L176.545 54.9443L179.799 55.4555L181.009 52.3153Z" fill="white" fill-opacity="0.13"/>
<path fill-rule="evenodd" clip-rule="evenodd" d="M161.857 76.6152L159.267 75.12L157.772 77.7097L155.183 76.2146L153.687 78.8043L151.021 77.265L151.109 77.1124L153.623 78.5636L155.118 75.9738L157.708 77.469L159.203 74.8793L161.793 76.3745L163.288 73.7848L165.954 75.324L165.866 75.4766L163.352 74.0255L161.857 76.6152Z" fill="white" fill-opacity="0.13"/>
<path fill-rule="evenodd" clip-rule="evenodd" d="M178.811 49.0956L182.135 49.6178L183.345 46.4776L186.67 46.9999L187.88 43.8597L191.274 44.393L191.247 44.567L187.993 44.0559L186.783 47.196L183.458 46.6738L182.248 49.814L178.924 49.2917L177.714 52.4319L174.319 51.8986L174.347 51.7245L177.601 52.2357L178.811 49.0956Z" fill="white" fill-opacity="0.13"/>
<path fill-rule="evenodd" clip-rule="evenodd" d="M134.658 75.3118C137.836 75.3118 140.411 72.5929 140.411 69.2389C140.411 65.8849 137.836 63.166 134.658 63.166C131.481 63.166 128.905 65.8849 128.905 69.2389C128.905 72.5929 131.481 75.3118 134.658 75.3118ZM134.658 75.6799C138.028 75.6799 140.76 72.7962 140.76 69.2389C140.76 65.6817 138.028 62.7979 134.658 62.7979C131.288 62.7979 128.556 65.6817 128.556 69.2389C128.556 72.7962 131.288 75.6799 134.658 75.6799Z" fill="white" fill-opacity="0.13"/>
<path fill-rule="evenodd" clip-rule="evenodd" d="M146.523 71.9248C145.414 71.9248 144.515 71.0259 144.515 69.9169C144.515 68.808 145.414 67.909 146.523 67.909C147.632 67.909 148.531 68.808 148.531 69.9169C148.531 71.0259 147.632 71.9248 146.523 71.9248ZM146.523 72.2899C145.213 72.2899 144.15 71.2275 144.15 69.9169C144.15 68.6063 145.213 67.5439 146.523 67.5439C147.834 67.5439 148.896 68.6063 148.896 69.9169C148.896 71.2275 147.834 72.2899 146.523 72.2899Z" fill="white" fill-opacity="0.13"/>
<path fill-rule="evenodd" clip-rule="evenodd" d="M126.183 45.4739C123.568 45.4739 121.449 43.213 121.449 40.424C121.449 37.635 123.568 35.3741 126.183 35.3741C128.798 35.3741 130.917 37.635 130.917 40.424C130.917 43.213 128.798 45.4739 126.183 45.4739ZM126.183 45.848C123.375 45.848 121.098 43.4196 121.098 40.424C121.098 37.4284 123.375 35 126.183 35C128.992 35 131.268 37.4284 131.268 40.424C131.268 43.4196 128.992 45.848 126.183 45.848Z" fill="white" fill-opacity="0.13"/>
<path fill-rule="evenodd" clip-rule="evenodd" d="M154.998 62.4537C161.168 62.4537 166.169 57.5992 166.169 51.611C166.169 45.6227 161.168 40.7682 154.998 40.7682C148.828 40.7682 143.827 45.6227 143.827 51.611C143.827 57.5992 148.828 62.4537 154.998 62.4537ZM154.998 62.7979C161.364 62.7979 166.524 57.7893 166.524 51.611C166.524 45.4326 161.364 40.424 154.998 40.424C148.632 40.424 143.472 45.4326 143.472 51.611C143.472 57.7893 148.632 62.7979 154.998 62.7979Z" fill="white" fill-opacity="0.13"/>
<path fill-rule="evenodd" clip-rule="evenodd" d="M126.44 49.8741L109.349 40.0065L99.4814 57.0977L116.573 66.9653L126.44 49.8741ZM109.22 39.5251L99 57.2267L116.702 67.4467L126.922 49.7451L109.22 39.5251Z" fill="white" fill-opacity="0.13"/>
<path fill-rule="evenodd" clip-rule="evenodd" d="M133.653 44.8432L139.731 44.8432L139.731 50.9208L133.653 50.9208L133.653 44.8432ZM140.082 44.492L140.082 51.272L133.302 51.272L133.302 44.492L140.082 44.492Z" fill="white" fill-opacity="0.13"/>
<path fill-rule="evenodd" clip-rule="evenodd" d="M140.383 60.4626L142.493 60.4626L142.493 63.0993L140.383 63.0993L140.383 60.4626ZM142.794 60.0859L142.794 63.4759L140.082 63.4759L140.082 60.0859L142.794 60.0859Z" fill="white" fill-opacity="0.13"/>
<path fill-rule="evenodd" clip-rule="evenodd" d="M184.167 66.0962L194.519 72.0724L188.542 82.4236L178.191 76.4473L184.167 66.0962ZM195 71.9434L188.671 82.905L177.71 76.5763L184.038 65.6147L195 71.9434Z" fill="white" fill-opacity="0.13"/>
<path fill-rule="evenodd" clip-rule="evenodd" d="M156.841 92.5575L164.975 97.4946L160.038 105.629L151.903 100.692L156.841 92.5575ZM165.459 97.3762L160.156 106.113L151.419 100.81L156.722 92.0734L165.459 97.3762Z" fill="white" fill-opacity="0.13"/>
<path fill-rule="evenodd" clip-rule="evenodd" d="M159.945 119.211L157.355 117.716L155.86 120.306L153.27 118.811L151.775 121.4L149.109 119.861L149.197 119.708L151.711 121.16L153.206 118.57L155.796 120.065L157.291 117.475L159.881 118.97L161.376 116.381L164.042 117.92L163.954 118.073L161.44 116.621L159.945 119.211Z" fill="white" fill-opacity="0.13"/>
<path fill-rule="evenodd" clip-rule="evenodd" d="M112.405 119.172L110.423 116.452L107.347 117.817L105.366 115.097L102.29 116.461L100.266 113.684L100.409 113.58L102.348 116.243L105.424 114.878L107.406 117.598L110.482 116.233L112.463 118.953L115.539 117.588L117.563 120.366L117.42 120.469L115.481 117.807L112.405 119.172Z" fill="white" fill-opacity="0.13"/>
<path fill-rule="evenodd" clip-rule="evenodd" d="M111.672 121.02L109.69 118.3L106.614 119.665L104.633 116.945L101.557 118.31L99.5333 115.532L99.6757 115.428L101.615 118.091L104.691 116.726L106.673 119.446L109.749 118.081L111.73 120.801L114.806 119.436L116.83 122.214L116.687 122.318L114.748 119.655L111.672 121.02Z" fill="white" fill-opacity="0.13"/>
<path fill-rule="evenodd" clip-rule="evenodd" d="M110.939 122.868L108.957 120.148L105.881 121.513L103.9 118.793L100.824 120.158L98.8003 117.381L98.9427 117.277L100.882 119.939L103.958 118.574L105.94 121.294L109.016 119.93L110.997 122.65L114.073 121.285L116.097 124.062L115.954 124.166L114.015 121.503L110.939 122.868Z" fill="white" fill-opacity="0.13"/>
<path fill-rule="evenodd" clip-rule="evenodd" d="M160.401 120.913L157.811 119.418L156.316 122.008L153.726 120.513L152.231 123.102L149.565 121.563L149.653 121.41L152.167 122.862L153.662 120.272L156.252 121.767L157.747 119.177L160.337 120.672L161.832 118.083L164.498 119.622L164.41 119.775L161.896 118.323L160.401 120.913Z" fill="white" fill-opacity="0.13"/>
<path fill-rule="evenodd" clip-rule="evenodd" d="M178.692 96.6216L182.016 97.1438L183.226 94.0036L186.551 94.5259L187.761 91.3857L191.155 91.919L191.128 92.093L187.874 91.5819L186.664 94.722L183.339 94.1998L182.13 97.34L178.805 96.8177L177.595 99.9579L174.2 99.4246L174.228 99.2505L177.482 99.7617L178.692 96.6216Z" fill="white" fill-opacity="0.13"/>
<path fill-rule="evenodd" clip-rule="evenodd" d="M180.009 98.3153L183.333 98.8376L184.543 95.6974L187.868 96.2196L189.078 93.0795L192.472 93.6127L192.445 93.7868L189.191 93.2756L187.981 96.4158L184.657 95.8936L183.447 99.0337L180.122 98.5115L178.912 101.652L175.517 101.118L175.545 100.944L178.799 101.456L180.009 98.3153Z" fill="white" fill-opacity="0.13"/>
<path fill-rule="evenodd" clip-rule="evenodd" d="M160.857 122.615L158.267 121.12L156.772 123.71L154.183 122.215L152.687 124.804L150.021 123.265L150.109 123.112L152.623 124.564L154.118 121.974L156.708 123.469L158.203 120.879L160.793 122.374L162.288 119.785L164.954 121.324L164.866 121.477L162.352 120.025L160.857 122.615Z" fill="white" fill-opacity="0.13"/>
<path fill-rule="evenodd" clip-rule="evenodd" d="M177.811 95.0956L181.135 95.6178L182.345 92.4776L185.67 92.9999L186.88 89.8597L190.274 90.393L190.247 90.5671L186.993 90.0559L185.783 93.196L182.458 92.6738L181.248 95.814L177.924 95.2917L176.714 98.4319L173.319 97.8986L173.347 97.7246L176.601 98.2357L177.811 95.0956Z" fill="white" fill-opacity="0.13"/>
<path fill-rule="evenodd" clip-rule="evenodd" d="M133.658 121.312C136.836 121.312 139.411 118.593 139.411 115.239C139.411 111.885 136.836 109.166 133.658 109.166C130.481 109.166 127.905 111.885 127.905 115.239C127.905 118.593 130.481 121.312 133.658 121.312ZM133.658 121.68C137.028 121.68 139.76 118.796 139.76 115.239C139.76 111.682 137.028 108.798 133.658 108.798C130.288 108.798 127.556 111.682 127.556 115.239C127.556 118.796 130.288 121.68 133.658 121.68Z" fill="white" fill-opacity="0.13"/>
<path fill-rule="evenodd" clip-rule="evenodd" d="M145.523 117.925C144.414 117.925 143.515 117.026 143.515 115.917C143.515 114.808 144.414 113.909 145.523 113.909C146.632 113.909 147.531 114.808 147.531 115.917C147.531 117.026 146.632 117.925 145.523 117.925ZM145.523 118.29C144.213 118.29 143.15 117.227 143.15 115.917C143.15 114.606 144.213 113.544 145.523 113.544C146.834 113.544 147.896 114.606 147.896 115.917C147.896 117.227 146.834 118.29 145.523 118.29Z" fill="white" fill-opacity="0.13"/>
<path fill-rule="evenodd" clip-rule="evenodd" d="M125.183 91.4739C122.568 91.4739 120.449 89.213 120.449 86.424C120.449 83.635 122.568 81.3741 125.183 81.3741C127.798 81.3741 129.917 83.635 129.917 86.424C129.917 89.213 127.798 91.4739 125.183 91.4739ZM125.183 91.848C122.375 91.848 120.098 89.4196 120.098 86.424C120.098 83.4284 122.375 81 125.183 81C127.992 81 130.268 83.4284 130.268 86.424C130.268 89.4196 127.992 91.848 125.183 91.848Z" fill="white" fill-opacity="0.13"/>
<path fill-rule="evenodd" clip-rule="evenodd" d="M153.998 108.454C160.168 108.454 165.169 103.599 165.169 97.611C165.169 91.6227 160.168 86.7682 153.998 86.7682C147.828 86.7682 142.827 91.6227 142.827 97.611C142.827 103.599 147.828 108.454 153.998 108.454ZM153.998 108.798C160.364 108.798 165.524 103.789 165.524 97.611C165.524 91.4326 160.364 86.424 153.998 86.424C147.632 86.424 142.472 91.4326 142.472 97.611C142.472 103.789 147.632 108.798 153.998 108.798Z" fill="white" fill-opacity="0.13"/>
<path fill-rule="evenodd" clip-rule="evenodd" d="M125.44 95.8741L108.349 86.0065L98.4814 103.098L115.573 112.965L125.44 95.8741ZM108.22 85.5251L98 103.227L115.702 113.447L125.922 95.7451L108.22 85.5251Z" fill="white" fill-opacity="0.13"/>
<path fill-rule="evenodd" clip-rule="evenodd" d="M132.653 90.8432L138.731 90.8432L138.731 96.9208L132.653 96.9208L132.653 90.8432ZM139.082 90.492L139.082 97.272L132.302 97.272L132.302 90.492L139.082 90.492Z" fill="white" fill-opacity="0.13"/>
<path fill-rule="evenodd" clip-rule="evenodd" d="M139.383 106.463L141.493 106.463L141.493 109.099L139.383 109.099L139.383 106.463ZM141.794 106.086L141.794 109.476L139.082 109.476L139.082 106.086L141.794 106.086Z" fill="white" fill-opacity="0.13"/>
<path fill-rule="evenodd" clip-rule="evenodd" d="M183.167 112.096L193.519 118.072L187.542 128.424L177.191 122.447L183.167 112.096ZM194 117.943L187.671 128.905L176.71 122.576L183.038 111.615L194 117.943Z" fill="white" fill-opacity="0.13"/>
</g>
<defs>
<filter id="filter0_f" x="9" y="1" width="98" height="49.905" filterUnits="userSpaceOnUse" color-interpolation-filters="sRGB">
<feFlood flood-opacity="0" result="BackgroundImageFix"/>
<feBlend mode="normal" in="SourceGraphic" in2="BackgroundImageFix" result="shape"/>
<feGaussianBlur stdDeviation="0.5" result="effect1_foregroundBlur"/>
</filter>
<filter id="filter1_f" x="78" y="-2" width="98" height="49.905" filterUnits="userSpaceOnUse" color-interpolation-filters="sRGB">
<feFlood flood-opacity="0" result="BackgroundImageFix"/>
<feBlend mode="normal" in="SourceGraphic" in2="BackgroundImageFix" result="shape"/>
<feGaussianBlur stdDeviation="0.5" result="effect1_foregroundBlur"/>
</filter>
<filter id="filter2_f" x="30" y="57" width="98" height="49.905" filterUnits="userSpaceOnUse" color-interpolation-filters="sRGB">
<feFlood flood-opacity="0" result="BackgroundImageFix"/>
<feBlend mode="normal" in="SourceGraphic" in2="BackgroundImageFix" result="shape"/>
<feGaussianBlur stdDeviation="0.5" result="effect1_foregroundBlur"/>
</filter>
<filter id="filter3_f" x="79" y="57" width="98" height="49.905" filterUnits="userSpaceOnUse" color-interpolation-filters="sRGB">
<feFlood flood-opacity="0" result="BackgroundImageFix"/>
<feBlend mode="normal" in="SourceGraphic" in2="BackgroundImageFix" result="shape"/>
<feGaussianBlur stdDeviation="0.5" result="effect1_foregroundBlur"/>
</filter>
<linearGradient id="paint0_linear" x1="-149.5" y1="-28.8861" x2="583.914" y2="331.914" gradientUnits="userSpaceOnUse">
<stop stop-color="#771FB3"/>
<stop offset="1" stop-color="#0050E6"/>
</linearGradient>
<linearGradient id="paint1_linear" x1="-149.5" y1="-28.8861" x2="583.914" y2="331.914" gradientUnits="userSpaceOnUse">
<stop stop-color="#771FB3"/>
<stop offset="1" stop-color="#0050E6"/>
</linearGradient>
</defs>
</svg>
